<svg width="104" height="157" viewBox="0 0 104 157" fill="none" xmlns="http://www.w3.org/2000/svg">
<path d="M103.191 72.9343C96.0889 73.5128 88.8513 73.8985 82.1092 77.0935C81.7559 64.9941 81.4026 52.8948 81.0493 40.7954C80.9571 37.6874 80.8794 34.5755 80.7613 31.4675C80.6634 28.5523 80.4935 25.5993 79.8973 22.7711C79.3904 20.3701 78.512 17.9654 76.8992 16.5248C75.2863 15.0842 73.181 14.725 71.2543 14.6343C69.2066 14.5549 66.9054 15.0124 65.402 16.9861C64.982 17.5448 64.6137 18.1667 64.3047 18.8388C64.2264 16.8509 64.063 14.8702 63.8151 12.9064C63.4206 9.88152 62.8906 6.68275 61.4593 4.18348C60.1431 1.88838 58.2451 0.825906 56.1398 0.357056C53.9176 -0.131389 51.6482 -0.118611 49.4293 0.394857C47.4141 0.812377 45.556 2.0752 44.1329 3.99442C41.0282 8.23298 40.9649 14.6154 41.1175 20.1622C40.6163 19.1199 39.9612 18.2199 39.1908 17.5155C37.1747 15.6892 34.4704 15.2241 32.077 15.5796C29.6146 15.9577 27.3595 17.3718 26.3573 20.5176C25.9214 22.0361 25.6688 23.6345 25.6085 25.2553C25.4789 27.3386 25.4126 29.4144 25.3205 31.5091C25.1189 36.0161 24.9336 40.5231 24.7646 45.0301C24.4334 54.029 24.1886 63.0318 24.131 72.0382C24.131 72.9494 24.131 73.8569 24.131 74.7681C20.675 72.4995 16.9626 71.0854 13.0313 71.2858C10.7892 71.4156 8.55664 71.7492 6.34962 72.284C5.21777 72.5524 4.09455 72.8776 2.97421 73.2254C2.02956 73.5166 1.04458 73.6981 0.171928 74.2917C-0.231278 74.5677 0.171925 75.2294 0.393688 75.4601C0.842975 75.9478 1.42763 76.065 1.93451 76.4091C2.61025 76.8864 3.22609 77.4973 3.76046 78.2202C4.80983 79.6712 5.67872 81.3299 6.33522 83.1356C7.81268 86.962 8.98198 91.0342 10.1714 95.0232C11.4041 99.1572 12.5619 103.326 13.6448 107.531C14.6873 111.573 15.5542 115.687 16.5968 119.725C18.3078 126.247 20.9542 132.28 24.3931 137.496C27.8431 142.766 32.0241 147.129 36.7139 150.351C41.4312 153.572 46.58 155.56 51.8745 156.204C57.1802 156.884 62.5356 156.111 67.6024 153.936C72.6309 151.731 77.6336 147.996 81.0119 142.536C84.7559 136.486 86.7374 128.837 88.523 121.506C90.4958 113.422 92.0655 105.179 93.9375 97.0574C95.4956 90.2856 97.3935 83.4456 100.956 78.0047C101.849 76.634 102.832 75.3688 103.894 74.2236C104.28 73.804 103.514 72.9079 103.191 72.9343ZM94.3407 90.4141C92.2584 97.9346 90.8443 105.773 89.1566 113.452C88.2379 117.611 87.2702 121.744 86.1614 125.82C85.2401 129.389 84.0977 132.852 82.7457 136.176C81.4024 139.457 79.629 142.401 77.5069 144.873C75.4545 147.147 73.1815 149.054 70.7474 150.544C65.9666 153.474 60.7589 155.007 55.4832 155.04C47.571 155.144 39.8159 152.139 33.2144 146.412C26.613 140.685 21.4668 132.497 18.4372 122.901C17.2851 119.241 16.545 115.377 15.6176 111.611C14.6077 107.517 13.5296 103.454 12.3833 99.4205C11.2198 95.3219 9.98615 91.2611 8.68245 87.238C7.50164 83.5969 6.22578 79.7818 3.94479 77.0783C3.43224 76.4643 2.87241 75.922 2.27436 75.4601C2.12859 75.3557 1.97752 75.2648 1.8222 75.1878C2.29164 74.9988 2.77549 74.8702 3.26222 74.7341C4.15503 74.477 5.0392 74.1858 5.9349 73.9476C7.86815 73.428 9.82335 73.0605 11.79 72.8473C13.6937 72.5899 15.6144 72.6484 17.5069 73.0213C19.3457 73.4366 21.1363 74.1596 22.835 75.1727C25.9829 77.0405 28.8831 79.71 31.5471 82.5646C34.0397 85.2079 36.2657 88.2573 38.1712 91.6392C40.2746 95.3887 41.7695 99.665 42.5633 104.204C42.6056 104.404 42.6868 104.586 42.7989 104.732C42.9109 104.879 43.0501 104.985 43.2027 105.039C43.2563 105.072 43.3163 105.083 43.3747 105.069C43.433 105.056 43.4867 105.019 43.5286 104.964C43.5705 104.909 43.5984 104.839 43.6086 104.762C43.6189 104.686 43.6108 104.607 43.5857 104.536C42.1255 95.9382 37.9754 88.5954 32.9929 82.886C30.5941 80.0782 27.9749 77.613 25.1793 75.5319C25.1793 67.0813 25.3838 58.6306 25.6661 50.1989C25.812 45.8733 25.9771 41.5478 26.1614 37.2223C26.2536 35.0797 26.3496 32.9371 26.4494 30.7945C26.5358 28.904 26.579 26.9757 26.7374 25.0776C26.8281 23.5123 27.1634 21.9884 27.7224 20.6008C28.3315 19.2639 29.2705 18.2406 30.3836 17.7007C32.6539 16.6265 35.1339 16.5892 37.4224 17.5949C38.4509 18.0216 39.3626 18.8322 40.0461 19.9278C40.5924 20.8789 40.9907 21.962 41.2183 23.1152C41.2183 23.1757 41.2183 23.2324 41.2183 23.2929C41.2263 23.4576 41.267 23.6166 41.3364 23.7542L41.3623 23.913C41.593 25.4327 41.7192 26.9765 41.7396 28.5259C41.8001 30.5866 41.8174 32.651 41.8289 34.7155C41.8519 39.1128 41.8087 43.514 41.8289 47.9151C41.849 52.3162 41.9758 56.8006 41.9729 61.2433C41.9729 62.3549 41.9642 63.4666 41.947 64.5782C41.947 65.2058 42.9867 66.0906 42.9982 65.2437C43.0731 60.593 42.9694 55.946 42.9089 51.2954C42.8513 46.7241 42.8859 42.1528 42.8772 37.5815C42.8772 33.6341 42.978 29.5921 42.5633 25.6712C42.4923 24.9812 42.3874 24.2979 42.2494 23.6256C42.0934 20.6335 42.0886 17.6311 42.235 14.6381C42.4106 11.946 42.8657 9.1858 44.0033 6.8907C45.0905 4.68016 46.7252 3.02956 48.6315 2.21733C50.6321 1.47716 52.7186 1.22092 54.7891 1.46112C56.5862 1.6237 58.7578 2.00937 60.12 3.72975C61.7329 5.75639 62.2714 8.92113 62.6631 11.6964C63.1322 15.3122 63.3605 18.9748 63.3457 22.6426C63.3457 22.8467 63.3457 23.0509 63.3457 23.2551C63.3457 23.4593 63.3457 23.5689 63.3457 23.7277C63.3457 27.9663 63.3457 32.2048 63.3313 36.4434L63.2967 61.8596V65.0811C63.2967 65.7049 64.3479 66.5935 64.3508 65.7465L64.3854 39.0901C64.3854 34.6361 64.3911 30.182 64.4027 25.7279V24.397C64.4286 24.3529 64.4454 24.3008 64.4516 24.2457C64.4516 24.1361 64.4343 24.0264 64.4315 23.913C64.4286 23.7996 64.4315 23.6105 64.4315 23.4593C64.4804 21.7011 65.1687 19.9467 66.0184 18.6498C67.2193 16.8084 68.9877 16.1618 70.782 16.0597C72.5762 15.9577 74.6498 16.1278 76.254 17.2432C77.9446 18.4153 78.6358 20.9562 79.0563 23.2551C79.5488 25.9623 79.6698 28.7527 79.7562 31.528C79.8445 34.442 79.929 37.3559 80.0096 40.2698L80.5194 57.7156L81.0954 77.5094C81.094 77.5396 81.094 77.5699 81.0954 77.6001L80.6317 77.8459C75.0185 80.8707 69.7999 85.8466 66.3611 92.4861C64.4107 96.1932 63.1347 100.439 62.6314 104.896C62.5623 105.516 63.5905 106.408 63.6855 105.561C64.5495 97.6208 68.1582 90.8149 72.8124 85.8239C78.0137 80.2582 84.3498 77.1275 90.9365 75.7852C94.5222 75.0593 98.1366 74.7719 101.76 74.4883C98.2748 78.8441 95.9852 84.4854 94.3407 90.4141Z" fill="url(#paint0_radial_264_3307)"/>
<path d="M80.1998 115.609C80.4219 115.202 80.5242 114.704 80.4878 114.206C80.4702 113.94 80.4085 113.682 80.3071 113.451C80.2057 113.22 80.067 113.021 79.9007 112.867C79.7345 112.714 79.5446 112.61 79.3446 112.563C79.1445 112.516 78.939 112.527 78.7425 112.595C78.3422 112.739 77.979 113.023 77.6913 113.416C77.3773 113.794 77.0951 114.232 76.7927 114.637C76.4903 115.041 76.234 115.393 75.9287 115.722C75.367 116.397 74.7586 117.002 74.1114 117.529C73.9299 117.673 73.7456 117.817 73.5584 117.953C73.5354 117.97 73.5165 117.994 73.5037 118.025C73.2157 118.131 72.9277 118.24 72.6397 118.369C71.8848 118.672 71.1733 119.137 70.5344 119.745C69.7761 120.577 69.1506 121.597 68.694 122.747C68.9763 121.648 69.3012 120.569 69.6675 119.514C70.2373 117.856 70.964 116.299 71.8304 114.879C72.6849 113.535 73.6641 112.338 74.745 111.313C75.2288 110.841 75.7271 110.394 76.2311 109.963C76.2712 109.969 76.3115 109.954 76.3434 109.922L76.5076 109.729C77.026 109.29 77.5473 108.867 78.0714 108.443C79.2062 107.521 80.3467 106.598 81.4238 105.562C82.501 104.526 83.5839 103.384 84.3039 101.902C84.6927 101.108 85.0383 100.167 84.9346 99.2026C84.8938 98.759 84.7382 98.3473 84.4939 98.0363C84.2496 97.7252 83.9314 97.5336 83.5925 97.4935C83.2321 97.5274 82.8864 97.6953 82.596 97.9775C82.308 98.2271 82.02 98.4955 81.732 98.7791C81.1722 99.3303 80.6629 99.9647 80.2142 100.67C79.4596 101.876 78.9441 103.316 78.4027 104.7C77.8612 106.084 77.3111 107.51 76.5249 108.685C76.401 108.871 76.2685 109.064 76.1303 109.215C75.7098 109.57 75.2893 109.937 74.8775 110.319C73.813 111.274 72.8309 112.378 71.9485 113.612C71.0363 114.948 70.2616 116.435 69.6444 118.036C69.2732 118.984 68.9425 119.959 68.6537 120.955C68.8524 118.115 68.8956 115.261 68.8985 112.414V111.279C68.8985 111.034 68.6422 110.716 68.4636 110.867C67.0726 112.028 65.67 113.17 64.2933 114.357C63.0607 115.419 61.8539 116.603 60.9813 118.187C60.8834 118.361 60.7941 118.539 60.6933 118.72C61.1591 116.728 61.4972 114.688 61.7042 112.622C61.9599 109.913 62.0043 107.178 61.8366 104.458C61.7934 103.653 61.7387 102.848 61.6811 102.046C61.6935 102.032 61.7034 102.014 61.7104 101.995C61.7173 101.975 61.7211 101.954 61.7214 101.932C61.7896 100.553 62.0078 99.1929 62.3694 97.8944C62.549 97.2381 62.7746 96.6052 63.0434 96.0038C63.3354 95.4001 63.6617 94.8262 64.0197 94.2872C64.7224 93.1529 65.4597 91.8447 65.333 90.3058C65.2923 89.6204 65.0544 88.9809 64.6677 88.5173C64.322 88.0947 63.8699 87.8538 63.3976 87.8405C63.1516 87.8412 62.9111 87.9372 62.7064 88.1165C62.4668 88.365 62.2571 88.6594 62.0843 88.99L61.9605 89.1979C61.9893 89.0391 62.021 88.8803 62.0555 88.7215C62.5368 86.4189 63.2589 84.215 64.2012 82.1727C65.2081 80.085 66.4065 78.1675 67.7695 76.4633C69.1203 74.7014 70.5113 72.9508 71.4675 70.7653C71.9226 69.757 72.2449 68.6551 72.4208 67.506C72.5677 66.4927 72.7319 65.0748 72.0176 64.3564C71.7324 64.094 71.3843 63.9763 71.038 64.0249C70.6917 64.0736 70.3705 64.2854 70.1341 64.6211C69.5321 65.4378 69.3737 66.6856 69.1145 67.7253C68.4924 70.2133 67.7321 72.6407 67.0841 75.1173C66.9286 75.7071 66.7961 76.3046 66.6434 76.902C65.6459 78.2385 64.7516 79.7013 63.9736 81.2691C63.0307 83.2212 62.2898 85.3294 61.7704 87.5381C61.5188 88.6138 61.3215 89.7101 61.18 90.82L61.1541 90.8881C61.1396 90.9367 61.1396 90.9907 61.1541 91.0393C61.0184 92.1453 60.9385 93.2619 60.915 94.3817C60.8545 97.089 61.0821 99.7811 61.2635 102.473C61.4746 105.121 61.5161 107.787 61.3874 110.444C61.229 113.039 60.8602 115.604 60.2872 118.096C60.195 118.497 60.0971 118.894 59.9992 119.291C59.5836 117.025 58.9477 114.838 58.107 112.784C57.529 111.425 56.8774 110.122 56.1572 108.886C55.4746 107.676 54.7604 106.428 54.3917 104.984C54.3004 104.626 54.2301 104.259 54.1815 103.887C54.1772 103.85 54.1685 103.815 54.1556 103.781C54.2045 101.256 54.7777 98.7867 55.0743 96.295C55.3306 94.136 55.4487 91.9505 55.5466 89.7689C56.534 86.7926 57.6892 83.9173 59.0027 81.167C59.3932 80.4832 59.6485 79.6829 59.7457 78.8379C59.7781 78.4241 59.7271 78.0065 59.5977 77.6269C59.4682 77.2473 59.265 76.919 59.0084 76.6751C58.7699 76.4681 58.4982 76.3361 58.2144 76.2896C57.9307 76.243 57.6426 76.2831 57.3726 76.4066C56.8345 76.6867 56.3833 77.1952 56.091 77.851C56.2263 74.932 56.3991 72.0017 56.307 69.079C56.2153 66.3596 55.8343 63.6704 55.1751 61.0896C54.8871 59.9553 54.5761 58.8626 54.2391 57.7698C54.2391 54.6883 54.1268 51.6067 53.9712 48.5327C53.8935 47.0203 53.8157 45.4814 53.7264 43.9577C53.6544 42.7326 53.5047 41.4017 52.8077 40.4942C52.2317 39.738 51.287 39.2881 50.5613 39.9573C49.9219 40.5434 49.824 41.7155 49.8672 42.657C49.9626 43.9085 50.1556 45.1438 50.4432 46.3435C50.7312 47.6404 51.0595 48.9108 51.4253 50.1661C52.1539 52.6579 53.0151 55.1042 53.7812 57.5846C53.7876 57.6377 53.8034 57.6882 53.8272 57.732C54.6254 60.1953 55.2173 62.7651 55.5927 65.3962C55.9815 68.4438 55.8951 71.5518 55.7626 74.6258L55.6503 77.144C55.6186 76.8868 55.5841 76.6297 55.5438 76.3877C55.3788 75.3121 55.0995 74.2723 54.7143 73.2986C54.5042 72.7866 54.2635 72.2973 53.9943 71.8353C53.7368 71.369 53.4548 70.9268 53.1504 70.512C52.8688 70.0958 52.4881 69.8173 52.0704 69.7217C51.8725 69.7161 51.6765 69.7721 51.4982 69.8851C51.32 69.9982 51.1647 70.1651 51.0451 70.3721C50.6026 71.0661 50.3736 71.952 50.4029 72.8562C50.4181 73.8079 50.6162 74.7392 50.9789 75.5634C51.4267 76.509 51.967 77.3734 52.5859 78.1346C53.6948 79.5789 55.0426 81.0989 55.273 83.2465C55.2978 83.4972 55.3055 83.7503 55.2961 84.0028C55.2937 84.0525 55.3017 84.1022 55.3191 84.1464C55.2673 85.316 55.2173 86.4844 55.1693 87.6515C55.1204 88.7858 55.0685 89.9201 55.0052 91.0733C54.961 91.8673 54.9101 92.6589 54.8525 93.4478C54.7374 94.9851 54.5615 96.5134 54.3255 98.0267C54.0675 99.4914 53.8694 100.973 53.7322 102.466C53.7092 102.817 53.6919 103.169 53.6861 103.517C53.6702 103.523 53.6557 103.534 53.6437 103.549C53.6317 103.565 53.6226 103.583 53.617 103.604C53.2426 105.169 52.5024 106.5 51.7507 107.793C51.0136 109.027 50.3401 110.324 49.7347 111.676C48.6302 114.225 47.8298 116.98 47.3615 119.847C46.7906 117.825 46.3418 115.746 46.0194 113.631C45.6507 111.357 45.4091 109.051 45.2966 106.731C45.0575 101.241 45.9791 95.7656 45.334 90.2717C45.2994 89.9919 45.262 89.7122 45.2217 89.4324C45.2293 89.3693 45.2223 89.3048 45.2015 89.2471C45.201 89.2383 45.201 89.2294 45.2015 89.2206C44.5215 84.7946 42.9829 80.674 40.7346 77.2574C40.3141 76.6184 39.8706 76.0134 39.404 75.4236C38.7358 72.8335 37.8891 70.3267 37.1374 67.7745C36.9473 67.1317 36.763 66.4852 36.5931 65.831C36.4594 65.2466 36.2919 64.6765 36.0919 64.1258C35.7175 63.1956 35.0177 62.3789 34.1594 62.5756C33.1658 62.7986 33.2493 64.2581 33.3645 65.2677C33.5259 66.5079 33.8598 67.6987 34.3495 68.7803C35.3777 71.117 36.8983 72.9394 38.3816 74.7619C39.1424 75.668 39.8635 76.63 40.5416 77.643C42.4044 80.5167 43.7509 83.9037 44.4815 87.5532C44.4988 87.6477 44.5161 87.7422 44.5362 87.8367C44.4815 87.7498 44.4297 87.659 44.3721 87.5721C44.0178 87.0163 43.6751 86.3659 43.1221 86.1391C42.2235 85.761 41.2818 86.6949 41.0888 87.8367C40.8267 89.3492 41.4805 90.8049 42.1919 91.9278C42.5576 92.4988 42.9522 93.0395 43.2863 93.6444C43.5782 94.183 43.8272 94.7595 44.0293 95.3648C44.4968 96.7622 44.7886 98.2498 44.8933 99.7697C44.897 99.8292 44.9097 99.887 44.9308 99.9399C44.8588 101.494 44.7897 103.052 44.7897 104.61C44.8082 106.967 44.9787 109.319 45.2994 111.638C45.5773 113.813 45.967 115.961 46.4658 118.066C46.2206 117.623 45.9364 117.22 45.6191 116.864C44.4009 115.48 42.9839 114.448 41.6043 113.37L39.139 111.442C39.0555 111.374 38.8366 111.275 38.851 111.514C38.9144 114.588 39.0008 117.658 39.2629 120.713C39.3377 121.552 39.4213 122.392 39.525 123.224C39.1697 122.174 38.7747 121.148 38.3412 120.15C37.6703 118.591 36.8643 117.14 35.9393 115.824C35.0193 114.555 33.9787 113.447 32.8432 112.527C32.106 111.914 31.3427 111.366 30.568 110.841C30.2181 110.475 29.8977 110.063 29.6118 109.612C29.2315 109.007 28.8758 108.376 28.5462 107.721C27.8867 106.421 27.2905 105.075 26.5475 103.834C25.6557 102.42 24.5429 101.274 23.2844 100.473C22.9587 100.219 22.586 100.088 22.2072 100.095C22.0517 100.112 21.9009 100.173 21.7655 100.275C21.6301 100.377 21.5134 100.517 21.4239 100.685C21.0063 101.467 21.1589 102.454 21.4728 103.252C22.1122 104.893 23.2527 106.08 24.4018 107.075C25.541 108.032 26.723 108.898 27.9414 109.669C28.7853 110.221 29.6349 110.757 30.473 111.325C30.5248 111.378 30.5795 111.427 30.6342 111.476C30.6864 111.528 30.75 111.557 30.8157 111.559C31.0547 111.725 31.2938 111.892 31.5299 112.062C32.6838 112.869 33.7673 113.839 34.7614 114.954C35.7726 116.141 36.6553 117.503 37.3851 119.004C38.1219 120.516 38.7579 122.109 39.2859 123.764C39.3205 123.863 39.3493 123.961 39.3809 124.059C38.8241 122.989 38.144 122.039 37.3649 121.242C36.3339 120.259 35.0609 119.855 33.8052 119.632L33.7533 119.594C33.0277 119.226 32.3304 118.767 31.6711 118.225C31.0075 117.654 30.3699 117.033 29.7616 116.365C29.1366 115.696 28.4253 114.951 27.5641 115.162C27.385 115.2 27.2159 115.296 27.072 115.441C26.9282 115.587 26.8142 115.777 26.7404 115.994C26.598 116.459 26.598 116.978 26.7404 117.442C27.0515 118.505 27.9097 119.102 28.6931 119.42C29.5834 119.719 30.4961 119.889 31.4147 119.927C32.3392 120.017 33.2637 120.097 34.1796 120.305C35.0248 120.438 35.8488 120.744 36.6219 121.212C37.2044 121.619 37.7247 122.164 38.1569 122.819C38.5967 123.472 39.0055 124.161 39.3809 124.88C38.0327 123.955 36.5814 123.317 35.081 122.989C34.5828 122.864 34.0845 122.759 33.5834 122.656C33.4855 122.656 33.4221 122.656 33.4077 122.808C33.1197 125.5 33.8685 128.158 34.7671 130.532C35.6353 132.897 36.6976 135.129 37.9352 137.191C38.2539 137.708 38.5889 138.212 38.9403 138.703C38.5074 138.484 38.0627 138.307 37.6097 138.174C36.6364 137.881 35.646 137.696 34.649 137.622C34.0039 137.573 33.3127 137.667 32.6992 137.357C32.5927 137.304 32.4804 137.3 32.4631 137.478C32.345 138.612 32.8576 139.656 33.3271 140.537C33.7642 141.347 34.2537 142.106 34.7902 142.806C35.8738 144.208 37.131 145.359 38.5083 146.209C39.1956 146.636 39.9108 146.982 40.6453 147.241C41.4114 147.513 42.1976 147.691 42.9781 147.865C43.8162 148.054 44.6601 148.213 45.5068 148.303C46.3535 148.394 47.2492 148.383 48.119 148.398L52.5111 148.462C52.1625 148.958 51.9479 149.59 51.9005 150.262C51.8042 150.998 51.8805 151.755 52.1194 152.432C52.3937 153.065 52.8073 153.574 53.306 153.892C53.7531 154.199 54.2529 154.35 54.7573 154.33C55.2617 154.31 55.7537 154.12 56.186 153.778C56.5845 153.443 56.9095 152.978 57.1287 152.427C57.348 151.877 57.4539 151.261 57.4359 150.64C57.3902 149.791 57.1215 148.989 56.6756 148.371L59.9128 148.201C60.8085 148.156 61.707 148.129 62.6027 148.046C63.4369 147.958 64.2666 147.809 65.0882 147.6C66.6293 147.3 68.137 146.755 69.5782 145.978C70.9388 145.172 72.1846 144.068 73.2618 142.711C73.7977 142.037 74.2873 141.302 74.7248 140.514C75.1885 139.671 75.6954 138.733 75.8192 137.682C75.8538 137.409 75.8538 137.131 75.8192 136.858C75.7962 136.677 75.586 136.404 75.4304 136.48C74.8544 136.801 74.218 136.771 73.5987 136.832C73.1437 136.877 72.6858 136.949 72.2336 137.043C71.3789 137.195 70.5363 137.448 69.7164 137.8L69.9612 137.421C71.1932 135.39 72.2436 133.18 73.0919 130.835C73.9731 128.475 74.7767 125.882 74.6499 123.201C74.6343 122.876 74.6054 122.553 74.5636 122.233C74.5449 122.119 74.4952 122.017 74.4236 121.947C74.352 121.878 74.2635 121.845 74.1748 121.855C72.4467 122.271 70.6841 122.77 69.0972 123.821C68.9964 123.885 68.8956 123.957 68.8092 124.029C69.3305 122.736 69.9065 121.465 70.7446 120.505C71.3421 119.862 72.0258 119.371 72.7606 119.057C73.6252 118.664 74.5096 118.35 75.4074 118.119C76.2945 117.87 77.193 117.669 78.0599 117.325C78.8519 117.023 79.716 116.535 80.1998 115.609ZM78.3479 106.356C78.9239 104.999 79.3991 103.581 80.0212 102.269C80.7379 100.831 81.6781 99.608 82.7803 98.6808C83.0583 98.3905 83.3869 98.1956 83.7365 98.1136C83.8751 98.0923 84.0153 98.1252 84.1397 98.2082C84.2297 98.2803 84.3048 98.3802 84.3586 98.4993C84.7128 99.2291 84.396 100.246 84.1167 100.938C83.4975 102.469 82.4405 103.638 81.4065 104.674C80.3726 105.71 79.2667 106.632 78.1579 107.532L77.6337 107.956C77.8929 107.43 78.1262 106.893 78.3479 106.356ZM69.9238 66.6931C70.1542 65.763 70.5545 64.6476 71.4128 64.6098C71.4884 64.5926 71.5659 64.5962 71.6405 64.6201C71.715 64.6441 71.785 64.6879 71.8461 64.7489C71.9071 64.8099 71.958 64.8868 71.9954 64.9748C72.0329 65.0627 72.0561 65.1598 72.0637 65.2601C72.1117 65.8243 72.0903 66.395 72.0003 66.9502C71.8383 68.0959 71.5286 69.1968 71.0845 70.2057C70.1686 72.3458 68.8092 74.0662 67.4902 75.779C67.9798 73.8884 68.5414 71.9979 69.0598 70.1074C69.3478 68.9958 69.6358 67.8463 69.9238 66.6931ZM62.3637 89.7311C62.6517 89.2546 62.9397 88.6383 63.4005 88.4757C63.5737 88.4209 63.7544 88.4209 63.9276 88.4757C64.0998 88.5316 64.2616 88.6333 64.4028 88.7744C64.5303 88.8994 64.6355 89.0594 64.7109 89.2433C64.8179 89.522 64.8778 89.8276 64.8866 90.1394C64.9413 91.5989 64.2184 92.7861 63.5532 93.8637C63.2136 94.3848 62.9027 94.937 62.6229 95.5161C62.3686 96.0766 62.1536 96.6664 61.9806 97.278C61.7884 97.9416 61.6334 98.6227 61.517 99.316C61.4536 98.2536 61.4046 97.1873 61.3902 96.121C61.3672 94.4755 61.4559 92.8306 61.6552 91.2057C61.8437 90.6807 62.0775 90.1859 62.3522 89.7311H62.3637ZM50.881 46.4872C50.596 45.3073 50.4096 44.0902 50.3251 42.8574C50.2877 41.9159 50.4202 40.6757 51.2035 40.3127C51.4075 40.232 51.6235 40.2184 51.8324 40.2732C52.0414 40.3279 52.2368 40.4493 52.4016 40.6266C52.759 41.0252 53.0019 41.5721 53.0899 42.1768C53.1945 42.815 53.2562 43.4641 53.2743 44.1165L53.3952 46.3397C53.5565 49.3305 53.7063 52.3251 53.7495 55.3235C53.7495 55.6336 53.7495 55.9474 53.7495 56.2612C53.4903 55.4483 53.2253 54.6391 52.9604 53.83C52.1472 51.4439 51.4526 48.9912 50.881 46.4872ZM53.6199 78.8265C52.5831 77.4691 51.3158 76.1155 50.9587 74.1645C50.7893 73.3416 50.8225 72.4693 51.0538 71.6728C51.2784 70.9544 51.8803 69.9637 52.5399 70.4401C52.8385 70.7013 53.0974 71.0334 53.3031 71.4194C53.5814 71.8541 53.8373 72.3126 54.0692 72.792C54.4736 73.6577 54.7738 74.6002 54.9591 75.5862C55.3594 77.6241 55.3825 79.7453 55.3566 81.84C54.9101 80.7151 54.323 79.6964 53.6199 78.8265ZM55.6532 87.2583C55.7262 85.64 55.7991 84.0204 55.8721 82.3996C55.9326 81.9081 55.9527 81.409 55.9844 80.9174C56.0018 80.2554 56.09 79.5999 56.2465 78.9702C56.5978 77.7754 57.6145 76.4709 58.6715 76.9776C58.8601 77.0583 59.0192 77.228 59.1179 77.454C59.2409 77.7565 59.2948 78.0991 59.2734 78.4408C59.2475 79.2462 58.9163 79.9533 58.5937 80.6339C57.9515 81.9534 57.3611 83.3108 56.8052 84.6985C56.3962 85.7244 56.0036 86.7592 55.6273 87.8027L55.6532 87.2583ZM36.4318 71.6614C35.1559 69.873 34.0212 67.6989 33.7937 65.211C33.7418 64.6703 33.6641 63.9254 33.9751 63.4868C34.1064 63.3275 34.269 63.2194 34.4445 63.1747C34.62 63.1299 34.8015 63.1503 34.9687 63.2335C35.144 63.334 35.3023 63.4794 35.4344 63.6612C35.5664 63.843 35.6695 64.0575 35.7377 64.2921C35.9219 64.8553 36.0835 65.4308 36.2215 66.0163C36.907 68.5647 37.7451 71.0375 38.4766 73.5784C38.5803 73.9565 38.6811 74.3006 38.779 74.6636C37.9841 73.6654 37.1777 72.705 36.4318 71.6614ZM44.6917 96.1966C44.5203 95.574 44.3103 94.9708 44.0639 94.3931C43.8035 93.7996 43.5007 93.24 43.1596 92.7219C42.4799 91.6783 41.6821 90.6461 41.5151 89.2282C41.4725 88.924 41.476 88.6119 41.5254 88.3095C41.5748 88.0072 41.6692 87.7206 41.8031 87.4662C42.0436 87.0462 42.4007 86.7677 42.7967 86.6911C42.9936 86.6496 43.1955 86.692 43.3727 86.8121C43.4141 86.8414 43.4527 86.877 43.4879 86.918C43.545 86.9828 43.5979 87.0536 43.6463 87.1297C43.7413 87.2658 43.8335 87.4133 43.9343 87.5532C44.257 88.0344 44.5372 88.5621 44.7695 89.1261C45.0672 91.2872 45.1869 93.484 45.1266 95.6786C45.1122 96.3365 45.0921 96.9945 45.0633 97.6524C44.9583 97.1592 44.8343 96.6733 44.6917 96.1966ZM25.8246 107.661C25.2486 107.241 24.7071 106.795 24.1714 106.307C23.6243 105.827 23.1175 105.272 22.6594 104.651C22.1835 104.051 21.8385 103.296 21.66 102.462C21.5477 101.751 21.7925 100.775 22.429 100.7C22.7765 100.698 23.1169 100.829 23.4082 101.078C23.6962 101.282 23.9842 101.501 24.2722 101.74C24.8404 102.212 25.3643 102.77 25.8332 103.403C26.0226 103.665 26.1995 103.941 26.3631 104.231C26.5331 104.526 26.6972 104.829 26.8556 105.131C27.1897 105.782 27.5094 106.447 27.832 107.109C28.328 108.174 28.8885 109.186 29.5082 110.134L29.3613 110.035C28.1632 109.268 26.9766 108.515 25.8246 107.661ZM29.9459 119.151C29.151 119.038 28.2726 118.841 27.6188 118.195C27.3541 117.955 27.172 117.589 27.112 117.174C27.0829 116.965 27.094 116.75 27.1443 116.548C27.1946 116.345 27.2825 116.163 27.4 116.017C27.5321 115.882 27.6859 115.789 27.8496 115.745C28.0133 115.7 28.1826 115.705 28.3446 115.76C28.7164 115.9 29.0584 116.151 29.344 116.493C29.9574 117.136 30.5594 117.794 31.2103 118.384C31.6536 118.778 32.1153 119.136 32.5927 119.454C31.7143 119.344 30.8272 119.288 29.9459 119.151ZM39.8187 121.972C39.5307 118.996 39.4126 115.99 39.3406 112.992C39.8043 115.302 40.2738 117.609 40.8037 119.892C41.3703 122.394 42.0482 124.85 42.8341 127.247C43.6074 129.548 44.5124 131.768 45.5414 133.89C46.5577 135.975 47.6585 137.987 48.839 139.917C50.0169 141.86 51.2554 143.74 52.5197 145.589L52.9056 146.148L53.28 146.829C51.6614 145.362 50.0448 143.893 48.43 142.424C47.5181 141.626 46.6518 140.741 45.838 139.777C45.1445 138.917 44.5121 137.975 43.9487 136.964C42.8109 134.897 41.9068 132.625 41.2645 130.219C40.5619 127.547 40.0773 124.785 39.8187 121.98V121.972ZM39.6517 112.436C39.641 112.405 39.6275 112.376 39.6113 112.349C39.6286 112.36 39.645 112.372 39.6603 112.387C39.6535 112.405 39.6505 112.424 39.6517 112.444V112.436ZM53.1303 106.625C52.5027 109.333 52.0556 112.107 51.7939 114.917C51.7056 115.867 51.6384 116.817 51.5923 117.768C51.599 117.858 51.6238 117.944 51.6644 118.017C51.7049 118.09 51.7595 118.147 51.8227 118.183C51.9235 118.248 52.0531 118.236 52.0618 118.062C52.2201 114.723 52.6438 111.414 53.3261 108.19L53.4989 107.411C53.5335 108.084 53.5767 108.754 53.6112 109.423C53.6842 110.842 53.7437 112.262 53.7898 113.684C53.882 116.535 53.9175 119.39 53.8964 122.248C53.8848 123.856 53.856 125.463 53.81 127.069C53.8175 127.16 53.8431 127.246 53.884 127.32C53.9249 127.393 53.9798 127.452 54.0432 127.489C54.1383 127.545 54.2736 127.542 54.2794 127.368C54.3601 124.514 54.3869 121.658 54.3601 118.8C54.3332 115.941 54.2487 113.089 54.1066 110.243C54.0548 109.177 53.9741 108.111 53.9367 107.044C54.192 108.305 54.4196 109.582 54.6193 110.875C54.9284 112.879 55.1655 114.895 55.3306 116.924C55.4266 118.081 55.4967 119.24 55.5409 120.399C55.5495 120.489 55.5755 120.575 55.6163 120.648C55.6571 120.722 55.7114 120.781 55.7742 120.819C55.8606 120.872 56.0161 120.876 56.0103 120.694C55.9258 118.627 55.7684 116.568 55.538 114.516C55.3076 112.464 55.0061 110.436 54.6337 108.432C55.0369 109.846 55.394 111.282 55.705 112.739C56.2868 115.465 56.7066 118.246 56.9607 121.057C57.214 123.871 57.3035 126.706 57.2286 129.538C57.1555 132.384 56.9128 135.219 56.5028 138.015C56.0921 140.797 55.5143 143.531 54.7748 146.193C54.7057 146.439 54.6365 146.685 54.5645 146.95C54.4522 147.135 54.337 147.328 54.2218 147.502C54.2017 147.515 54.1863 147.538 54.1786 147.566C54.1548 147.541 54.1287 147.521 54.1008 147.506C53.28 145.18 52.4333 142.866 51.7046 140.484C51.3146 139.242 50.9771 137.972 50.6938 136.68C50.4107 135.297 50.2076 133.888 50.0861 132.464C49.835 129.325 49.7532 126.166 49.8413 123.012C49.8672 121.428 49.8585 119.828 49.9795 118.255C50.134 116.704 50.4239 115.182 50.8435 113.718C51.4751 111.287 52.2394 108.919 53.1303 106.632V106.625ZM55.7453 146.095C56.9118 144.295 58.0494 142.473 59.1524 140.598C60.3045 138.631 61.3816 136.605 62.3723 134.499C63.3667 132.394 64.2408 130.195 64.9874 127.92C65.7508 125.524 66.3981 123.068 66.9257 120.566C67.4671 118.074 67.9222 115.552 68.3657 113.026C68.383 112.939 68.3974 112.852 68.4147 112.765C68.4147 115.208 68.3628 117.65 68.2102 120.089C68.1267 121.394 68.0115 122.694 67.8531 123.987C67.8329 124.082 67.8099 124.173 67.7897 124.267C67.7754 124.324 67.7754 124.385 67.7897 124.441C67.6055 125.859 67.3574 127.262 67.0466 128.642C66.5032 131.113 65.7016 133.473 64.6648 135.656C64.1425 136.731 63.5489 137.743 62.8907 138.681C62.1612 139.703 61.3653 140.641 60.5118 141.482C59.5902 142.409 58.6484 143.297 57.7124 144.201L55.6964 146.137L55.7453 146.095ZM66.4879 113.336L67.5564 112.444C67.4488 112.78 67.3147 113.101 67.1561 113.4C66.9464 113.838 66.7195 114.261 66.4764 114.667C65.9905 115.492 65.4435 116.252 64.8434 116.936C64.5058 117.326 64.1509 117.689 63.7807 118.025C63.677 118.119 63.8037 118.369 63.8613 118.444C63.9189 118.52 64.0773 118.649 64.1839 118.55C65.1511 117.664 66.0179 116.602 66.7586 115.397L64.5669 121.159C64.2562 122.024 63.8951 122.855 63.4869 123.647C63.412 123.787 63.4869 123.961 63.5675 124.067C63.6482 124.173 63.8152 124.309 63.8901 124.173C64.2617 123.462 64.5929 122.716 64.8808 121.942C65.189 121.148 65.4885 120.346 65.7909 119.552C66.3458 118.085 66.9026 116.619 67.4614 115.155C67.2108 116.516 66.9516 117.87 66.6722 119.219C66.1684 121.708 65.5549 124.156 64.8348 126.551C64.1231 128.864 63.2767 131.101 62.3032 133.243C61.3439 135.349 60.2988 137.385 59.1726 139.342C58.6772 140.212 58.1675 141.066 57.6519 141.913C57.8862 141.308 58.106 140.693 58.3115 140.068C59.2617 137.178 59.9332 134.144 60.3102 131.035C60.6965 127.944 60.713 124.793 60.3592 121.696L60.3246 121.42C60.3436 121.418 60.3615 121.408 60.3759 121.391C60.3903 121.375 60.4006 121.353 60.4053 121.329C61.1685 117.45 64.1004 115.34 66.4879 113.344V113.336ZM55.1492 107.827C55.8202 109.098 56.5633 110.292 57.1796 111.608C58.4115 114.262 59.2745 117.182 59.7285 120.233C60.1912 123.292 60.2738 126.429 59.9733 129.523C59.6766 132.602 59.0863 135.62 58.2164 138.507C57.5444 140.771 56.6889 142.933 55.6647 144.957C56.1251 143.123 56.5096 141.257 56.8167 139.369C58.1675 130.925 58.0118 122.186 56.3617 113.835C55.8123 111.054 55.0939 108.336 54.2132 105.706C54.1441 105.498 54.0692 105.294 54 105.086H54.0173C54.3068 106.06 54.687 106.983 55.1492 107.835V107.827ZM49.8125 112.935C50.3259 111.661 50.9143 110.441 51.5722 109.287C51.2438 110.281 50.9357 111.287 50.6563 112.312C50.2255 113.763 49.8864 115.259 49.6425 116.784C49.4659 118.358 49.384 119.947 49.3977 121.537C49.2993 124.726 49.3464 127.919 49.5389 131.1C49.6383 132.626 49.8172 134.142 50.0745 135.637C50.3145 136.922 50.6175 138.185 50.9818 139.418C51.5866 141.52 52.2979 143.577 53.0208 145.6C51.8824 143.652 50.8248 141.625 49.8528 139.527C49.2267 138.125 48.7132 136.641 48.3206 135.1C47.9627 133.655 47.6959 132.174 47.5228 130.672C46.836 124.597 47.6336 118.393 49.8009 112.95L49.8125 112.935ZM43.2085 115.17C43.8622 115.683 44.4912 116.249 45.0921 116.864C45.5956 117.359 46.0252 117.971 46.3593 118.671C46.6952 119.472 46.9508 120.326 47.1196 121.212L47.1369 121.269C46.792 123.965 46.7358 126.712 46.9699 129.428C47.2228 132.575 47.914 135.635 49.0089 138.454C49.5688 139.833 50.192 141.166 50.8752 142.446C50.4374 141.773 50.0112 141.097 49.5792 140.408C48.3993 138.514 47.2929 136.543 46.2642 134.502C45.2309 132.453 44.3163 130.304 43.5282 128.075C42.7232 125.74 42.0316 123.34 41.4575 120.891C40.9794 118.909 40.5589 116.909 40.1499 114.902C41.1099 117.236 42.0603 119.565 43.0012 121.889C43.3366 122.752 43.7217 123.58 44.1532 124.365C44.2194 124.483 44.3634 124.641 44.4844 124.577C44.6053 124.513 44.5477 124.297 44.4844 124.199C44.1106 123.529 43.7765 122.823 43.485 122.086C43.1596 121.303 42.8428 120.513 42.5202 119.726L40.5646 114.932L40.4322 114.603C40.5762 114.871 40.7202 115.132 40.8843 115.389C41.4237 116.263 42.0276 117.065 42.6872 117.783C43.0542 118.183 43.4389 118.554 43.8393 118.894C43.9199 118.966 44.0754 119.046 44.1273 118.894C44.1791 118.743 44.0524 118.516 43.966 118.459C42.6717 117.345 41.5547 115.91 40.677 114.236C40.4494 113.805 40.1413 113.306 40.1182 112.758C41.1493 113.552 42.1861 114.353 43.2085 115.178V115.17ZM38.7185 124.94C39.1266 125.186 39.5194 125.473 39.8936 125.798C40.0876 126.971 40.3279 128.13 40.6136 129.27C41.2238 131.765 42.091 134.138 43.1912 136.325C43.7463 137.412 44.3727 138.433 45.0633 139.376C45.8239 140.395 46.6518 141.324 47.5372 142.152C48.4934 143.067 49.4784 143.936 50.4547 144.821L52.7213 146.878C51.7698 146.374 50.8451 145.787 49.9536 145.12C48.4421 144.013 46.9892 142.774 45.6047 141.41C44.388 140.259 43.2508 138.97 42.2063 137.558C41.4488 136.506 40.7662 135.376 40.0779 134.245L37.9294 130.691C37.2584 129.58 36.57 128.479 35.9134 127.341C35.3449 126.377 34.8564 125.337 34.4561 124.237L34.6346 124.498C34.9207 124.921 35.2174 125.331 35.5246 125.727C36.1463 126.538 36.8072 127.296 37.5032 127.995C37.8872 128.386 38.2846 128.754 38.6955 129.099C38.7761 129.167 38.9317 129.251 38.9835 129.099C39.0353 128.948 38.9086 128.721 38.8222 128.665C37.46 127.502 36.2139 126.12 35.1127 124.551C35.0321 124.441 34.9543 124.328 34.8766 124.21C35.0695 124.43 35.2625 124.645 35.467 124.842C35.903 125.263 36.3722 125.622 36.8667 125.912C36.9617 125.965 37.1 125.965 37.1028 125.791C37.0961 125.701 37.0712 125.614 37.0308 125.54C36.9903 125.467 36.9357 125.408 36.8724 125.371C36.3942 125.094 35.942 124.745 35.5246 124.331C35.2366 124.059 34.9975 123.742 34.721 123.469C36.0972 123.729 37.4413 124.226 38.7185 124.948V124.94ZM35.5505 131.402C34.6375 129.133 33.7793 126.649 33.8225 124.029C33.8225 123.874 33.8225 123.719 33.8426 123.564C34.5367 125.946 35.827 127.935 37.0107 129.912L39.2081 133.542C39.9195 134.718 40.6222 135.905 41.3768 137.036C42.4583 138.618 43.6544 140.06 44.9481 141.339C46.3608 142.767 47.8445 144.071 49.3891 145.241C50.4506 146.069 51.5577 146.792 52.7011 147.403C51.1668 146.932 49.6534 146.351 48.168 145.66C46.355 144.819 44.6168 143.723 42.9839 142.39C41.4062 141.103 39.9784 139.524 38.7445 137.701C37.4926 135.775 36.4168 133.664 35.539 131.41L35.5505 131.402ZM46.0914 147.736C45.282 147.694 44.4751 147.589 43.6751 147.422C42.8802 147.267 42.094 147.078 41.3077 146.867C40.5976 146.677 39.9017 146.405 39.2283 146.054C37.8924 145.35 36.6582 144.351 35.5793 143.101C35.0445 142.479 34.5521 141.797 34.1076 141.063C33.8801 140.684 33.6641 140.306 33.4625 139.883C33.2669 139.513 33.1146 139.106 33.0103 138.677C34.3751 140.928 36.2342 142.574 38.3355 143.392C38.955 143.631 39.5906 143.792 40.2334 143.872C40.3659 143.872 40.363 143.672 40.3256 143.562C40.2965 143.48 40.2518 143.409 40.1958 143.356C40.1398 143.303 40.0745 143.27 40.0059 143.259C37.9813 142.984 36.0706 141.896 34.5338 140.144C34.7239 140.287 34.9198 140.424 35.1098 140.552C36.7536 141.624 38.5786 142.128 40.412 142.015C40.5416 142.015 40.5502 141.83 40.5042 141.705C40.4765 141.623 40.4326 141.551 40.3769 141.498C40.3212 141.445 40.2558 141.412 40.1874 141.403C39.0961 141.469 38.0037 141.31 36.9502 140.93C35.9268 140.583 34.9571 140.005 34.0845 139.221C33.7204 138.9 33.4034 138.495 33.1485 138.026C33.6396 138.133 34.1368 138.185 34.6346 138.181C35.0724 138.204 35.4986 138.253 35.9479 138.321C36.9385 138.452 37.9145 138.731 38.8568 139.153C39.0638 139.252 39.2659 139.368 39.4616 139.501L39.525 139.546L39.5825 139.592L39.6833 139.679C39.7255 139.714 39.7659 139.754 39.8043 139.796L39.8302 139.822L39.8706 139.872C39.9006 139.908 39.9334 139.939 39.9685 139.966C40.6792 140.811 41.4337 141.591 42.2264 142.299C43.8537 143.731 45.5984 144.918 47.4278 145.838C49.0183 146.639 50.6459 147.307 52.3008 147.838L48.7238 147.785C47.8454 147.778 46.9612 147.782 46.0799 147.744L46.0914 147.736ZM56.9751 150.118C57.0204 150.646 56.9651 151.18 56.8143 151.673C56.6635 152.166 56.4219 152.602 56.1111 152.943C55.7835 153.299 55.3927 153.541 54.9749 153.647C54.5571 153.753 54.1257 153.719 53.7207 153.548C53.3291 153.399 52.9775 153.108 52.7069 152.708C52.4382 152.219 52.3162 151.618 52.3642 151.018C52.3582 150.336 52.5254 149.671 52.8394 149.128C53.036 148.822 53.2962 148.599 53.5882 148.485C53.8416 148.485 54.0922 148.485 54.3428 148.485C54.9706 148.511 55.6013 148.402 56.2321 148.402C56.6278 148.84 56.8879 149.453 56.9636 150.126L56.9751 150.118ZM73.76 137.448C74.169 137.403 74.5837 137.399 74.9898 137.327C74.4421 138.181 73.759 138.867 72.9882 139.338C71.4468 140.388 69.7302 140.915 67.9942 140.874C67.8617 140.874 67.8617 141.066 67.902 141.184C67.9309 141.266 67.9755 141.337 68.0315 141.39C68.0876 141.443 68.1531 141.476 68.2217 141.486C69.3695 141.513 70.513 141.297 71.6086 140.847C72.074 140.657 72.5291 140.426 72.9709 140.155C72.0821 141.038 71.0886 141.723 70.0304 142.182C69.4444 142.435 68.8418 142.616 68.2303 142.722C67.9423 142.772 68.2303 143.373 68.455 143.335C70.702 142.95 72.791 141.608 74.4023 139.516C74.6125 139.24 74.8141 138.957 75.0042 138.658C74.8631 138.987 74.7018 139.297 74.5549 139.58C74.143 140.373 73.6784 141.115 73.1667 141.8C72.146 143.172 70.9536 144.303 69.6416 145.146C68.985 145.567 68.3017 145.913 67.5996 146.178C66.8508 146.458 66.0847 146.662 65.3215 146.863C64.5093 147.071 63.6943 147.241 62.8706 147.362C62.0469 147.483 61.1426 147.494 60.2785 147.54L56.497 147.74C57.8636 147.242 59.2094 146.652 60.5291 145.97C62.3608 145.032 64.1096 143.835 65.7449 142.401C66.7294 141.53 67.6554 140.549 68.5126 139.471C68.5276 139.463 68.5413 139.452 68.5529 139.437C68.8299 139.1 69.1535 138.837 69.5062 138.662C69.9499 138.419 70.4072 138.222 70.8742 138.072C71.8167 137.756 72.7785 137.55 73.7485 137.455L73.76 137.448ZM72.9191 129.663C72.1094 132.012 71.1049 134.238 69.9238 136.298C68.7688 138.255 67.4016 139.978 65.8658 141.414C64.3013 142.865 62.6186 144.082 60.8488 145.044C59.4911 145.785 58.1026 146.425 56.69 146.961C57.3812 146.522 58.0551 146.027 58.706 145.517C60.2157 144.335 61.6638 143.023 63.0405 141.588C64.2564 140.366 65.3887 139.008 66.4246 137.527C67.1734 136.423 67.8502 135.259 68.5241 134.056L70.6064 130.4C71.2601 129.266 71.9312 128.131 72.5562 126.94C73.1672 125.843 73.6759 124.654 74.0711 123.398C74.1085 123.265 74.146 123.133 74.1805 122.997C74.2784 125.311 73.6419 127.598 72.9075 129.67L72.9191 129.663ZM72.9709 122.857C72.7635 123.091 72.5677 123.345 72.3546 123.568C71.9407 124.003 71.4905 124.374 71.0125 124.676C70.7821 124.819 71.1392 125.39 71.335 125.265C71.6271 125.082 71.909 124.872 72.1789 124.638L72.1386 124.694C71.5588 125.483 70.9423 126.223 70.2924 126.91C69.9238 127.301 69.5456 127.679 69.1577 128.044C69.054 128.139 69.1808 128.389 69.2384 128.464C69.296 128.54 69.4515 128.668 69.558 128.57C70.8814 127.363 72.0883 125.95 73.1523 124.362C72.4784 126.033 71.5568 127.545 70.6985 129.05L68.6134 132.71C67.9395 133.894 67.2742 135.089 66.5541 136.227C65.5286 137.809 64.3896 139.259 63.1528 140.556C61.8052 142.008 60.3851 143.339 58.9019 144.541C58.1703 145.135 57.4187 145.709 56.6439 146.216C57.8708 145.033 59.0977 143.853 60.3189 142.662C61.2152 141.818 62.0633 140.889 62.8562 139.883C63.5437 138.976 64.1674 137.988 64.7196 136.934C65.8338 134.785 66.7067 132.437 67.3116 129.961C67.6727 128.5 67.9614 127.01 68.1756 125.5C68.1955 125.494 68.2141 125.483 68.2301 125.467C68.2461 125.45 68.259 125.429 68.2678 125.405C68.2772 125.378 68.2878 125.352 68.2995 125.326C69.6732 124.025 71.3206 123.341 72.9594 122.857H72.9709ZM77.8065 116.716C76.9684 117.057 76.0986 117.253 75.2404 117.473L75.154 117.499C75.3872 117.284 75.6119 117.06 75.8308 116.822C76.4174 116.176 76.9734 115.482 77.4954 114.746C78.011 114.036 78.5812 113.075 79.4136 113.14C79.5657 113.144 79.7125 113.215 79.8312 113.34C79.8636 113.381 79.8925 113.427 79.9176 113.476C79.953 113.555 79.9801 113.641 79.9982 113.729C80.0398 113.946 80.0467 114.172 80.0184 114.393C79.9902 114.613 79.9274 114.824 79.834 115.011C79.3991 115.945 78.538 116.418 77.795 116.716H77.8065Z" fill="url(#paint1_radial_264_3307)"/>
<path d="M96.8741 77.0216C91.762 77.9934 86.5808 78.9764 81.7653 81.5589C79.5884 82.6919 77.5353 84.1985 75.6596 86.0394C73.7848 87.9455 72.1416 90.2148 70.7866 92.7697C69.2691 95.6822 67.9213 98.7409 66.7546 101.92C66.6566 102.177 67.0886 102.65 67.2038 102.343C69.3178 96.823 71.6823 91.2724 75.363 87.2758C79.0437 83.2793 83.6719 81.0182 88.303 79.6267C89.1287 79.3747 89.9572 79.1503 90.7885 78.9537C90.6474 79.0104 90.5005 79.0709 90.368 79.1352C89.7546 79.415 89.1584 79.7591 88.5709 80.1145C87.9834 80.4699 87.439 80.8216 86.8688 81.1619C86.307 81.491 85.7581 81.8569 85.2243 82.2584C84.1454 83.0941 83.1187 84.041 82.1541 85.0904C81.0626 86.2587 80.0258 87.5178 78.9861 88.7731C78.8162 88.9773 79.2136 89.5293 79.3864 89.2987C81.2124 87.083 83.0556 84.8333 85.1868 83.128C86.2594 82.3212 87.3651 81.5929 88.4989 80.9464C89.0749 80.5682 89.6509 80.2393 90.2586 79.933C90.8599 79.6338 91.4756 79.3875 92.1018 79.1957C92.459 79.0785 92.8161 78.9726 93.1761 78.8705C93.0436 78.9575 92.9111 79.0445 92.7815 79.139C91.6486 79.9509 90.5781 80.9043 89.5847 81.9861C88.5773 83.0787 87.6222 84.2518 86.7248 85.4987C85.7341 86.8599 84.7894 88.274 83.8822 89.7259C82.975 91.1779 82.0505 92.7697 81.2008 94.3577L80.8841 94.9514C80.8092 95.095 80.8841 95.2652 80.9647 95.3748C81.0453 95.4845 81.2124 95.6168 81.2844 95.4807C82.9483 92.3092 84.7889 89.3038 86.791 86.4894C88.545 84.0317 90.4688 81.7101 92.7009 80.0238C93.4039 79.4926 94.1377 79.035 94.8955 78.655C93.7425 79.8133 92.7061 81.1587 91.8109 82.6592C90.41 85.0631 89.2035 87.6519 88.2109 90.3838C87.6003 91.9908 87.0301 93.6242 86.4598 95.2538C86.3705 95.5147 86.8054 95.9874 86.912 95.6811C87.8772 92.7818 88.9558 89.9498 90.1434 87.1964C91.1766 84.791 92.4643 82.5899 93.9681 80.659C94.6098 79.8657 95.3005 79.1436 96.0331 78.5C94.427 81.6525 93.0289 84.9793 91.8541 88.4442C90.4902 92.4968 89.3356 96.6654 88.3981 100.922C87.4362 105.187 86.6384 109.508 85.8925 113.845C85.1609 118.118 84.5331 122.428 83.646 126.648C82.759 130.868 81.6098 134.944 79.732 138.524C79.5074 138.959 79.2683 139.379 79.0235 139.795C78.8767 140.04 79.2885 140.551 79.4268 140.32C81.4428 136.917 82.7503 132.943 83.7036 128.852C84.6828 124.659 85.3193 120.345 86.0393 116.065C86.7709 111.724 87.5427 107.395 88.4586 103.115C89.3531 98.8547 90.4467 94.6713 91.7332 90.588C93.0222 86.5017 94.6149 82.5921 96.4881 78.9159C96.7185 78.4698 96.9547 78.0274 97.1937 77.5926C97.3032 77.377 97.0555 76.9876 96.8741 77.0216Z" fill="url(#paint2_radial_264_3307)"/>
<path d="M22.1158 122.205C20.5563 118.487 19.2429 114.6 18.1903 110.586C17.1808 106.61 16.3953 102.542 15.8402 98.415C15.2642 94.4146 14.7487 90.3765 13.6687 86.5501C12.6866 83.0753 11.1688 79.6383 8.91658 77.3243C9.77735 77.8578 10.5866 78.5242 11.3272 79.3093C12.3212 80.3748 13.2189 81.5863 14.0027 82.9202C14.8547 84.3497 15.6175 85.867 16.2837 87.4575C16.9768 89.0949 17.5747 90.7987 18.0722 92.5543C18.5666 94.3109 18.9575 96.1147 19.2415 97.9499C19.279 98.1805 19.3135 98.415 19.3452 98.6456C19.3633 98.7365 19.3996 98.8195 19.4502 98.8859C19.5008 98.9524 19.564 98.9999 19.6332 99.0237C19.7599 99.0615 19.8262 98.9557 19.806 98.8007C19.5394 96.9043 19.16 95.0383 18.6713 93.2198C18.1852 91.3983 17.5931 89.6285 16.9001 87.9263C16.2195 86.2523 15.4405 84.6506 14.5701 83.1358C13.7527 81.7083 12.821 80.4001 11.7909 79.2337C11.0681 78.4216 10.2801 77.7154 9.44074 77.1277C10.5936 77.5464 11.7201 78.0811 12.8104 78.7271C14.3862 79.6669 15.876 80.8376 17.2514 82.217C18.6174 83.5807 19.8575 85.1491 20.9465 86.8903C23.1528 90.4158 24.7205 94.5529 25.5315 98.9897C25.5805 99.2657 25.6266 99.5417 25.6727 99.8177C25.6908 99.9087 25.727 99.9916 25.7776 100.058C25.8282 100.124 25.8914 100.172 25.9607 100.196C26.0845 100.234 26.1565 100.128 26.1306 99.9728C25.7649 97.6838 25.2006 95.4573 24.4487 93.337C23.0125 89.2792 20.9232 85.6783 18.3248 82.7827C15.7264 79.8871 12.6807 77.7656 9.39754 76.5643C11.7404 76.6617 14.0435 77.3861 16.1656 78.693C18.4817 80.1583 20.5911 82.1299 22.4038 84.5234C23.4238 85.844 24.3744 87.2538 25.2493 88.7431C25.3184 88.8603 25.4567 89.0229 25.5805 88.9586C25.7044 88.8943 25.6468 88.6788 25.5805 88.5805C23.9803 85.8181 22.1072 83.3475 20.0105 81.2339C17.8534 79.0648 15.3878 77.4836 12.7586 76.5832C12.0471 76.3436 11.3246 76.1642 10.5956 76.0463C12.3655 75.9174 14.1395 76.1729 15.846 76.8025C18.3991 77.7074 20.8593 79.0151 23.1728 80.697C25.4378 82.3192 27.5622 84.2588 29.5089 86.482C31.5216 88.7929 33.3379 91.3829 34.9263 94.2067C36.5956 97.2272 38.121 100.38 39.494 103.648L40.0124 104.858C40.0401 104.941 40.084 105.012 40.1397 105.065C40.1953 105.118 40.2607 105.151 40.3292 105.16C40.4559 105.16 40.4761 104.979 40.4214 104.85C39.0395 101.507 37.5204 98.2642 35.8709 95.1368C34.2763 92.1509 32.4417 89.3989 30.3988 86.9282C28.4436 84.5907 26.3041 82.5335 24.0166 80.7915C21.692 79.0104 19.2178 77.5893 16.6437 76.5567C14.0287 75.5207 11.1717 74.9384 8.48458 75.8421C8.38857 75.8724 8.29257 75.9064 8.19657 75.9442H8.17064C7.94888 76.0274 7.75016 76.1446 7.5284 76.2278C7.5114 76.2313 7.49514 76.2394 7.48067 76.2517C7.46619 76.2639 7.45382 76.2799 7.44433 76.2988C7.43485 76.3176 7.42846 76.3389 7.42557 76.3612C7.42269 76.3834 7.42338 76.4063 7.4276 76.4282C7.44929 76.5377 7.49664 76.6356 7.56296 76.708C7.62694 76.7614 7.69559 76.8046 7.76744 76.8365C10.3595 78.867 12.0587 82.5081 13.1272 86.1152C14.236 89.8622 14.7602 93.855 15.316 97.7911C15.8508 101.836 16.5985 105.827 17.5538 109.735C19.5581 117.652 22.5531 125.075 26.4157 131.7C26.6548 132.112 26.8996 132.52 27.1444 132.925C27.2135 133.034 27.3546 133.208 27.4756 133.136C27.5965 133.065 27.5447 132.86 27.4756 132.758C25.4608 129.45 23.6675 125.919 22.1158 122.205Z" fill="url(#paint3_radial_264_3307)"/>
<path d="M34.904 20.4915C35.192 20.5142 35.4656 20.552 35.745 20.5974C35.8803 20.62 35.8717 20.3932 35.8371 20.2873C35.8081 20.2059 35.7638 20.1355 35.7084 20.0826C35.653 20.0297 35.5883 19.9961 35.5203 19.9848C34.3725 19.7512 33.2022 19.7883 32.0643 20.0945C30.9141 20.4379 29.9081 21.3473 29.2534 22.6353C28.5305 24.0457 28.1906 25.7169 27.9833 27.3768C27.7795 29.2007 27.6832 31.0424 27.6953 32.8858C27.6693 36.7727 27.6031 40.6596 27.5484 44.5428L27.3756 56.419L27.2028 68.2953C27.2028 68.7906 27.1884 69.2859 27.1826 69.7813C27.1826 70.0573 27.6463 70.4543 27.6521 70.0762C27.7077 66.1666 27.7634 62.2595 27.8191 58.3549C27.8748 54.4504 27.9314 50.5433 27.989 46.6337C28.0466 42.7543 28.1273 38.8712 28.1532 34.988C28.1676 33.1769 28.1532 31.362 28.2713 29.5584C28.3449 27.7797 28.6427 26.0292 29.1526 24.3784C29.5942 22.9287 30.4353 21.7504 31.5084 21.0776C32.5798 20.465 33.7693 20.3894 34.904 20.4915Z" fill="url(#paint4_radial_264_3307)"/>
<path d="M45.1051 46.2211C45.2836 50.5239 45.4248 54.8305 45.4305 59.1409C45.4305 59.674 45.4305 60.2072 45.4305 60.7403C45.4305 61.0163 45.8942 61.4096 45.8971 61.0352C45.9288 56.7702 45.8136 52.509 45.6494 48.2477C45.4853 43.9865 45.2721 39.6799 45.1051 35.3921C44.938 31.1044 44.8171 26.9075 44.8545 22.6614C44.8833 18.7064 44.915 14.551 46.3637 10.9704C46.9634 9.43094 47.8501 8.11589 48.9413 7.14772C50.1682 6.10415 51.6284 5.6731 53.054 5.39331C53.4198 5.31769 53.7855 5.25718 54.1542 5.1929C54.4422 5.14375 54.1398 4.54256 53.9295 4.57659C52.4895 4.82614 51.0034 5.08326 49.6527 5.83947C48.4181 6.54551 47.355 7.68346 46.5797 9.12899C44.8171 12.3656 44.4801 16.4113 44.4081 20.2793C44.3332 24.5708 44.4081 28.8623 44.5665 33.1349C44.7105 37.5095 44.9265 41.8615 45.1051 46.2211Z" fill="url(#paint5_radial_264_3307)"/>
<path d="M59.3952 52.5096C59.4278 56.4771 59.4518 60.4447 59.4672 64.4123C59.4672 64.6921 59.9366 65.0853 59.9337 64.7072C59.9049 57.6367 59.8512 50.5661 59.7725 43.4955C59.6937 36.425 59.5901 29.391 59.4614 22.3935C59.3904 18.4259 59.3097 14.4596 59.2195 10.4945C59.2125 10.4042 59.1875 10.3179 59.147 10.2442C59.1066 10.1706 59.0521 10.1122 58.9891 10.0749C58.8998 10.0219 58.7472 10.0181 58.75 10.1958C58.9075 17.2538 59.04 24.3231 59.1475 31.4037C59.255 38.4844 59.3376 45.5197 59.3952 52.5096Z" fill="url(#paint6_radial_264_3307)"/>
<path d="M66.0947 65.2597C66.1028 65.3496 66.1285 65.4353 66.1694 65.5082C66.2103 65.5811 66.265 65.6388 66.328 65.6756C66.4173 65.7285 66.5642 65.7323 66.5642 65.5546C66.5411 61.9588 66.5239 58.3706 66.5296 54.7673C66.5354 51.1639 66.5613 47.5833 66.6218 43.9875C66.6823 40.3917 66.7831 36.8035 66.9328 33.2153C67.0048 31.5289 67.0653 29.835 67.1978 28.1562C67.2904 26.5986 67.5633 25.0687 68.0071 23.619C68.4137 22.3366 69.085 21.2288 69.9453 20.4202C70.7453 19.6429 71.7326 19.2722 72.7246 19.3766C72.963 19.4176 73.1976 19.4911 73.4244 19.5959C73.5454 19.6527 73.6145 19.5165 73.5944 19.3729C73.5749 19.2828 73.5383 19.2008 73.4879 19.1346C73.4374 19.0684 73.375 19.0203 73.3064 18.9947C71.3393 18.0797 69.1908 19.6564 68.1223 21.8192C66.7773 24.5189 66.7024 27.9256 66.5555 31.0412C66.3827 34.6861 66.2675 38.3386 66.1927 42.0062C66.1178 45.6738 66.0803 49.315 66.0717 52.9713C66.0631 56.6275 66.0717 60.2536 66.0919 63.8947L66.0947 65.2597Z" fill="url(#paint7_radial_264_3307)"/>
<path d="M77.7145 42.8766C77.7692 49.5237 78.0025 56.167 78.3165 62.799C78.4893 66.5347 78.6822 70.2703 78.8925 74.0022C78.9003 74.0922 78.9256 74.1781 78.9659 74.2515C79.0063 74.325 79.0603 74.3837 79.1229 74.4219C79.2064 74.4711 79.3705 74.4786 79.359 74.2971C79.0134 67.6312 78.6678 60.9652 78.4403 54.2878C78.328 50.9529 78.2444 47.6143 78.207 44.2718C78.1696 41.0353 78.207 37.7987 78.1321 34.5621C78.0952 30.9962 77.762 27.4462 77.1385 23.9752C77.1193 23.8849 77.0827 23.8027 77.0323 23.7365C76.9818 23.6703 76.9192 23.6222 76.8505 23.5971C76.7324 23.563 76.6489 23.6613 76.6806 23.8201C77.8758 30.0324 77.6598 36.5093 77.7145 42.8766Z" fill="url(#paint8_radial_264_3307)"/>
<path d="M73.2987 34.5497C73.0034 34.2046 72.6295 33.9975 72.2351 33.9606C71.8408 33.9236 71.4482 34.059 71.1186 34.3456C70.7945 34.6623 70.5784 35.1338 70.5169 35.6581C70.4555 36.1824 70.5537 36.7173 70.7902 37.1473C71.1934 37.9867 71.7781 38.8261 72.6047 38.7656C72.9399 38.7418 73.2606 38.5777 73.5197 38.2974C73.7788 38.0171 73.9628 37.6353 74.0447 37.2078C74.1225 36.7175 74.0938 36.2084 73.9619 35.7384C73.8301 35.2685 73.6003 34.8566 73.2987 34.5497ZM73.63 36.6029C73.5984 36.9611 73.4841 37.298 73.3023 37.5684C73.1206 37.8388 72.8801 38.0296 72.6133 38.1153C72.3697 38.2031 72.1106 38.1791 71.8789 38.0472C71.6294 37.8707 71.4205 37.6096 71.2741 37.291C71.0578 36.9543 70.9494 36.5206 70.9717 36.0811C71.0282 35.6053 71.2247 35.1776 71.5189 34.8901C71.7318 34.6959 71.983 34.5868 72.2422 34.5761C72.5013 34.5654 72.7572 34.6534 72.9791 34.8295C73.2028 34.9976 73.3826 35.2507 73.4946 35.5555C73.6114 35.882 73.6582 36.2441 73.63 36.6029Z" fill="url(#paint9_radial_264_3307)"/>
<path d="M73.2999 43.2758C73.0041 42.9319 72.6303 42.7255 72.2361 42.6886C71.842 42.6517 71.4496 42.7863 71.1197 43.0716C70.8049 43.392 70.5915 43.854 70.5206 44.3685C70.4599 44.8996 70.5568 45.441 70.7914 45.881C71.1946 46.7241 71.7792 47.5635 72.6058 47.4993C72.9412 47.476 73.2621 47.3122 73.5213 47.0318C73.7805 46.7514 73.9643 46.3692 74.0458 45.9415C74.1244 45.45 74.0962 44.9395 73.9643 44.4681C73.8324 43.9967 73.6021 43.5836 73.2999 43.2758ZM73.6311 45.3289C73.6003 45.6875 73.4863 46.025 73.3044 46.2956C73.1225 46.5662 72.8816 46.7567 72.6144 46.8414C72.3713 46.9322 72.1118 46.9095 71.88 46.7771C71.6312 46.5994 71.4225 46.3385 71.2752 46.0209C71.0597 45.6836 70.9514 45.2503 70.9728 44.8109C71.0287 44.3349 71.2253 43.9069 71.52 43.6199C71.7329 43.4257 71.9842 43.3167 72.2433 43.306C72.5024 43.2952 72.7584 43.3833 72.9802 43.5594C73.2037 43.7261 73.3835 43.9779 73.4957 44.2816C73.6121 44.6082 73.6588 44.9702 73.6311 45.3289Z" fill="url(#paint10_radial_264_3307)"/>
<path d="M73.2987 52.0068C73.0034 51.6617 72.6295 51.4545 72.2351 51.4176C71.8408 51.3807 71.4482 51.516 71.1186 51.8026C70.7945 52.1194 70.5784 52.5909 70.5169 53.1151C70.4555 53.6394 70.5537 54.1744 70.7902 54.6044C71.1934 55.4438 71.7781 56.2832 72.6047 56.2227C72.9401 56.1994 73.2609 56.0356 73.5201 55.7552C73.7793 55.4748 73.9632 55.0926 74.0447 54.6649C74.1225 54.1746 74.0938 53.6654 73.9619 53.1954C73.8301 52.7255 73.6003 52.3136 73.2987 52.0068ZM73.63 54.0599C73.5992 54.4185 73.4851 54.756 73.3033 55.0265C73.1214 55.2971 72.8805 55.4877 72.6133 55.5723C72.3697 55.6601 72.1106 55.6361 71.8789 55.5043C71.6294 55.3278 71.4205 55.0666 71.2741 54.748C71.0582 54.4125 70.9498 53.9802 70.9717 53.5419C71.0275 53.0647 71.224 52.6355 71.5189 52.3471C71.7321 52.1538 71.9832 52.0453 72.2422 52.0346C72.5012 52.0239 72.757 52.1113 72.9791 52.2866C73.1994 52.4466 73.3788 52.6887 73.4946 52.9823C73.6156 53.3178 73.6625 53.6911 73.63 54.0599Z" fill="url(#paint11_radial_264_3307)"/>
<path d="M35.0938 31.6386C34.7981 31.2947 34.4242 31.0883 34.0301 31.0514C33.636 31.0145 33.2436 31.1491 32.9136 31.4345C32.5988 31.7548 32.3854 32.2168 32.3146 32.7314C32.2538 33.2624 32.3507 33.8038 32.5853 34.2438C32.9885 35.0869 33.5732 35.9225 34.3997 35.8621C34.7353 35.8394 35.0564 35.6758 35.3156 35.3953C35.5749 35.1148 35.7587 34.7323 35.8398 34.3043C35.9184 33.8128 35.8901 33.3023 35.7582 32.8309C35.6263 32.3595 35.3961 31.9464 35.0938 31.6386ZM35.425 33.6917C35.3943 34.0503 35.2802 34.3878 35.0983 34.6584C34.9165 34.929 34.6756 35.1195 34.4084 35.2042C34.1653 35.295 33.9057 35.2723 33.674 35.1399C33.4251 34.9622 33.2165 34.7013 33.0692 34.3837C32.8572 34.0447 32.7539 33.6108 32.7812 33.1737C32.8076 32.9379 32.8693 32.7112 32.9627 32.5068C33.0561 32.3024 33.1794 32.1243 33.3255 31.9827C33.5381 31.7877 33.7894 31.6781 34.0487 31.6673C34.308 31.6566 34.5641 31.7451 34.7857 31.9222C35.0099 32.0877 35.1899 32.3399 35.3012 32.6444C35.4146 32.9748 35.4574 33.3394 35.425 33.6993V33.6917Z" fill="url(#paint12_radial_264_3307)"/>
<path d="M35.0966 40.3691C34.8013 40.024 34.4273 39.8168 34.033 39.7799C33.6386 39.743 33.246 39.8783 32.9164 40.1649C32.5923 40.4817 32.3762 40.9532 32.3148 41.4774C32.2533 42.0017 32.3515 42.5367 32.5881 42.9667C32.9913 43.8061 33.5759 44.6455 34.4025 44.585C34.7379 44.5617 35.0588 44.3979 35.318 44.1175C35.5772 43.8371 35.761 43.4549 35.8425 43.0272C35.9204 42.5369 35.8917 42.0277 35.7598 41.5578C35.6279 41.0878 35.3981 40.6759 35.0966 40.3691ZM35.4278 42.4222C35.3963 42.7804 35.2819 43.1174 35.1002 43.3878C34.9184 43.6581 34.678 43.849 34.4112 43.9346C34.1676 44.0224 33.9085 43.9984 33.6767 43.8666C33.4272 43.6901 33.2184 43.4289 33.0719 43.1104C32.8596 42.7731 32.7563 42.3402 32.7839 41.9042C32.8104 41.6679 32.8722 41.4407 32.9656 41.2357C33.059 41.0307 33.1822 40.8519 33.3283 40.7094C33.5415 40.5161 33.7926 40.4076 34.0516 40.3969C34.3105 40.3862 34.5664 40.4737 34.7884 40.6489C35.0122 40.817 35.1919 41.0701 35.304 41.3749C35.4168 41.7028 35.4596 42.0648 35.4278 42.4222Z" fill="url(#paint13_radial_264_3307)"/>
<path d="M34.4025 53.3114C34.738 53.2888 35.0591 53.1251 35.3184 52.8446C35.5777 52.5642 35.7614 52.1817 35.8425 51.7536C35.917 51.2636 35.8855 50.756 35.7516 50.2883C35.6178 49.8205 35.3869 49.4113 35.085 49.1069C34.7893 48.763 34.4154 48.5566 34.0213 48.5197C33.6272 48.4827 33.2348 48.6174 32.9048 48.9027C32.59 49.2231 32.3766 49.685 32.3058 50.1996C32.245 50.7307 32.3419 51.2721 32.5765 51.712C32.9912 52.5363 33.5759 53.3606 34.4025 53.3114ZM33.6767 52.6044C33.4279 52.4267 33.2192 52.1658 33.0719 51.8481C32.86 51.5092 32.7567 51.0753 32.7839 50.6382C32.8103 50.4024 32.872 50.1757 32.9654 49.9713C33.0588 49.7669 33.1821 49.5888 33.3282 49.4472C33.5411 49.253 33.7924 49.144 34.0515 49.1332C34.3106 49.1225 34.5666 49.2105 34.7884 49.3867C35.0119 49.5534 35.1917 49.8052 35.3039 50.1089C35.4229 50.4412 35.4697 50.8101 35.4393 51.1751C35.4077 51.5333 35.2934 51.8703 35.1116 52.1407C34.9299 52.4111 34.6894 52.6019 34.4226 52.6875C34.1742 52.7742 33.9105 52.7448 33.6767 52.6044Z" fill="url(#paint14_radial_264_3307)"/>
<path d="M52.9304 13.3501C52.6347 13.0061 52.2608 12.7997 51.8667 12.7628C51.4726 12.7259 51.0802 12.8605 50.7503 13.1459C50.4268 13.4633 50.2112 13.9347 50.1498 14.4586C50.0884 14.9826 50.1861 15.5173 50.4219 15.9476C50.8251 16.7908 51.4098 17.6302 52.2335 17.5659C52.5714 17.5467 52.8955 17.3846 53.1576 17.1039C53.4197 16.8232 53.6057 16.4389 53.6879 16.0081C53.7634 15.5164 53.7325 15.0068 53.5986 14.5369C53.4647 14.0671 53.2333 13.656 52.9304 13.3501ZM53.2588 15.4032C53.2284 15.7619 53.1145 16.0997 52.9326 16.3704C52.7506 16.641 52.5095 16.8314 52.2421 16.9156C51.9985 17.0031 51.7395 16.9791 51.5077 16.8475C51.2602 16.6687 51.0527 16.408 50.9058 16.0913C50.6903 15.754 50.582 15.3207 50.6034 14.8814C50.6593 14.4053 50.8559 13.9773 51.1506 13.6904C51.3635 13.4962 51.6147 13.3871 51.8739 13.3764C52.133 13.3657 52.3889 13.4537 52.6108 13.6298C52.8343 13.7965 53.0141 14.0484 53.1263 14.352C53.2436 14.6796 53.2895 15.0434 53.2588 15.4032Z" fill="url(#paint15_radial_264_3307)"/>
<path d="M52.9316 22.08C52.6363 21.7349 52.2623 21.5278 51.8679 21.4908C51.4736 21.4539 51.081 21.5893 50.7514 21.8759C50.4273 22.1926 50.2112 22.6641 50.1497 23.1884C50.0883 23.7127 50.1865 24.2476 50.4231 24.6776C50.8263 25.517 51.4109 26.3564 52.2346 26.2959C52.5725 26.2766 52.8966 26.1146 53.1587 25.8339C53.4208 25.5532 53.6068 25.1688 53.689 24.7381C53.7645 24.2464 53.7336 23.7367 53.5997 23.2669C53.4658 22.7971 53.2344 22.386 52.9316 22.08ZM53.2599 24.1332C53.2304 24.4923 53.1167 24.8306 52.9347 25.1015C52.7526 25.3723 52.511 25.5624 52.2432 25.6456C51.9996 25.7331 51.7406 25.7091 51.5088 25.5775C51.2608 25.3997 51.0531 25.1388 50.9069 24.8213C50.691 24.4857 50.5827 24.0534 50.6045 23.6152C50.6603 23.138 50.8568 22.7088 51.1517 22.4203C51.3649 22.2271 51.616 22.1186 51.875 22.1078C52.134 22.0971 52.3898 22.1846 52.6119 22.3598C52.8356 22.5279 53.0154 22.781 53.1274 23.0858C53.2446 23.4121 53.2905 23.7747 53.2599 24.1332Z" fill="url(#paint16_radial_264_3307)"/>
<path d="M52.9304 30.8061C52.6347 30.4622 52.2608 30.2558 51.8667 30.2189C51.4726 30.182 51.0802 30.3166 50.7503 30.6019C50.4268 30.9193 50.2112 31.3907 50.1498 31.9147C50.0884 32.4387 50.1861 32.9734 50.4219 33.4037C50.8251 34.2469 51.4098 35.0863 52.2335 35.0258C52.5711 35.0053 52.8948 34.8428 53.1567 34.5623C53.4186 34.2818 53.6048 33.8981 53.6879 33.468C53.7636 32.9757 53.7328 32.4654 53.5989 31.9949C53.4651 31.5245 53.2335 31.1126 52.9304 30.8061ZM53.2588 32.863C53.2284 33.2218 53.1145 33.5595 52.9326 33.8302C52.7506 34.1009 52.5095 34.2913 52.2421 34.3754C51.9985 34.4629 51.7395 34.4389 51.5077 34.3074C51.2602 34.1286 51.0527 33.8679 50.9058 33.5512C50.6903 33.2139 50.582 32.7806 50.6034 32.3412C50.6593 31.8651 50.8559 31.4372 51.1506 31.1502C51.3635 30.956 51.6147 30.847 51.8739 30.8363C52.133 30.8255 52.3889 30.9135 52.6108 31.0897C52.8343 31.2564 53.0141 31.5082 53.1263 31.8119C53.2433 32.1396 53.2891 32.5033 53.2588 32.863Z" fill="url(#paint17_radial_264_3307)"/>
<defs>
<radialGradient id="paint0_radial_264_3307" cx="0" cy="0" r="1" gradientUnits="userSpaceOnUse" gradientTransform="translate(52 78.2217) rotate(90) scale(78.2217 52)">
<stop stop-color="#9F2420"/>
<stop offset="1" stop-color="#9F2420" stop-opacity="0.41"/>
</radialGradient>
<radialGradient id="paint1_radial_264_3307" cx="0" cy="0" r="1" gradientUnits="userSpaceOnUse" gradientTransform="translate(53.0611 96.9812) rotate(90) scale(57.3504 31.8921)">
<stop stop-color="#9F2420"/>
<stop offset="1" stop-color="#9F2420" stop-opacity="0.41"/>
</radialGradient>
<radialGradient id="paint2_radial_264_3307" cx="0" cy="0" r="1" gradientUnits="userSpaceOnUse" gradientTransform="translate(81.9805 108.699) rotate(90) scale(31.6795 15.2402)">
<stop stop-color="#9F2420"/>
<stop offset="1" stop-color="#9F2420" stop-opacity="0.41"/>
</radialGradient>
<radialGradient id="paint3_radial_264_3307" cx="0" cy="0" r="1" gradientUnits="userSpaceOnUse" gradientTransform="translate(23.9369 104.274) rotate(90) scale(28.8791 16.5131)">
<stop stop-color="#9F2420"/>
<stop offset="1" stop-color="#9F2420" stop-opacity="0.41"/>
</radialGradient>
<radialGradient id="paint4_radial_264_3307" cx="0" cy="0" r="1" gradientUnits="userSpaceOnUse" gradientTransform="translate(31.5208 45.0325) rotate(90) scale(25.199 4.33813)">
<stop stop-color="#9F2420"/>
<stop offset="1" stop-color="#9F2420" stop-opacity="0.41"/>
</radialGradient>
<radialGradient id="paint5_radial_264_3307" cx="0" cy="0" r="1" gradientUnits="userSpaceOnUse" gradientTransform="translate(49.3257 32.882) rotate(90) scale(28.3068 4.94677)">
<stop stop-color="#9F2420"/>
<stop offset="1" stop-color="#9F2420" stop-opacity="0.41"/>
</radialGradient>
<radialGradient id="paint6_radial_264_3307" cx="0" cy="0" r="1" gradientUnits="userSpaceOnUse" gradientTransform="translate(59.3419 37.4531) rotate(90) scale(27.4101 0.591874)">
<stop stop-color="#9F2420"/>
<stop offset="1" stop-color="#9F2420" stop-opacity="0.41"/>
</radialGradient>
<radialGradient id="paint7_radial_264_3307" cx="0" cy="0" r="1" gradientUnits="userSpaceOnUse" gradientTransform="translate(69.8331 42.2185) rotate(90) scale(23.489 3.76474)">
<stop stop-color="#9F2420"/>
<stop offset="1" stop-color="#9F2420" stop-opacity="0.41"/>
</radialGradient>
<radialGradient id="paint8_radial_264_3307" cx="0" cy="0" r="1" gradientUnits="userSpaceOnUse" gradientTransform="translate(78.0167 49.0211) rotate(90) scale(25.4308 1.34289)">
<stop stop-color="#9F2420"/>
<stop offset="1" stop-color="#9F2420" stop-opacity="0.41"/>
</radialGradient>
<radialGradient id="paint9_radial_264_3307" cx="0" cy="0" r="1" gradientUnits="userSpaceOnUse" gradientTransform="translate(72.2933 36.3617) rotate(90) scale(2.40706 1.79423)">
<stop stop-color="#9F2420"/>
<stop offset="1" stop-color="#9F2420" stop-opacity="0.41"/>
</radialGradient>
<radialGradient id="paint10_radial_264_3307" cx="0" cy="0" r="1" gradientUnits="userSpaceOnUse" gradientTransform="translate(72.2961 45.0927) rotate(90) scale(2.41006 1.79321)">
<stop stop-color="#9F2420"/>
<stop offset="1" stop-color="#9F2420" stop-opacity="0.41"/>
</radialGradient>
<radialGradient id="paint11_radial_264_3307" cx="0" cy="0" r="1" gradientUnits="userSpaceOnUse" gradientTransform="translate(72.2933 53.8187) rotate(90) scale(2.40706 1.79423)">
<stop stop-color="#9F2420"/>
<stop offset="1" stop-color="#9F2420" stop-opacity="0.41"/>
</radialGradient>
<radialGradient id="paint12_radial_264_3307" cx="0" cy="0" r="1" gradientUnits="userSpaceOnUse" gradientTransform="translate(34.0901 33.4553) rotate(90) scale(2.40987 1.79321)">
<stop stop-color="#9F2420"/>
<stop offset="1" stop-color="#9F2420" stop-opacity="0.41"/>
</radialGradient>
<radialGradient id="paint13_radial_264_3307" cx="0" cy="0" r="1" gradientUnits="userSpaceOnUse" gradientTransform="translate(34.0911 42.181) rotate(90) scale(2.40706 1.79424)">
<stop stop-color="#9F2420"/>
<stop offset="1" stop-color="#9F2420" stop-opacity="0.41"/>
</radialGradient>
<radialGradient id="paint14_radial_264_3307" cx="0" cy="0" r="1" gradientUnits="userSpaceOnUse" gradientTransform="translate(34.085 50.9136) rotate(90) scale(2.39992 1.79691)">
<stop stop-color="#9F2420"/>
<stop offset="1" stop-color="#9F2420" stop-opacity="0.41"/>
</radialGradient>
<radialGradient id="paint15_radial_264_3307" cx="0" cy="0" r="1" gradientUnits="userSpaceOnUse" gradientTransform="translate(51.93 15.1631) rotate(90) scale(2.40628 1.7982)">
<stop stop-color="#9F2420"/>
<stop offset="1" stop-color="#9F2420" stop-opacity="0.41"/>
</radialGradient>
<radialGradient id="paint16_radial_264_3307" cx="0" cy="0" r="1" gradientUnits="userSpaceOnUse" gradientTransform="translate(51.9306 23.8919) rotate(90) scale(2.40706 1.79876)">
<stop stop-color="#9F2420"/>
<stop offset="1" stop-color="#9F2420" stop-opacity="0.41"/>
</radialGradient>
<radialGradient id="paint17_radial_264_3307" cx="0" cy="0" r="1" gradientUnits="userSpaceOnUse" gradientTransform="translate(51.9301 32.6209) rotate(90) scale(2.40798 1.7983)">
<stop stop-color="#9F2420"/>
<stop offset="1" stop-color="#9F2420" stop-opacity="0.41"/>
</radialGradient>
</defs>
</svg>
