<svg width="151" height="161" viewBox="0 0 151 161" fill="none" xmlns="http://www.w3.org/2000/svg">
<rect x="58.0186" y="1.92773" width="91.9552" height="131.467" rx="45.9776" transform="rotate(22.3834 58.0186 1.92773)" fill="#F6C460"/>
<path d="M103.564 73.2723C99.7402 73.5838 95.843 73.7915 92.2126 75.5119C92.0224 68.9968 91.8322 62.4818 91.6419 55.9667C91.5923 54.2932 91.5504 52.6176 91.4869 50.944C91.4341 49.3743 91.3426 47.7843 91.0216 46.2614C90.7487 44.9685 90.2757 43.6737 89.4072 42.898C88.5388 42.1223 87.4052 41.9289 86.3677 41.88C85.2651 41.8373 84.026 42.0836 83.2165 43.1464C82.9903 43.4472 82.792 43.7821 82.6256 44.144C82.5835 43.0735 82.4954 42.007 82.362 40.9496C82.1495 39.3208 81.8642 37.5984 81.0934 36.2526C80.3847 35.0168 79.3628 34.4447 78.2291 34.1923C77.0326 33.9293 75.8106 33.9361 74.6158 34.2126C73.5307 34.4374 72.5301 35.1174 71.7639 36.1508C70.0921 38.4331 70.058 41.8698 70.1402 44.8566C69.8703 44.2953 69.5176 43.8107 69.1027 43.4314C68.0172 42.448 66.561 42.1976 65.2723 42.389C63.9463 42.5926 62.7321 43.354 62.1924 45.0479C61.9577 45.8656 61.8217 46.7263 61.7892 47.599C61.7194 48.7208 61.6837 49.8385 61.6341 50.9665C61.5255 53.3933 61.4258 55.8202 61.3348 58.247C61.1565 63.0926 61.0246 67.9402 60.9936 72.7898C60.9936 73.2805 60.9936 73.7691 60.9936 74.2598C59.1327 73.0382 57.1337 72.2767 55.0169 72.3846C53.8096 72.4546 52.6074 72.6342 51.419 72.9221C50.8096 73.0667 50.2048 73.2418 49.6015 73.4291C49.0928 73.5859 48.5625 73.6836 48.0926 74.0032C47.8755 74.1518 48.0926 74.5081 48.212 74.6323C48.4539 74.895 48.7687 74.9581 49.0417 75.1434C49.4055 75.4004 49.7371 75.7293 50.0249 76.1186C50.5899 76.8999 51.0578 77.793 51.4113 78.7653C52.2068 80.8257 52.8365 83.0184 53.4769 85.1663C54.1407 87.3923 54.7641 89.6373 55.3472 91.9013C55.9086 94.0777 56.3754 96.2928 56.9367 98.4672C57.858 101.979 59.283 105.228 61.1347 108.036C62.9924 110.874 65.2437 113.223 67.769 114.958C70.3091 116.693 73.0815 117.763 75.9324 118.11C78.7893 118.476 81.673 118.06 84.4013 116.888C87.109 115.702 89.8027 113.69 91.6218 110.75C93.6378 107.493 94.7048 103.374 95.6662 99.4261C96.7285 95.0733 97.5737 90.6349 98.5817 86.2617C99.4207 82.6153 100.443 78.9323 102.361 76.0025C102.842 75.2645 103.371 74.5832 103.943 73.9666C104.151 73.7406 103.738 73.2581 103.564 73.2723ZM98.7988 82.6845C97.6776 86.734 96.9162 90.9546 96.0074 95.0896C95.5127 97.3291 94.9916 99.5544 94.3946 101.749C93.8985 103.671 93.2834 105.536 92.5554 107.326C91.8321 109.092 90.8771 110.677 89.7345 112.008C88.6293 113.233 87.4054 114.26 86.0947 115.062C83.5205 116.64 80.7164 117.465 77.8755 117.483C73.6151 117.539 69.4393 115.921 65.8847 112.837C62.3301 109.753 59.5591 105.345 57.9277 100.177C57.3074 98.2066 56.9088 96.1259 56.4095 94.0981C55.8657 91.8938 55.2852 89.7058 54.6679 87.5341C54.0414 85.3272 53.3772 83.1406 52.6752 80.9743C52.0393 79.0137 51.3523 76.9594 50.1241 75.5037C49.8481 75.1731 49.5467 74.8811 49.2247 74.6323C49.1462 74.5762 49.0648 74.5272 48.9812 74.4857C49.234 74.3839 49.4945 74.3147 49.7566 74.2414C50.2373 74.103 50.7134 73.9462 51.1957 73.818C52.2367 73.5381 53.2895 73.3403 54.3485 73.2255C55.3735 73.0869 56.4078 73.1184 57.4268 73.3191C58.4169 73.5428 59.3811 73.9321 60.2958 74.4776C61.9908 75.4834 63.5524 76.9207 64.9869 78.4579C66.3291 79.8812 67.5277 81.5232 68.5537 83.3442C69.6863 85.3631 70.4913 87.6658 70.9187 90.1096C70.9415 90.2173 70.9852 90.3155 71.0455 90.3943C71.1059 90.4732 71.1808 90.5302 71.263 90.5596C71.2918 90.5774 71.3242 90.583 71.3556 90.5758C71.387 90.5686 71.4159 90.5488 71.4385 90.5192C71.461 90.4896 71.4761 90.4516 71.4816 90.4104C71.4871 90.3691 71.4828 90.3267 71.4692 90.2888C70.683 85.659 68.4483 81.7052 65.7654 78.6309C64.4738 77.1191 63.0634 75.7916 61.5581 74.671C61.5581 70.1207 61.6682 65.5703 61.8202 61.0302C61.8988 58.701 61.9877 56.3719 62.0869 54.0428C62.1366 52.8891 62.1882 51.7354 62.242 50.5817C62.2885 49.5637 62.3118 48.5253 62.3971 47.5033C62.4459 46.6605 62.6265 45.8399 62.9275 45.0927C63.2554 44.3729 63.7611 43.8219 64.3604 43.5312C65.5829 42.9527 66.9183 42.9327 68.1505 43.4741C68.7044 43.7039 69.1953 44.1404 69.5633 44.7303C69.8575 45.2425 70.0719 45.8257 70.1945 46.4466C70.1945 46.4792 70.1945 46.5098 70.1945 46.5423C70.1988 46.631 70.2207 46.7166 70.2581 46.7907L70.272 46.8762C70.3962 47.6945 70.4642 48.5258 70.4752 49.3601C70.5077 50.4697 70.517 51.5813 70.5232 52.6929C70.5357 55.0607 70.5124 57.4306 70.5232 59.8004C70.5341 62.1703 70.6023 64.5849 70.6008 66.9772C70.6008 67.5757 70.5961 68.1743 70.5868 68.7729C70.5868 69.1108 71.1467 69.5872 71.1529 69.1312C71.1932 66.627 71.1374 64.1248 71.1048 61.6206C71.0738 59.1591 71.0924 56.6977 71.0877 54.2362C71.0877 52.1107 71.142 49.9342 70.9187 47.8229C70.8804 47.4514 70.824 47.0835 70.7497 46.7215C70.6657 45.1103 70.6631 43.4937 70.7419 41.882C70.8365 40.4325 71.0815 38.9462 71.6941 37.7104C72.2795 36.5201 73.1597 35.6313 74.1862 35.1939C75.2635 34.7954 76.3869 34.6574 77.5018 34.7868C78.4695 34.8743 79.6388 35.082 80.3723 36.0083C81.2408 37.0996 81.5308 38.8037 81.7417 40.2981C81.9942 42.245 82.1172 44.2172 82.1092 46.1922C82.1092 46.3021 82.1092 46.412 82.1092 46.522C82.1092 46.6319 82.1092 46.691 82.1092 46.7765C82.1092 49.0588 82.1092 51.3411 82.1015 53.6234L82.0828 67.309V69.0437C82.0828 69.3796 82.6489 69.858 82.6504 69.402L82.669 55.0485C82.669 52.6502 82.6721 50.2518 82.6784 47.8535V47.1368C82.6923 47.1131 82.7014 47.0851 82.7047 47.0554C82.7047 46.9963 82.6954 46.9373 82.6939 46.8762C82.6923 46.8151 82.6939 46.7133 82.6939 46.6319C82.7202 45.6852 83.0909 44.7405 83.5484 44.0422C84.195 43.0507 85.1472 42.7025 86.1134 42.6476C87.0795 42.5926 88.1961 42.6842 89.0599 43.2848C89.9702 43.916 90.3424 45.2841 90.5688 46.522C90.834 47.9797 90.8991 49.4822 90.9456 50.9766C90.9932 52.5457 91.0387 54.1147 91.0821 55.6837L91.3566 65.0776L91.6667 75.7358C91.666 75.7521 91.666 75.7684 91.6667 75.7847L91.4171 75.917C88.3946 77.5458 85.5845 80.2251 83.7329 83.8002C82.6827 85.7963 81.9956 88.0824 81.7246 90.4822C81.6874 90.8161 82.241 91.2966 82.2922 90.8405C82.7574 86.565 84.7006 82.9003 87.2067 80.2129C90.0074 77.216 93.4191 75.5302 96.9658 74.8074C98.8965 74.4165 100.843 74.2618 102.794 74.1091C100.917 76.4545 99.6843 79.4921 98.7988 82.6845Z" fill="#9F2420"/>
<path d="M91.1833 96.2509C91.3029 96.032 91.358 95.7637 91.3384 95.4956C91.3289 95.3524 91.2957 95.2137 91.2411 95.0892C91.1865 94.9647 91.1118 94.8574 91.0223 94.7747C90.9327 94.6921 90.8305 94.6362 90.7228 94.6109C90.6151 94.5856 90.5044 94.5915 90.3986 94.6283C90.1831 94.7059 89.9875 94.8585 89.8326 95.0701C89.6635 95.2737 89.5115 95.5098 89.3487 95.7277C89.1859 95.9455 89.0479 96.1349 88.8835 96.312C88.581 96.6756 88.2534 97.0014 87.9049 97.2852C87.8072 97.3625 87.708 97.4399 87.6072 97.5132C87.5948 97.5222 87.5846 97.5356 87.5777 97.5519C87.4226 97.6089 87.2676 97.6679 87.1125 97.7372C86.706 97.9002 86.3229 98.1506 85.9788 98.4782C85.5705 98.926 85.2337 99.4754 84.9879 100.095C85.1399 99.5032 85.3148 98.9222 85.5121 98.354C85.8189 97.4611 86.2102 96.6225 86.6767 95.858C87.1368 95.1346 87.6641 94.4897 88.2461 93.9381C88.5066 93.6836 88.7749 93.4433 89.0463 93.2112C89.0679 93.2144 89.0896 93.2063 89.1068 93.1888L89.1952 93.085C89.4743 92.8488 89.755 92.6208 90.0373 92.3928C90.6483 91.896 91.2624 91.3993 91.8424 90.8414C92.4224 90.2836 93.0055 89.6687 93.3932 88.8706C93.6025 88.443 93.7886 87.9361 93.7328 87.4169C93.7108 87.1781 93.6271 86.9564 93.4955 86.7889C93.364 86.6214 93.1926 86.5182 93.0101 86.4967C92.8161 86.5149 92.63 86.6053 92.4736 86.7573C92.3185 86.8917 92.1634 87.0362 92.0083 87.1889C91.7069 87.4857 91.4326 87.8273 91.1911 88.2069C90.7847 88.8563 90.5072 89.632 90.2156 90.3772C89.9241 91.1224 89.6279 91.8899 89.2045 92.5231C89.1378 92.6228 89.0665 92.7267 88.992 92.8081C88.7656 92.9995 88.5392 93.197 88.3174 93.4026C87.7443 93.9168 87.2154 94.5114 86.7403 95.1759C86.2491 95.8952 85.832 96.6961 85.4997 97.558C85.2998 98.0685 85.1217 98.5933 84.9662 99.1298C85.0732 97.6008 85.0964 96.0636 85.098 94.5305V93.9198C85.098 93.7874 84.96 93.6164 84.8638 93.6978C84.1148 94.3229 83.3596 94.9377 82.6183 95.577C81.9545 96.1491 81.3048 96.7864 80.8349 97.6394C80.7821 97.7331 80.7341 97.8288 80.6798 97.9265C80.9306 96.8537 81.1127 95.7552 81.2241 94.6425C81.3618 93.1843 81.3857 91.7115 81.2955 90.2469C81.2722 89.8132 81.2427 89.3796 81.2117 88.948C81.2184 88.9403 81.2237 88.9309 81.2275 88.9204C81.2312 88.9099 81.2332 88.8985 81.2334 88.8869C81.2701 88.1439 81.3876 87.4117 81.5823 86.7125C81.679 86.3591 81.8005 86.0183 81.9452 85.6945C82.1025 85.3694 82.2782 85.0604 82.471 84.7702C82.8493 84.1594 83.2463 83.455 83.1781 82.6263C83.1562 82.2573 83.0281 81.913 82.8199 81.6633C82.6337 81.4357 82.3903 81.306 82.136 81.2989C82.0035 81.2993 81.874 81.351 81.7638 81.4475C81.6348 81.5813 81.5218 81.7398 81.4288 81.9178L81.3621 82.0298C81.3776 81.9443 81.3947 81.8588 81.4133 81.7733C81.6725 80.5334 82.0613 79.3467 82.5687 78.247C83.1108 77.1228 83.7562 76.0903 84.4901 75.1727C85.2174 74.224 85.9664 73.2813 86.4813 72.1046C86.7263 71.5616 86.8999 70.9683 86.9946 70.3496C87.0737 69.8039 87.1621 69.0404 86.7775 68.6536C86.6239 68.5123 86.4365 68.4489 86.25 68.4751C86.0635 68.5013 85.8906 68.6154 85.7633 68.7961C85.4392 69.2359 85.3539 69.9078 85.2143 70.4676C84.8793 71.8073 84.4699 73.1144 84.121 74.4479C84.0373 74.7655 83.9659 75.0872 83.8837 75.4089C83.3466 76.1286 82.8651 76.9162 82.4461 77.7604C81.9384 78.8116 81.5394 79.9467 81.2598 81.136C81.1243 81.7153 81.0181 82.3056 80.9419 82.9032L80.9279 82.9399C80.9201 82.9661 80.9201 82.9951 80.9279 83.0213C80.8549 83.6169 80.8119 84.2181 80.7992 84.8211C80.7666 86.2788 80.8891 87.7284 80.9868 89.178C81.1005 90.6036 81.1228 92.0393 81.0535 93.4698C80.9683 94.8671 80.7697 96.2485 80.4611 97.5906C80.4115 97.8064 80.3588 98.0202 80.306 98.2339C80.0823 97.0134 79.7399 95.8358 79.2872 94.7301C78.9759 93.9983 78.6251 93.2968 78.2373 92.631C77.8698 91.9795 77.4852 91.3076 77.2867 90.5299C77.2375 90.3372 77.1996 90.1398 77.1734 89.9395C77.1712 89.9196 77.1664 89.9004 77.1595 89.8825C77.1859 88.5224 77.4945 87.193 77.6542 85.8513C77.7922 84.6888 77.8558 83.512 77.9085 82.3372C78.4402 80.7346 79.0622 79.1864 79.7695 77.7054C79.9798 77.3373 80.1172 76.9063 80.1696 76.4513C80.187 76.2285 80.1595 76.0036 80.0898 75.7992C80.0202 75.5948 79.9107 75.4181 79.7726 75.2867C79.6441 75.1753 79.4978 75.1042 79.345 75.0791C79.1922 75.0541 79.0371 75.0757 78.8917 75.1422C78.602 75.293 78.3591 75.5668 78.2016 75.9199C78.2745 74.3482 78.3676 72.7703 78.3179 71.1965C78.2686 69.7322 78.0634 68.2842 77.7085 66.8946C77.5534 66.2838 77.3859 65.6954 77.2045 65.107C77.2045 63.4477 77.144 61.7884 77.0602 60.1332C77.0184 59.3188 76.9765 58.4902 76.9284 57.6697C76.8897 57.01 76.809 56.2934 76.4337 55.8047C76.1236 55.3975 75.6149 55.1553 75.2241 55.5156C74.8798 55.8312 74.8271 56.4623 74.8504 56.9693C74.9017 57.6432 75.0056 58.3083 75.1605 58.9543C75.3156 59.6527 75.4924 60.3368 75.6893 61.0127C76.0817 62.3544 76.5454 63.6716 76.9579 65.0072C76.9614 65.0359 76.9699 65.063 76.9827 65.0866C77.4125 66.413 77.7312 67.7967 77.9333 69.2135C78.1427 70.8545 78.0962 72.528 78.0248 74.1833L77.9643 75.5392C77.9473 75.4008 77.9287 75.2623 77.907 75.132C77.8181 74.5528 77.6678 73.9929 77.4603 73.4686C77.3472 73.1929 77.2176 72.9294 77.0726 72.6807C76.934 72.4296 76.7822 72.1915 76.6183 71.9681C76.4666 71.7441 76.2616 71.5941 76.0367 71.5426C75.9302 71.5396 75.8246 71.5697 75.7286 71.6306C75.6327 71.6915 75.549 71.7813 75.4846 71.8928C75.2464 72.2665 75.123 72.7435 75.1388 73.2304C75.147 73.7429 75.2537 74.2443 75.449 74.6882C75.6901 75.1973 75.981 75.6627 76.3143 76.0726C76.9114 76.8504 77.6371 77.6688 77.7612 78.8252C77.7745 78.9602 77.7787 79.0965 77.7736 79.2324C77.7723 79.2592 77.7766 79.2859 77.786 79.3098C77.7581 79.9396 77.7312 80.5687 77.7054 81.1971C77.679 81.8079 77.6511 82.4187 77.617 83.0396C77.5932 83.4672 77.5658 83.8934 77.5348 84.3182C77.4728 85.146 77.378 85.9689 77.251 86.7837C77.1121 87.5724 77.0054 88.3703 76.9315 89.174C76.9191 89.3633 76.9098 89.5526 76.9067 89.74C76.8982 89.7434 76.8903 89.7494 76.8839 89.7576C76.8774 89.7657 76.8725 89.7757 76.8695 89.7868C76.6679 90.6297 76.2693 91.3463 75.8646 92.0426C75.4677 92.7071 75.105 93.4056 74.779 94.1335C74.1843 95.5057 73.7533 96.9895 73.5012 98.5332C73.1937 97.4441 72.9521 96.325 72.7785 95.1861C72.5799 93.9617 72.4498 92.7198 72.3892 91.4705C72.2605 88.5143 72.7568 85.5662 72.4094 82.608C72.3908 82.4574 72.3706 82.3067 72.3489 82.156C72.353 82.1221 72.3492 82.0873 72.3381 82.0563C72.3378 82.0515 72.3378 82.0468 72.3381 82.042C71.9719 79.6588 71.1435 77.44 69.9328 75.6003C69.7064 75.2562 69.4676 74.9304 69.2163 74.6128C68.8565 73.2182 68.4006 71.8684 67.9959 70.4941C67.8935 70.148 67.7942 69.7998 67.7028 69.4476C67.6308 69.133 67.5406 68.826 67.4329 68.5294C67.2313 68.0286 66.8545 67.5888 66.3923 67.6947C65.8573 67.8148 65.9023 68.6007 65.9643 69.1443C66.0512 69.8121 66.231 70.4533 66.4947 71.0357C67.0483 72.2939 67.8671 73.2752 68.6658 74.2565C69.0755 74.7445 69.4638 75.2624 69.8289 75.8079C70.8319 77.3553 71.557 79.1791 71.9504 81.1442C71.9597 81.1951 71.969 81.246 71.9798 81.2969C71.9504 81.25 71.9225 81.2012 71.8914 81.1543C71.7007 80.8551 71.5162 80.5049 71.2184 80.3827C70.7346 80.1791 70.2274 80.682 70.1235 81.2969C69.9824 82.1112 70.3344 82.8951 70.7175 83.4998C70.9144 83.8072 71.1269 84.0983 71.3068 84.4241C71.464 84.714 71.5981 85.0245 71.7069 85.3504C71.9586 86.1029 72.1157 86.9039 72.1721 87.7223C72.1741 87.7543 72.1809 87.7855 72.1923 87.8139C72.1535 88.6507 72.1163 89.4895 72.1163 90.3283C72.1263 91.5979 72.2181 92.864 72.3908 94.1132C72.5404 95.2842 72.7502 96.4405 73.0189 97.5743C72.8868 97.3357 72.7338 97.1184 72.5629 96.9268C71.907 96.1817 71.144 95.6259 70.4011 95.0456L69.0737 94.0073C69.0287 93.9706 68.9108 93.9177 68.9186 94.046C68.9527 95.7012 68.9992 97.3544 69.1403 98.9994C69.1807 99.4514 69.2256 99.9034 69.2815 100.351C69.0902 99.786 68.8775 99.2335 68.6441 98.6961C68.2828 97.8569 67.8488 97.0753 67.3507 96.367C66.8553 95.6837 66.295 95.0871 65.6836 94.5916C65.2866 94.2618 64.8757 93.9666 64.4585 93.6836C64.2701 93.4867 64.0976 93.265 63.9436 93.0219C63.7388 92.6961 63.5473 92.3563 63.3698 92.0039C63.0147 91.3036 62.6937 90.5788 62.2936 89.911C61.8134 89.1494 61.2142 88.5322 60.5365 88.101C60.3612 87.9643 60.1605 87.8939 59.9565 87.8974C59.8728 87.9064 59.7916 87.9396 59.7187 87.9945C59.6458 88.0494 59.583 88.1247 59.5347 88.215C59.3099 88.6365 59.3921 89.1678 59.5611 89.5974C59.9054 90.481 60.5195 91.1203 61.1382 91.6558C61.7517 92.1711 62.3881 92.6375 63.0442 93.0524C63.4986 93.3497 63.956 93.6388 64.4073 93.9442C64.4352 93.9727 64.4647 93.9991 64.4942 94.0256C64.5223 94.0538 64.5565 94.0695 64.5919 94.0704C64.7206 94.16 64.8493 94.2496 64.9765 94.3412C65.5978 94.776 66.1812 95.2982 66.7165 95.8987C67.261 96.5375 67.7363 97.2711 68.1292 98.0792C68.526 98.8933 68.8684 99.7509 69.1527 100.642C69.1714 100.695 69.1869 100.748 69.2039 100.801C68.9041 100.225 68.5378 99.7133 68.1184 99.2845C67.5632 98.7551 66.8777 98.5373 66.2016 98.4172L66.1737 98.3968C65.7829 98.1985 65.4075 97.9517 65.0524 97.6598C64.6951 97.3525 64.3518 97.018 64.0243 96.6581C63.6877 96.2977 63.3047 95.8966 62.841 96.0107C62.7446 96.031 62.6535 96.0827 62.576 96.1609C62.4986 96.2391 62.4372 96.3414 62.3975 96.4586C62.3208 96.7088 62.3208 96.9882 62.3975 97.2383C62.565 97.8104 63.0271 98.1321 63.4489 98.3031C63.9283 98.4644 64.4198 98.5559 64.9144 98.576C65.4122 98.6248 65.91 98.6676 66.4032 98.7796C66.8583 98.8513 67.302 99.0162 67.7183 99.2682C68.0319 99.4875 68.3121 99.7808 68.5448 100.133C68.7817 100.485 69.0018 100.856 69.2039 101.243C68.4779 100.745 67.6965 100.402 66.8886 100.225C66.6203 100.158 66.352 100.101 66.0822 100.046C66.0295 100.046 65.9953 100.046 65.9876 100.127C65.8325 101.577 66.2357 103.008 66.7196 104.287C67.187 105.56 67.759 106.762 68.4254 107.872C68.597 108.15 68.7775 108.422 68.9667 108.686C68.7336 108.568 68.4941 108.473 68.2502 108.401C67.7261 108.244 67.1928 108.144 66.656 108.104C66.3086 108.078 65.9364 108.129 65.6061 107.962C65.5487 107.933 65.4882 107.931 65.4789 108.027C65.4153 108.638 65.6914 109.2 65.9442 109.674C66.1795 110.11 66.4431 110.519 66.732 110.896C67.3154 111.651 67.9924 112.27 68.734 112.728C69.1041 112.958 69.4892 113.144 69.8847 113.284C70.2972 113.43 70.7206 113.526 71.1409 113.62C71.5921 113.721 72.0465 113.807 72.5025 113.856C72.9584 113.905 73.4407 113.899 73.909 113.907L76.274 113.941C76.0863 114.208 75.9707 114.549 75.9452 114.91C75.8934 115.307 75.9345 115.714 76.0631 116.079C76.2108 116.42 76.4335 116.694 76.702 116.865C76.9428 117.03 77.2119 117.112 77.4835 117.101C77.7551 117.09 78.02 116.988 78.2528 116.804C78.4674 116.624 78.6424 116.373 78.7604 116.076C78.8785 115.78 78.9355 115.448 78.9258 115.114C78.9012 114.657 78.7565 114.225 78.5164 113.892L80.2595 113.801C80.7418 113.776 81.2257 113.762 81.708 113.717C82.1571 113.67 82.6039 113.589 83.0463 113.477C83.8761 113.315 84.688 113.022 85.464 112.604C86.1966 112.17 86.8674 111.575 87.4475 110.845C87.736 110.481 87.9996 110.086 88.2352 109.662C88.4849 109.208 88.7579 108.703 88.8245 108.137C88.8431 107.99 88.8431 107.84 88.8245 107.693C88.8121 107.595 88.6989 107.449 88.6152 107.489C88.305 107.662 87.9623 107.646 87.6289 107.679C87.3839 107.703 87.1373 107.742 86.8938 107.793C86.4336 107.874 85.9799 108.011 85.5384 108.2L85.6702 107.996C86.3336 106.903 86.8992 105.713 87.3559 104.45C87.8305 103.179 88.2632 101.783 88.1949 100.339C88.1865 100.164 88.171 99.9904 88.1484 99.8179C88.1384 99.7563 88.1116 99.7016 88.073 99.6642C88.0345 99.6267 87.9868 99.609 87.939 99.6143C87.0086 99.8383 86.0595 100.107 85.205 100.673C85.1507 100.708 85.0964 100.746 85.0499 100.785C85.3306 100.089 85.6408 99.4046 86.0921 98.8875C86.4138 98.5411 86.7819 98.2766 87.1776 98.1077C87.6431 97.896 88.1193 97.7273 88.6028 97.6028C89.0804 97.4684 89.5643 97.3605 90.0311 97.1752C90.4575 97.0124 90.9228 96.7497 91.1833 96.2509ZM90.1861 91.269C90.4963 90.538 90.7522 89.7746 91.0872 89.0681C91.473 88.2937 91.9793 87.6352 92.5728 87.136C92.7225 86.9796 92.8994 86.8747 93.0877 86.8306C93.1623 86.8191 93.2378 86.8368 93.3048 86.8815C93.3532 86.9203 93.3937 86.9741 93.4226 87.0382C93.6134 87.4312 93.4428 87.9788 93.2924 88.3514C92.959 89.176 92.3898 89.8051 91.8331 90.3629C91.2764 90.9208 90.6809 91.4176 90.0838 91.9021L89.8016 92.1302C89.9411 91.8472 90.0667 91.5581 90.1861 91.269ZM85.6501 69.9118C85.7741 69.411 85.9897 68.8104 86.4518 68.79C86.4926 68.7808 86.5343 68.7827 86.5744 68.7956C86.6146 68.8085 86.6523 68.8321 86.6851 68.865C86.718 68.8978 86.7454 68.9392 86.7656 68.9866C86.7857 69.0339 86.7982 69.0862 86.8023 69.1402C86.8282 69.444 86.8167 69.7513 86.7682 70.0503C86.681 70.6672 86.5142 71.26 86.275 71.8032C85.7819 72.9556 85.0499 73.8819 84.3397 74.8042C84.6033 73.7862 84.9057 72.7683 85.1848 71.7503C85.3399 71.1517 85.495 70.5328 85.6501 69.9118ZM81.5792 82.3169C81.7343 82.0603 81.8894 81.7285 82.1375 81.6409C82.2308 81.6114 82.3281 81.6114 82.4213 81.6409C82.5141 81.671 82.6012 81.7258 82.6772 81.8018C82.7459 81.869 82.8025 81.9552 82.8431 82.0542C82.9007 82.2043 82.933 82.3689 82.9377 82.5368C82.9672 83.3226 82.578 83.9619 82.2197 84.5422C82.0369 84.8227 81.8695 85.1201 81.7188 85.4319C81.5819 85.7337 81.4661 86.0513 81.373 86.3806C81.2695 86.7379 81.186 87.1047 81.1233 87.478C81.0892 86.9059 81.0628 86.3318 81.0551 85.7576C81.0427 84.8716 81.0904 83.9858 81.1978 83.1109C81.2992 82.8282 81.4251 82.5618 81.573 82.3169H81.5792ZM75.3962 59.0317C75.2428 58.3964 75.1424 57.741 75.0969 57.0772C75.0768 56.5702 75.1481 55.9025 75.5699 55.707C75.6798 55.6636 75.7961 55.6562 75.9086 55.6857C76.0211 55.7152 76.1263 55.7805 76.2151 55.876C76.4075 56.0906 76.5383 56.3851 76.5857 56.7107C76.642 57.0544 76.6752 57.4039 76.6849 57.7552L76.7501 58.9523C76.8369 60.5627 76.9176 62.1752 76.9408 63.7897C76.9408 63.9567 76.9408 64.1257 76.9408 64.2946C76.8013 63.8569 76.6586 63.4212 76.5159 62.9855C76.0781 61.7007 75.7041 60.38 75.3962 59.0317ZM76.871 76.4452C76.3128 75.7143 75.6304 74.9854 75.4381 73.9349C75.3469 73.4918 75.3648 73.0221 75.4893 72.5932C75.6102 72.2063 75.9344 71.6729 76.2895 71.9295C76.4503 72.0701 76.5897 72.2489 76.7005 72.4568C76.8503 72.6908 76.9881 72.9377 77.113 73.1958C77.3307 73.662 77.4924 74.1695 77.5922 74.7004C77.8077 75.7978 77.8201 76.9399 77.8062 78.0678C77.5658 77.4621 77.2497 76.9136 76.871 76.4452ZM77.9659 80.9854C78.0052 80.114 78.0445 79.2419 78.0838 78.3692C78.1163 78.1045 78.1272 77.8357 78.1442 77.5711C78.1536 77.2146 78.2011 76.8617 78.2854 76.5226C78.4746 75.8792 79.022 75.1768 79.5911 75.4496C79.6927 75.4931 79.7784 75.5845 79.8315 75.7061C79.8977 75.869 79.9268 76.0535 79.9152 76.2375C79.9013 76.6712 79.7229 77.0519 79.5493 77.4184C79.2034 78.1289 78.8855 78.8598 78.5862 79.607C78.366 80.1594 78.1546 80.7166 77.9519 81.2785L77.9659 80.9854ZM67.6159 72.5871C66.9289 71.6241 66.3179 70.4534 66.1954 69.1137C66.1675 68.8226 66.1256 68.4215 66.2931 68.1854C66.3638 68.0996 66.4513 68.0414 66.5458 68.0173C66.6403 67.9932 66.7381 68.0041 66.8281 68.0489C66.9225 68.1031 67.0077 68.1814 67.0788 68.2793C67.1499 68.3771 67.2055 68.4926 67.2422 68.619C67.3414 68.9222 67.4284 69.2321 67.5027 69.5474C67.8718 70.9196 68.3231 72.2511 68.717 73.6193C68.7728 73.8229 68.8271 74.0082 68.8798 74.2036C68.4518 73.6661 68.0176 73.149 67.6159 72.5871ZM72.0636 85.7983C71.9713 85.4631 71.8582 85.1383 71.7255 84.8272C71.5853 84.5076 71.4223 84.2063 71.2386 83.9273C70.8726 83.3654 70.443 82.8096 70.3531 82.0461C70.3301 81.8823 70.332 81.7142 70.3586 81.5514C70.3852 81.3886 70.436 81.2343 70.5081 81.0973C70.6377 80.8712 70.8299 80.7212 71.0432 80.68C71.1492 80.6576 71.2579 80.6804 71.3533 80.7451C71.3756 80.7609 71.3964 80.7801 71.4154 80.8021C71.4461 80.837 71.4746 80.8752 71.5006 80.9161C71.5518 80.9894 71.6014 81.0688 71.6557 81.1442C71.8295 81.4033 71.9804 81.6874 72.1055 81.9911C72.2657 83.1548 72.3302 84.3377 72.2978 85.5194C72.29 85.8737 72.2791 86.2279 72.2636 86.5822C72.2071 86.3166 72.1403 86.055 72.0636 85.7983ZM61.9043 91.9713C61.5942 91.7454 61.3026 91.5051 61.0142 91.2425C60.7196 90.9838 60.4467 90.6849 60.2 90.3507C59.9438 90.0278 59.758 89.6208 59.6619 89.1719C59.6014 88.7892 59.7332 88.2639 60.076 88.2232C60.2631 88.2221 60.4463 88.2929 60.6032 88.4268C60.7583 88.5367 60.9134 88.6548 61.0685 88.783C61.3744 89.0374 61.6565 89.3381 61.909 89.6789C62.0109 89.8197 62.1062 89.9686 62.1943 90.1247C62.2858 90.2836 62.3742 90.4464 62.4595 90.6093C62.6394 90.9595 62.8116 91.3178 62.9852 91.6741C63.2523 92.2479 63.5541 92.7926 63.8878 93.3029L63.8087 93.2499C63.1636 92.8366 62.5247 92.4315 61.9043 91.9713ZM64.1235 98.1586C63.6955 98.0975 63.2225 97.9916 62.8705 97.6435C62.7279 97.5146 62.6299 97.3171 62.5975 97.0938C62.5819 96.9812 62.5879 96.8653 62.615 96.7565C62.642 96.6477 62.6894 96.5495 62.7526 96.4708C62.8238 96.3984 62.9066 96.3483 62.9947 96.3243C63.0829 96.3003 63.1741 96.303 63.2613 96.3324C63.4615 96.4078 63.6456 96.543 63.7994 96.7273C64.1297 97.0734 64.4538 97.4277 64.8043 97.7453C65.043 97.9576 65.2916 98.1501 65.5487 98.3215C65.0757 98.2624 64.5981 98.2319 64.1235 98.1586ZM69.4396 99.6774C69.2846 98.0751 69.221 96.4565 69.1822 94.842C69.4319 96.086 69.6847 97.3279 69.97 98.5576C70.2751 99.9046 70.6402 101.227 71.0633 102.518C71.4797 103.757 71.967 104.952 72.5211 106.095C73.0683 107.217 73.661 108.301 74.2967 109.34C74.931 110.387 75.5978 111.398 76.2786 112.394L76.4864 112.695L76.688 113.062C75.8165 112.272 74.946 111.481 74.0765 110.69C73.5855 110.26 73.119 109.784 72.6808 109.265C72.3074 108.801 71.9669 108.294 71.6635 107.75C71.0508 106.637 70.564 105.414 70.2181 104.118C69.8398 102.679 69.5789 101.192 69.4396 99.6815V99.6774ZM69.3497 94.5428C69.344 94.526 69.3367 94.5103 69.328 94.4959C69.3373 94.5016 69.3461 94.5084 69.3544 94.5163C69.3507 94.5257 69.3491 94.5363 69.3497 94.5468V94.5428ZM76.6074 91.4135C76.2695 92.8716 76.0287 94.3655 75.8878 95.8783C75.8403 96.39 75.8041 96.9017 75.7793 97.4134C75.7829 97.4619 75.7962 97.5082 75.8181 97.5476C75.8399 97.587 75.8693 97.618 75.9033 97.6374C75.9576 97.672 76.0274 97.6659 76.0321 97.5722C76.1173 95.774 76.3455 93.9924 76.7129 92.2564L76.8059 91.837C76.8245 92.1994 76.8478 92.5597 76.8664 92.9201C76.9057 93.6843 76.9377 94.4491 76.9625 95.2146C77.0122 96.7497 77.0313 98.2869 77.0199 99.826C77.0137 100.692 76.9982 101.557 76.9734 102.422C76.9775 102.471 76.9912 102.517 77.0133 102.557C77.0353 102.597 77.0649 102.628 77.099 102.648C77.1502 102.678 77.2231 102.676 77.2262 102.583C77.2696 101.046 77.2841 99.5084 77.2696 97.9692C77.2551 96.4301 77.2096 94.8943 77.1331 93.3619C77.1052 92.7878 77.0618 92.2136 77.0416 91.6395C77.1791 92.3181 77.3016 93.0056 77.4092 93.7019C77.5756 94.781 77.7033 95.8668 77.7922 96.9594C77.8439 97.5824 77.8816 98.2061 77.9054 98.8305C77.9101 98.879 77.9241 98.9252 77.946 98.9647C77.968 99.0043 77.9972 99.0358 78.031 99.0565C78.0776 99.085 78.1613 99.087 78.1582 98.9893C78.1127 97.8763 78.0279 96.7674 77.9039 95.6625C77.7798 94.5577 77.6175 93.4657 77.4169 92.3867C77.634 93.1481 77.8263 93.9211 77.9938 94.7056C78.3071 96.1735 78.5331 97.671 78.67 99.1847C78.8063 100.7 78.8546 102.227 78.8142 103.751C78.7748 105.284 78.6442 106.81 78.4234 108.316C78.2022 109.814 77.8911 111.286 77.4929 112.72C77.4557 112.852 77.4185 112.984 77.3797 113.127C77.3192 113.227 77.2572 113.33 77.1952 113.424C77.1844 113.431 77.176 113.444 77.1719 113.459C77.1591 113.446 77.145 113.435 77.13 113.426C76.688 112.174 76.2321 110.928 75.8398 109.645C75.6297 108.976 75.448 108.293 75.2954 107.597C75.143 106.852 75.0337 106.094 74.9682 105.327C74.833 103.637 74.789 101.936 74.8364 100.237C74.8504 99.3842 74.8457 98.523 74.9108 97.6761C74.994 96.841 75.1501 96.0212 75.3761 95.2329C75.7162 93.924 76.1277 92.6489 76.6074 91.4176V91.4135ZM78.0155 112.667C78.6436 111.698 79.2562 110.716 79.8501 109.707C80.4704 108.648 81.0504 107.557 81.5839 106.423C82.1194 105.289 82.59 104.105 82.992 102.88C83.4031 101.59 83.7516 100.268 84.0357 98.92C84.3273 97.5784 84.5723 96.2204 84.8111 94.8604C84.8204 94.8135 84.8282 94.7667 84.8375 94.7199C84.8375 96.0351 84.8095 97.3503 84.7274 98.6635C84.6824 99.3659 84.6204 100.066 84.5351 100.763C84.5242 100.813 84.5118 100.862 84.5009 100.913C84.4933 100.944 84.4933 100.976 84.5009 101.007C84.4018 101.771 84.2682 102.526 84.1008 103.269C83.8082 104.599 83.3766 105.87 82.8183 107.046C82.5371 107.624 82.2174 108.169 81.863 108.674C81.4702 109.225 81.0416 109.73 80.5821 110.183C80.0858 110.682 79.5787 111.16 79.0747 111.647L77.9892 112.689L78.0155 112.667ZM83.8 95.0273L84.3753 94.5468C84.3174 94.728 84.2451 94.9006 84.1598 95.0619C84.0468 95.2974 83.9247 95.5251 83.7938 95.744C83.5321 96.1883 83.2376 96.5975 82.9145 96.9655C82.7327 97.1756 82.5416 97.3714 82.3422 97.5519C82.2864 97.6028 82.3546 97.7372 82.3857 97.7779C82.4167 97.8186 82.502 97.8878 82.5593 97.8349C83.0802 97.3576 83.5469 96.7859 83.9458 96.1369L82.7656 99.2397C82.5983 99.7052 82.4039 100.153 82.1841 100.579C82.1437 100.655 82.1841 100.748 82.2275 100.805C82.2709 100.862 82.3608 100.936 82.4012 100.862C82.6013 100.48 82.7796 100.078 82.9346 99.6611C83.1006 99.2336 83.2619 98.802 83.4247 98.3744C83.7235 97.5845 84.0233 96.7952 84.3242 96.0066C84.1892 96.7396 84.0497 97.4684 83.8992 98.1953C83.6279 99.5352 83.2976 100.853 82.9098 102.143C82.5266 103.388 82.0709 104.593 81.5467 105.747C81.0301 106.88 80.4674 107.976 79.861 109.031C79.5942 109.499 79.3197 109.959 79.0422 110.415C79.1683 110.089 79.2867 109.758 79.3973 109.421C79.909 107.865 80.2705 106.231 80.4735 104.558C80.6815 102.893 80.6904 101.197 80.4999 99.5288L80.4813 99.3802C80.4915 99.3789 80.5011 99.3735 80.5089 99.3648C80.5167 99.356 80.5222 99.3443 80.5247 99.3313C80.9357 97.2424 82.5144 96.1064 83.8 95.0314V95.0273ZM77.6945 92.0609C78.0558 92.745 78.456 93.3884 78.7878 94.0969C79.4511 95.526 79.9158 97.0984 80.1603 98.7409C80.4094 100.388 80.4539 102.077 80.2921 103.743C80.1323 105.401 79.8145 107.027 79.3461 108.581C78.9842 109.8 78.5236 110.964 77.9721 112.054C78.22 111.066 78.4271 110.062 78.5924 109.045C79.3198 104.498 79.2359 99.7928 78.3474 95.296C78.0516 93.7987 77.6647 92.3349 77.1905 90.9188C77.1533 90.8068 77.113 90.6969 77.0757 90.5849H77.085C77.2409 91.1094 77.4456 91.6065 77.6945 92.065V92.0609ZM74.8209 94.8115C75.0974 94.1253 75.4142 93.4684 75.7684 92.8468C75.5916 93.3823 75.4257 93.9238 75.2753 94.4756C75.0433 95.2574 74.8607 96.063 74.7294 96.8841C74.6343 97.7313 74.5902 98.587 74.5976 99.4433C74.5446 101.16 74.5699 102.879 74.6736 104.592C74.7271 105.414 74.8235 106.231 74.962 107.035C75.0912 107.727 75.2544 108.407 75.4505 109.071C75.7762 110.203 76.1592 111.311 76.5485 112.4C75.9354 111.351 75.366 110.26 74.8426 109.13C74.5055 108.375 74.229 107.576 74.0176 106.746C73.8249 105.968 73.6812 105.171 73.588 104.362C73.2182 101.091 73.6477 97.7502 74.8147 94.8196L74.8209 94.8115ZM71.2649 96.0147C71.6169 96.2912 71.9556 96.5958 72.2791 96.9268C72.5503 97.1933 72.7816 97.5233 72.9615 97.9C73.1424 98.331 73.28 98.7908 73.3709 99.2682L73.3802 99.2987C73.1945 100.751 73.1642 102.229 73.2903 103.692C73.4265 105.387 73.7986 107.034 74.3882 108.552C74.6897 109.295 75.0253 110.013 75.3931 110.702C75.1574 110.34 74.9279 109.975 74.6953 109.605C74.06 108.585 73.4642 107.523 72.9103 106.425C72.3539 105.321 71.8614 104.164 71.4371 102.963C71.0036 101.706 70.6312 100.414 70.322 99.0951C70.0646 98.0283 69.8382 96.9513 69.618 95.8702C70.1349 97.1271 70.6467 98.3812 71.1533 99.6326C71.3339 100.097 71.5413 100.543 71.7736 100.966C71.8093 101.029 71.8868 101.115 71.9519 101.08C72.0171 101.046 71.986 100.93 71.9519 100.877C71.7507 100.516 71.5708 100.135 71.4138 99.7385C71.2386 99.3171 71.068 98.8915 70.8943 98.4681L69.8413 95.8865L69.77 95.7093C69.8475 95.8539 69.925 95.9944 70.0134 96.1328C70.3039 96.6034 70.6291 97.0351 70.9842 97.4216C71.1819 97.637 71.389 97.8368 71.6045 98.0201C71.648 98.0588 71.7317 98.1016 71.7596 98.0201C71.7875 97.9387 71.7193 97.8166 71.6728 97.786C70.9759 97.1857 70.3744 96.4133 69.9018 95.5119C69.7793 95.2798 69.6133 95.011 69.6009 94.7158C70.1561 95.1434 70.7144 95.575 71.2649 96.0188V96.0147ZM68.8472 101.276C69.0669 101.408 69.2785 101.562 69.48 101.738C69.5844 102.369 69.7138 102.993 69.8677 103.607C70.1962 104.95 70.6632 106.229 71.2556 107.406C71.5545 107.991 71.8918 108.541 72.2636 109.049C72.6732 109.598 73.119 110.098 73.5958 110.543C74.1106 111.036 74.641 111.504 75.1667 111.981L76.3872 113.088C75.8748 112.817 75.3769 112.501 74.8969 112.142C74.083 111.546 73.3006 110.878 72.5552 110.144C71.9 109.524 71.2877 108.83 70.7253 108.07C70.3174 107.504 69.9499 106.895 69.5792 106.286L68.4223 104.372C68.061 103.774 67.6903 103.181 67.3368 102.568C67.0307 102.05 66.7676 101.489 66.5521 100.897L66.6482 101.037C66.8023 101.265 66.962 101.486 67.1274 101.699C67.4622 102.136 67.8181 102.544 68.1928 102.921C68.3996 103.131 68.6136 103.329 68.8348 103.515C68.8783 103.552 68.962 103.597 68.9899 103.515C69.0178 103.434 68.9496 103.312 68.9031 103.281C68.1696 102.655 67.4986 101.911 66.9056 101.066C66.8622 101.007 66.8204 100.946 66.7785 100.883C66.8824 101.001 66.9863 101.117 67.0964 101.223C67.3312 101.45 67.5838 101.643 67.8501 101.799C67.9013 101.827 67.9757 101.827 67.9772 101.734C67.9736 101.685 67.9602 101.638 67.9384 101.599C67.9166 101.559 67.8872 101.528 67.8532 101.508C67.5957 101.358 67.3522 101.17 67.1274 100.948C66.9723 100.801 66.8436 100.63 66.6947 100.484C67.4358 100.624 68.1595 100.891 68.8472 101.28V101.276ZM67.1414 104.755C66.6498 103.534 66.1876 102.196 66.2109 100.785C66.2109 100.702 66.2109 100.618 66.2217 100.535C66.5955 101.817 67.2902 102.888 67.9276 103.953L69.1109 105.907C69.4939 106.541 69.8723 107.18 70.2786 107.789C70.861 108.641 71.505 109.417 72.2016 110.106C72.9623 110.875 73.7612 111.577 74.5929 112.207C75.1645 112.653 75.7606 113.042 76.3763 113.371C75.5501 113.118 74.7352 112.804 73.9354 112.433C72.9592 111.98 72.0232 111.389 71.144 110.672C70.2945 109.979 69.5256 109.128 68.8612 108.147C68.1871 107.11 67.6078 105.973 67.1352 104.759L67.1414 104.755ZM72.8173 113.55C72.3814 113.528 71.947 113.471 71.5162 113.381C71.0881 113.298 70.6648 113.196 70.2414 113.082C69.859 112.98 69.4843 112.834 69.1217 112.644C68.4024 112.266 67.7378 111.728 67.1569 111.054C66.8689 110.719 66.6038 110.352 66.3644 109.957C66.2419 109.753 66.1256 109.55 66.017 109.322C65.9118 109.122 65.8297 108.903 65.7736 108.672C66.5085 109.884 67.5095 110.771 68.641 111.211C68.9746 111.34 69.3168 111.426 69.663 111.47C69.7343 111.47 69.7327 111.362 69.7126 111.303C69.6969 111.258 69.6728 111.22 69.6427 111.192C69.6126 111.163 69.5774 111.145 69.5404 111.14C68.4503 110.992 67.4214 110.406 66.5939 109.462C66.6963 109.54 66.8017 109.613 66.9041 109.682C67.7892 110.259 68.7719 110.53 69.7591 110.47C69.8289 110.47 69.8335 110.37 69.8087 110.303C69.7938 110.259 69.7702 110.22 69.7402 110.191C69.7102 110.163 69.675 110.145 69.6381 110.14C69.0505 110.176 68.4623 110.09 67.8951 109.886C67.344 109.699 66.8219 109.387 66.352 108.965C66.156 108.792 65.9852 108.575 65.848 108.322C66.1125 108.38 66.3802 108.408 66.6482 108.406C66.8839 108.418 67.1135 108.444 67.3554 108.481C67.8888 108.551 68.4143 108.702 68.9217 108.929C69.0332 108.982 69.1419 109.045 69.2473 109.116L69.2815 109.141L69.3125 109.165L69.3668 109.212C69.3895 109.231 69.4112 109.252 69.4319 109.275L69.4458 109.289L69.4676 109.316C69.4837 109.335 69.5014 109.352 69.5203 109.367C69.903 109.822 70.3092 110.241 70.7361 110.623C71.6123 111.394 72.5518 112.033 73.5368 112.528C74.3933 112.96 75.2697 113.32 76.1608 113.605L74.2347 113.577C73.7617 113.573 73.2856 113.575 72.8111 113.554L72.8173 113.55ZM78.6777 114.833C78.7021 115.117 78.6723 115.405 78.5911 115.67C78.5099 115.936 78.3798 116.171 78.2125 116.354C78.0361 116.546 77.8257 116.676 77.6007 116.733C77.3757 116.79 77.1434 116.772 76.9253 116.68C76.7145 116.6 76.5252 116.443 76.3794 116.228C76.2347 115.964 76.169 115.64 76.1949 115.318C76.1917 114.95 76.2817 114.592 76.4508 114.3C76.5566 114.135 76.6968 114.015 76.854 113.953C76.9905 113.953 77.1254 113.953 77.2603 113.953C77.5984 113.968 77.938 113.909 78.2776 113.909C78.4907 114.145 78.6307 114.475 78.6715 114.837L78.6777 114.833ZM87.7157 108.011C87.9359 107.986 88.1593 107.984 88.3779 107.945C88.083 108.405 87.7152 108.775 87.3001 109.029C86.4701 109.594 85.5458 109.878 84.611 109.855C84.5397 109.855 84.5397 109.959 84.5614 110.022C84.577 110.066 84.601 110.105 84.6312 110.133C84.6613 110.162 84.6966 110.18 84.7336 110.185C85.3516 110.199 85.9673 110.083 86.5573 109.841C86.8079 109.738 87.0529 109.614 87.2908 109.468C86.8122 109.944 86.2773 110.312 85.7075 110.56C85.392 110.696 85.0675 110.793 84.7382 110.851C84.5831 110.877 84.7382 111.201 84.8592 111.181C86.0691 110.973 87.194 110.251 88.0616 109.124C88.1748 108.976 88.2833 108.823 88.3857 108.662C88.3097 108.839 88.2228 109.006 88.1438 109.159C87.9219 109.585 87.6718 109.985 87.3963 110.354C86.8466 111.093 86.2046 111.702 85.4981 112.156C85.1445 112.382 84.7767 112.568 84.3986 112.712C83.9954 112.862 83.5829 112.972 83.1719 113.08C82.7346 113.192 82.2957 113.284 81.8522 113.349C81.4087 113.414 80.9217 113.42 80.4565 113.445L78.4203 113.552C79.1561 113.285 79.8808 112.967 80.5914 112.6C81.5777 112.094 82.5194 111.45 83.3999 110.678C83.93 110.208 84.4286 109.681 84.8902 109.1C84.8983 109.096 84.9057 109.089 84.9119 109.081C85.061 108.9 85.2353 108.759 85.4252 108.664C85.6641 108.533 85.9104 108.427 86.1618 108.347C86.6693 108.177 87.1872 108.066 87.7095 108.015L87.7157 108.011ZM87.2629 103.819C86.8269 105.084 86.2861 106.282 85.6501 107.392C85.0281 108.445 84.292 109.373 83.465 110.146C82.6226 110.927 81.7165 111.583 80.7635 112.101C80.0325 112.5 79.2848 112.845 78.5242 113.133C78.8964 112.897 79.2593 112.63 79.6097 112.355C80.4227 111.719 81.2024 111.012 81.9437 110.24C82.5984 109.582 83.2081 108.85 83.7659 108.053C84.1691 107.459 84.5335 106.832 84.8964 106.184L86.0176 104.216C86.3696 103.605 86.731 102.994 87.0675 102.353C87.3965 101.762 87.6704 101.121 87.8832 100.445C87.9034 100.374 87.9235 100.302 87.9422 100.229C87.9949 101.475 87.6521 102.707 87.2567 103.823L87.2629 103.819ZM87.2908 100.154C87.1792 100.28 87.0737 100.416 86.9589 100.537C86.7361 100.771 86.4937 100.971 86.2363 101.133C86.1122 101.21 86.3045 101.518 86.41 101.451C86.5672 101.352 86.719 101.239 86.8644 101.113L86.8426 101.143C86.5305 101.568 86.1985 101.966 85.8486 102.336C85.6501 102.547 85.4464 102.75 85.2376 102.947C85.1817 102.998 85.25 103.132 85.281 103.173C85.312 103.214 85.3958 103.283 85.4531 103.23C86.1657 102.58 86.8156 101.819 87.3885 100.964C87.0256 101.864 86.5294 102.678 86.0672 103.489L84.9445 105.46C84.5816 106.097 84.2233 106.74 83.8356 107.353C83.2834 108.205 82.6701 108.986 82.0042 109.684C81.2785 110.466 80.5138 111.183 79.7152 111.83C79.3213 112.15 78.9165 112.459 78.4994 112.732C79.16 112.095 79.8206 111.459 80.4782 110.818C80.9608 110.364 81.4175 109.864 81.8444 109.322C82.2146 108.833 82.5505 108.302 82.8478 107.734C83.4477 106.577 83.9178 105.312 84.2435 103.979C84.438 103.193 84.5934 102.39 84.7087 101.577C84.7194 101.574 84.7295 101.568 84.7381 101.559C84.7467 101.55 84.7536 101.539 84.7584 101.526C84.7634 101.511 84.7691 101.497 84.7754 101.483C85.5152 100.783 86.4022 100.414 87.2846 100.154H87.2908ZM89.8946 96.8475C89.4433 97.0307 88.975 97.1366 88.5128 97.2547L88.4663 97.2689C88.5919 97.1528 88.7129 97.0327 88.8308 96.9044C89.1466 96.5562 89.446 96.183 89.7271 95.7867C90.0047 95.404 90.3118 94.8868 90.7599 94.9214C90.8419 94.9241 90.9209 94.962 90.9848 95.0293C91.0023 95.0515 91.0178 95.0761 91.0313 95.1026C91.0504 95.1453 91.065 95.1912 91.0747 95.2391C91.0972 95.3559 91.1009 95.4775 91.0857 95.5963C91.0704 95.7151 91.0366 95.8285 90.9864 95.9292C90.7522 96.4321 90.2885 96.6866 89.8884 96.8475H89.8946Z" fill="#9F2420"/>
<path d="M100.162 75.4738C97.4098 75.997 94.6199 76.5264 92.027 77.9169C90.8547 78.527 89.7492 79.3383 88.7393 80.3295C87.7297 81.3559 86.845 82.5778 86.1153 83.9535C85.2982 85.5218 84.5725 87.1688 83.9442 88.8805C83.8915 89.019 84.1241 89.2735 84.1862 89.1085C85.3244 86.1361 86.5976 83.1473 88.5796 80.9953C90.5615 78.8433 93.0536 77.6258 95.5473 76.8765C95.9918 76.7408 96.4379 76.62 96.8856 76.5141C96.8096 76.5447 96.7305 76.5773 96.6592 76.6119C96.3289 76.7625 96.0079 76.9478 95.6915 77.1392C95.3751 77.3306 95.082 77.5199 94.775 77.7031C94.4725 77.8803 94.1769 78.0774 93.8895 78.2936C93.3085 78.7436 92.7557 79.2535 92.2363 79.8185C91.6486 80.4476 91.0903 81.1256 90.5304 81.8015C90.439 81.9114 90.653 82.2087 90.746 82.0845C91.7292 80.8914 92.7217 79.68 93.8693 78.7618C94.4468 78.3274 95.0422 77.9353 95.6527 77.5871C95.9629 77.3835 96.273 77.2064 96.6003 77.0415C96.924 76.8804 97.2556 76.7477 97.5928 76.6445C97.7851 76.5813 97.9774 76.5243 98.1712 76.4694C98.0999 76.5162 98.0285 76.563 97.9587 76.6139C97.3487 77.0511 96.7723 77.5645 96.2374 78.147C95.6949 78.7353 95.1806 79.367 94.6974 80.0384C94.164 80.7713 93.6553 81.5328 93.1668 82.3146C92.6783 83.0964 92.1805 83.9535 91.723 84.8086L91.5524 85.1283C91.5121 85.2056 91.5524 85.2972 91.5959 85.3563C91.6393 85.4153 91.7292 85.4866 91.768 85.4133C92.6639 83.7055 93.655 82.0873 94.7331 80.5718C95.6775 79.2484 96.7135 77.9984 97.9153 77.0903C98.2939 76.8043 98.689 76.5579 99.097 76.3533C98.4762 76.977 97.9181 77.7014 97.4361 78.5094C96.6818 79.8038 96.0321 81.1978 95.4976 82.6688C95.1689 83.5341 94.8618 84.4136 94.5548 85.2911C94.5067 85.4316 94.7409 85.6861 94.7982 85.5212C95.318 83.96 95.8988 82.4351 96.5382 80.9525C97.0946 79.6573 97.788 78.4721 98.5977 77.4324C98.9432 77.0052 99.3151 76.6164 99.7096 76.2698C98.8448 77.9673 98.092 79.7587 97.4594 81.6244C96.725 83.8066 96.1032 86.0512 95.5984 88.343C95.0805 90.6396 94.6509 92.9667 94.2493 95.3019C93.8554 97.6025 93.5173 99.9235 93.0396 102.196C92.562 104.468 91.9432 106.662 90.9321 108.591C90.8111 108.825 90.6824 109.051 90.5506 109.275C90.4715 109.407 90.6933 109.682 90.7677 109.558C91.8533 107.725 92.5573 105.585 93.0706 103.383C93.5979 101.125 93.9406 98.8017 94.3283 96.497C94.7222 94.1597 95.1379 91.8286 95.631 89.5239C96.1127 87.2301 96.7015 84.9775 97.3943 82.7788C98.0883 80.5784 98.9459 78.4732 99.9546 76.4938C100.079 76.2536 100.206 76.0153 100.335 75.7812C100.393 75.6652 100.26 75.4555 100.162 75.4738Z" fill="#9F2420"/>
<path d="M59.9091 99.8032C59.0694 97.801 58.3622 95.7078 57.7954 93.5467C57.2518 91.4058 56.8289 89.2154 56.5299 86.993C56.2198 84.839 55.9422 82.6646 55.3606 80.6042C54.8318 78.7332 54.0146 76.8825 52.8018 75.6365C53.2653 75.9238 53.7011 76.2826 54.0999 76.7054C54.6351 77.2791 55.1185 77.9314 55.5405 78.6497C55.9993 79.4194 56.41 80.2364 56.7688 81.0928C57.142 81.9745 57.4639 82.8919 57.7318 83.8373C57.998 84.7831 58.2085 85.7544 58.3614 86.7426C58.3816 86.8668 58.4002 86.993 58.4173 87.1172C58.427 87.1662 58.4465 87.2108 58.4738 87.2466C58.501 87.2824 58.535 87.308 58.5723 87.3208C58.6406 87.3412 58.6762 87.2842 58.6654 87.2007C58.5218 86.1796 58.3175 85.1748 58.0544 84.1956C57.7926 83.2148 57.4738 82.2619 57.1006 81.3453C56.7342 80.4439 56.3147 79.5814 55.846 78.7657C55.4059 77.9971 54.9042 77.2927 54.3495 76.6646C53.9604 76.2273 53.536 75.8471 53.0841 75.5306C53.7048 75.7561 54.3114 76.044 54.8985 76.3918C55.747 76.8979 56.5492 77.5283 57.2898 78.271C58.0254 79.0053 58.6931 79.8499 59.2795 80.7874C60.4675 82.6858 61.3117 84.9135 61.7484 87.3025C61.7747 87.4511 61.7995 87.5997 61.8243 87.7484C61.8341 87.7973 61.8536 87.842 61.8809 87.8777C61.9081 87.9135 61.9421 87.9391 61.9794 87.9519C62.0461 87.9723 62.0849 87.9153 62.0709 87.8318C61.874 86.5993 61.5702 85.4004 61.1653 84.2587C60.3919 82.0737 59.2669 80.1348 57.8678 78.5757C56.4687 77.0165 54.8287 75.8741 53.0608 75.2273C54.3224 75.2797 55.5625 75.6698 56.7052 76.3735C57.9523 77.1625 59.0881 78.2241 60.0642 79.5129C60.6134 80.224 61.1253 80.9832 61.5964 81.7851C61.6336 81.8482 61.708 81.9357 61.7747 81.9011C61.8414 81.8665 61.8104 81.7504 61.7747 81.6975C60.9131 80.2101 59.9045 78.8798 58.7755 77.7417C57.6139 76.5737 56.2863 75.7223 54.8706 75.2374C54.4875 75.1084 54.0985 75.0118 53.7059 74.9483C54.659 74.879 55.6142 75.0165 56.533 75.3555C57.9078 75.8428 59.2325 76.5469 60.4783 77.4526C61.6979 78.326 62.8418 79.3705 63.89 80.5676C64.9737 81.8119 65.9518 83.2065 66.807 84.727C67.7059 86.3534 68.5273 88.0513 69.2666 89.8108L69.5457 90.4623C69.5607 90.5068 69.5843 90.5454 69.6143 90.574C69.6442 90.6026 69.6795 90.6203 69.7163 90.6251C69.7846 90.6251 69.7954 90.5274 69.766 90.4582C69.0218 88.6579 68.2039 86.9118 67.3157 85.2278C66.4571 83.6201 65.4692 82.1382 64.3692 80.8078C63.3164 79.5492 62.1643 78.4415 60.9326 77.5035C59.6809 76.5444 58.3487 75.7792 56.9626 75.2232C55.5545 74.6653 54.0161 74.3518 52.5692 74.8384C52.5175 74.8547 52.4658 74.873 52.4141 74.8934H52.4002C52.2808 74.9382 52.1738 75.0013 52.0544 75.0461C52.0452 75.048 52.0364 75.0523 52.0287 75.0589C52.0209 75.0655 52.0142 75.0741 52.0091 75.0843C52.004 75.0944 52.0005 75.1059 51.999 75.1179C51.9974 75.1299 51.9978 75.1422 52.0001 75.154C52.0118 75.213 52.0373 75.2657 52.073 75.3046C52.1074 75.3334 52.1444 75.3567 52.1831 75.3739C53.5788 76.4672 54.4938 78.4278 55.0691 80.3701C55.6662 82.3877 55.9484 84.5377 56.2477 86.6571C56.5356 88.8349 56.9383 90.9839 57.4527 93.0886C58.5319 97.3515 60.1446 101.348 62.2245 104.915C62.3532 105.137 62.485 105.357 62.6168 105.575C62.654 105.634 62.73 105.728 62.7951 105.689C62.8603 105.65 62.8324 105.541 62.7951 105.486C61.7102 103.704 60.7446 101.803 59.9091 99.8032Z" fill="#9F2420"/>
<path d="M66.7944 45.034C66.9495 45.0462 67.0968 45.0666 67.2472 45.091C67.3201 45.1032 67.3155 44.9811 67.2968 44.9241C67.2812 44.8802 67.2573 44.8423 67.2275 44.8138C67.1977 44.7853 67.1628 44.7672 67.1263 44.7612C66.5082 44.6354 65.878 44.6554 65.2653 44.8202C64.646 45.0052 64.1043 45.4948 63.7517 46.1884C63.3625 46.9478 63.1795 47.8477 63.0678 48.7415C62.9581 49.7236 62.9063 50.7153 62.9128 51.7078C62.8988 53.8008 62.8631 55.8938 62.8337 57.9847L62.7406 64.3796L62.6476 70.7745C62.6476 71.0412 62.6398 71.3079 62.6367 71.5746C62.6367 71.7233 62.8864 71.937 62.8895 71.7334C62.9195 69.6283 62.9495 67.5245 62.9794 65.422C63.0094 63.3195 63.0399 61.2157 63.0709 59.1106C63.102 57.0217 63.1454 54.9307 63.1593 52.8398C63.1671 51.8646 63.1593 50.8873 63.2229 49.9162C63.2626 48.9584 63.4229 48.0159 63.6975 47.1269C63.9353 46.3464 64.3881 45.7118 64.966 45.3496C65.5429 45.0197 66.1834 44.979 66.7944 45.034Z" fill="#9F2420"/>
<path d="M72.2875 58.8886C72.3837 61.2055 72.4596 63.5244 72.4627 65.8454C72.4627 66.1325 72.4627 66.4196 72.4627 66.7066C72.4627 66.8553 72.7124 67.067 72.714 66.8654C72.731 64.5689 72.669 62.2744 72.5806 59.9798C72.4922 57.6853 72.3774 55.3664 72.2875 53.0576C72.1976 50.7488 72.1324 48.4889 72.1526 46.2026C72.1681 44.073 72.1852 41.8355 72.9652 39.9074C73.2881 39.0785 73.7656 38.3704 74.3532 37.8491C75.0138 37.2871 75.8 37.055 76.5677 36.9044C76.7646 36.8637 76.9616 36.8311 77.1601 36.7965C77.3152 36.77 77.1523 36.4463 77.0391 36.4646C76.2637 36.599 75.4635 36.7374 74.7362 37.1446C74.0714 37.5248 73.499 38.1376 73.0815 38.9159C72.1324 40.6587 71.951 42.8371 71.9122 44.9199C71.8719 47.2307 71.9122 49.5415 71.9975 51.8422C72.075 54.1977 72.1914 56.5411 72.2875 58.8886Z" fill="#9F2420"/>
<path d="M79.9812 62.2748C79.9988 64.4112 80.0117 66.5476 80.02 68.684C80.02 68.8347 80.2727 69.0464 80.2712 68.8428C80.2557 65.0356 80.2267 61.2283 80.1843 57.4211C80.142 53.6139 80.0861 49.8264 80.0169 46.0585C79.9786 43.9221 79.9352 41.7864 79.8866 39.6514C79.8828 39.6027 79.8694 39.5562 79.8476 39.5166C79.8258 39.4769 79.7965 39.4455 79.7625 39.4254C79.7144 39.3969 79.6323 39.3948 79.6338 39.4905C79.7186 43.291 79.7899 47.0975 79.8478 50.9102C79.9057 54.7228 79.9502 58.511 79.9812 62.2748Z" fill="#9F2420"/>
<path d="M83.5894 69.1406C83.5937 69.1891 83.6076 69.2352 83.6296 69.2745C83.6516 69.3137 83.6811 69.3448 83.715 69.3646C83.7631 69.3931 83.8422 69.3951 83.8422 69.2995C83.8298 67.3633 83.8205 65.4311 83.8236 63.4909C83.8267 61.5506 83.8406 59.6226 83.8732 57.6864C83.9058 55.7502 83.96 53.8181 84.0407 51.886C84.0794 50.9779 84.112 50.0658 84.1834 49.1619C84.2332 48.3232 84.3802 47.4993 84.6191 46.7187C84.8381 46.0282 85.1996 45.4317 85.6628 44.9963C86.0935 44.5778 86.6252 44.3782 87.1593 44.4344C87.2877 44.4564 87.414 44.496 87.5362 44.5525C87.6013 44.583 87.6385 44.5097 87.6277 44.4324C87.6172 44.3839 87.5975 44.3397 87.5703 44.3041C87.5432 44.2684 87.5095 44.2425 87.4726 44.2288C86.4134 43.7361 85.2565 44.5851 84.6812 45.7496C83.9569 47.2033 83.9166 49.0377 83.8375 50.7153C83.7445 52.678 83.6824 54.6447 83.6421 56.6196C83.6018 58.5944 83.5816 60.555 83.577 62.5238C83.5723 64.4926 83.577 66.4451 83.5878 68.4057L83.5894 69.1406Z" fill="#9F2420"/>
<path d="M89.8465 57.0861C89.876 60.6653 90.0016 64.2425 90.1706 67.8135C90.2637 69.825 90.3676 71.8366 90.4808 73.846C90.485 73.8945 90.4986 73.9407 90.5203 73.9803C90.5421 74.0199 90.5712 74.0514 90.6048 74.072C90.6498 74.0985 90.7382 74.1026 90.732 74.0048C90.5459 70.4155 90.3598 66.8261 90.2373 63.2306C90.1768 61.4349 90.1319 59.6371 90.1117 57.8374C90.0915 56.0946 90.1117 54.3518 90.0714 52.609C90.0515 50.6889 89.8721 48.7774 89.5363 46.9084C89.526 46.8598 89.5063 46.8155 89.4792 46.7799C89.452 46.7442 89.4183 46.7183 89.3813 46.7048C89.3177 46.6865 89.2727 46.7394 89.2898 46.8249C89.9334 50.17 89.817 53.6576 89.8465 57.0861Z" fill="#9F2420"/>
<path d="M87.4675 52.6047C87.3085 52.4188 87.1071 52.3073 86.8948 52.2874C86.6824 52.2675 86.471 52.3404 86.2936 52.4947C86.119 52.6653 86.0027 52.9192 85.9696 53.2015C85.9365 53.4838 85.9894 53.7718 86.1168 54.0033C86.3339 54.4553 86.6487 54.9073 87.0938 54.8747C87.2743 54.8619 87.4469 54.7736 87.5865 54.6226C87.726 54.4717 87.8251 54.2661 87.8692 54.0359C87.9111 53.7719 87.8956 53.4978 87.8246 53.2447C87.7536 52.9916 87.6299 52.7699 87.4675 52.6047ZM87.6458 53.7102C87.6289 53.9031 87.5673 54.0845 87.4694 54.2301C87.3716 54.3757 87.2421 54.4784 87.0984 54.5245C86.9673 54.5718 86.8278 54.5589 86.703 54.4879C86.5686 54.3929 86.4562 54.2522 86.3773 54.0807C86.2608 53.8994 86.2025 53.6659 86.2145 53.4292C86.2449 53.173 86.3507 52.9427 86.5091 52.7879C86.6238 52.6833 86.759 52.6246 86.8986 52.6188C87.0381 52.6131 87.1759 52.6605 87.2954 52.7553C87.4159 52.8458 87.5126 52.9821 87.573 53.1462C87.6358 53.322 87.661 53.517 87.6458 53.7102Z" fill="#9F2420"/>
<path d="M87.468 57.3018C87.3087 57.1166 87.1074 57.0055 86.8952 56.9856C86.683 56.9658 86.4717 57.0383 86.294 57.1919C86.1245 57.3644 86.0096 57.6131 85.9714 57.8902C85.9387 58.1762 85.9909 58.4677 86.1172 58.7046C86.3343 59.1586 86.6491 59.6106 87.0942 59.576C87.2748 59.5635 87.4476 59.4753 87.5872 59.3243C87.7267 59.1733 87.8257 58.9675 87.8696 58.7372C87.912 58.4726 87.8967 58.1976 87.8257 57.9438C87.7547 57.69 87.6307 57.4676 87.468 57.3018ZM87.6463 58.4074C87.6297 58.6005 87.5683 58.7822 87.4704 58.9279C87.3725 59.0736 87.2428 59.1762 87.0989 59.2217C86.968 59.2707 86.8282 59.2584 86.7034 59.1871C86.5694 59.0915 86.4571 58.951 86.3778 58.7799C86.2617 58.5983 86.2034 58.365 86.2149 58.1284C86.245 57.8721 86.3509 57.6416 86.5096 57.4871C86.6242 57.3826 86.7595 57.3239 86.899 57.3181C87.0386 57.3123 87.1764 57.3597 87.2958 57.4545C87.4162 57.5443 87.513 57.6799 87.5734 57.8434C87.6361 58.0193 87.6613 58.2142 87.6463 58.4074Z" fill="#9F2420"/>
<path d="M87.4675 62.0041C87.3085 61.8182 87.1071 61.7067 86.8948 61.6868C86.6824 61.6669 86.471 61.7398 86.2936 61.8941C86.119 62.0647 86.0027 62.3186 85.9696 62.6009C85.9365 62.8832 85.9894 63.1712 86.1168 63.4028C86.3339 63.8547 86.6487 64.3067 87.0938 64.2742C87.2744 64.2616 87.4471 64.1734 87.5867 64.0224C87.7263 63.8714 87.8253 63.6657 87.8692 63.4353C87.9111 63.1713 87.8956 62.8972 87.8246 62.6441C87.7536 62.3911 87.6299 62.1693 87.4675 62.0041ZM87.6458 63.1096C87.6293 63.3027 87.5679 63.4844 87.4699 63.6301C87.372 63.7758 87.2423 63.8784 87.0984 63.924C86.9673 63.9712 86.8278 63.9583 86.703 63.8873C86.5686 63.7923 86.4562 63.6517 86.3773 63.4801C86.2611 63.2994 86.2027 63.0667 86.2145 62.8307C86.2445 62.5737 86.3503 62.3426 86.5091 62.1873C86.6239 62.0832 86.7591 62.0248 86.8986 62.019C87.038 62.0133 87.1758 62.0604 87.2954 62.1547C87.414 62.2409 87.5106 62.3712 87.573 62.5293C87.6381 62.71 87.6634 62.911 87.6458 63.1096Z" fill="#9F2420"/>
<path d="M66.8967 51.0362C66.7374 50.851 66.5361 50.7399 66.3239 50.72C66.1117 50.7001 65.9004 50.7726 65.7227 50.9263C65.5532 51.0988 65.4383 51.3475 65.4002 51.6246C65.3674 51.9106 65.4196 52.2021 65.5459 52.439C65.763 52.893 66.0779 53.3429 66.5229 53.3104C66.7036 53.2982 66.8765 53.2101 67.0161 53.059C67.1557 52.908 67.2547 52.702 67.2983 52.4716C67.3407 52.2069 67.3255 51.932 67.2544 51.6782C67.1834 51.4244 67.0594 51.2019 66.8967 51.0362ZM67.075 52.1417C67.0585 52.3348 66.997 52.5166 66.8991 52.6622C66.8012 52.8079 66.6715 52.9105 66.5276 52.9561C66.3967 53.005 66.2569 52.9928 66.1321 52.9215C65.9981 52.8258 65.8858 52.6854 65.8065 52.5143C65.6923 52.3318 65.6367 52.0982 65.6514 51.8628C65.6656 51.7358 65.6988 51.6138 65.7491 51.5037C65.7994 51.3937 65.8658 51.2977 65.9445 51.2215C66.059 51.1165 66.1943 51.0575 66.3339 51.0517C66.4735 51.0459 66.6114 51.0936 66.7307 51.1889C66.8515 51.278 66.9484 51.4138 67.0083 51.5778C67.0694 51.7557 67.0925 51.952 67.075 52.1458V52.1417Z" fill="#9F2420"/>
<path d="M66.8982 55.7355C66.7392 55.5497 66.5378 55.4381 66.3254 55.4182C66.1131 55.3984 65.9017 55.4713 65.7242 55.6256C65.5497 55.7961 65.4333 56.05 65.4003 56.3323C65.3672 56.6146 65.42 56.9027 65.5474 57.1342C65.7645 57.5862 66.0794 58.0382 66.5244 58.0056C66.705 57.9931 66.8778 57.9049 67.0174 57.7539C67.1569 57.6029 67.2559 57.3971 67.2998 57.1668C67.3417 56.9028 67.3263 56.6286 67.2553 56.3756C67.1843 56.1225 67.0605 55.9007 66.8982 55.7355ZM67.0765 56.841C67.0595 57.0339 66.998 57.2154 66.9001 57.361C66.8022 57.5065 66.6728 57.6093 66.5291 57.6554C66.3979 57.7027 66.2584 57.6898 66.1336 57.6188C65.9993 57.5237 65.8868 57.3831 65.808 57.2116C65.6936 57.03 65.638 56.7969 65.6529 56.5621C65.6672 56.4349 65.7004 56.3125 65.7507 56.2022C65.801 56.0918 65.8673 55.9955 65.946 55.9188C66.0608 55.8147 66.196 55.7563 66.3355 55.7505C66.4749 55.7447 66.6127 55.7918 66.7322 55.8862C66.8527 55.9767 66.9495 56.113 67.0098 56.2771C67.0706 56.4537 67.0936 56.6486 67.0765 56.841Z" fill="#9F2420"/>
<path d="M66.5252 62.7055C66.7059 62.6933 66.8788 62.6052 67.0184 62.4541C67.158 62.3031 67.257 62.0971 67.3006 61.8667C67.3407 61.6028 67.3238 61.3295 67.2517 61.0776C67.1796 60.8258 67.0553 60.6054 66.8928 60.4415C66.7335 60.2563 66.5322 60.1452 66.32 60.1253C66.1078 60.1054 65.8965 60.1779 65.7188 60.3316C65.5493 60.5041 65.4344 60.7528 65.3963 61.0299C65.3635 61.3158 65.4157 61.6074 65.542 61.8443C65.7653 62.2881 66.0802 62.7319 66.5252 62.7055ZM66.1344 62.3247C66.0004 62.2291 65.8881 62.0886 65.8088 61.9176C65.6946 61.735 65.639 61.5014 65.6537 61.2661C65.6679 61.1391 65.7011 61.017 65.7514 60.907C65.8017 60.7969 65.8681 60.701 65.9468 60.6247C66.0614 60.5202 66.1967 60.4615 66.3362 60.4557C66.4758 60.4499 66.6136 60.4973 66.733 60.5922C66.8534 60.6819 66.9502 60.8175 67.0106 60.981C67.0747 61.16 67.0999 61.3586 67.0835 61.5552C67.0665 61.748 67.005 61.9295 66.9071 62.0751C66.8092 62.2207 66.6798 62.3234 66.5361 62.3695C66.4023 62.4162 66.2603 62.4004 66.1344 62.3247Z" fill="#9F2420"/>
<path d="M76.5011 41.1876C76.3418 41.0024 76.1405 40.8913 75.9283 40.8714C75.7161 40.8515 75.5048 40.924 75.3271 41.0777C75.153 41.2485 75.0369 41.5024 75.0038 41.7845C74.9707 42.0667 75.0234 42.3546 75.1503 42.5863C75.3675 43.0403 75.6823 43.4923 76.1258 43.4577C76.3077 43.4473 76.4823 43.36 76.6234 43.2089C76.7645 43.0577 76.8647 42.8508 76.9089 42.6189C76.9496 42.3541 76.9329 42.0797 76.8609 41.8267C76.7888 41.5737 76.6641 41.3523 76.5011 41.1876ZM76.6779 42.2931C76.6615 42.4863 76.6002 42.6682 76.5022 42.8139C76.4043 42.9597 76.2744 43.0622 76.1304 43.1075C75.9993 43.1546 75.8598 43.1417 75.735 43.0708C75.6017 42.9746 75.49 42.8342 75.4109 42.6637C75.2948 42.482 75.2365 42.2487 75.248 42.0121C75.2781 41.7558 75.384 41.5254 75.5427 41.3708C75.6574 41.2663 75.7926 41.2076 75.9322 41.2018C76.0717 41.196 76.2095 41.2434 76.329 41.3382C76.4493 41.428 76.5461 41.5636 76.6065 41.7271C76.6697 41.9035 76.6944 42.0994 76.6779 42.2931Z" fill="#9F2420"/>
<path d="M76.5017 45.8888C76.3427 45.703 76.1413 45.5915 75.929 45.5716C75.7166 45.5517 75.5052 45.6246 75.3277 45.7789C75.1532 45.9495 75.0369 46.2033 75.0038 46.4856C74.9707 46.7679 75.0236 47.056 75.1509 47.2875C75.3681 47.7395 75.6829 48.1915 76.1264 48.1589C76.3083 48.1485 76.4829 48.0613 76.624 47.9101C76.7651 47.759 76.8653 47.552 76.9095 47.3201C76.9502 47.0553 76.9335 46.7809 76.8615 46.5279C76.7894 46.275 76.6647 46.0536 76.5017 45.8888ZM76.6785 46.9944C76.6626 47.1878 76.6014 47.3699 76.5033 47.5158C76.4053 47.6616 76.2752 47.764 76.131 47.8087C75.9999 47.8558 75.8604 47.8429 75.7356 47.7721C75.602 47.6764 75.4902 47.5359 75.4115 47.3649C75.2953 47.1842 75.2369 46.9514 75.2486 46.7154C75.2787 46.4585 75.3845 46.2274 75.5433 46.0721C75.6581 45.968 75.7933 45.9096 75.9328 45.9038C76.0722 45.898 76.21 45.9451 76.3296 46.0395C76.45 46.13 76.5468 46.2663 76.6071 46.4304C76.6702 46.6061 76.6949 46.8013 76.6785 46.9944Z" fill="#9F2420"/>
<path d="M76.5011 50.587C76.3418 50.4018 76.1405 50.2907 75.9283 50.2708C75.7161 50.2509 75.5048 50.3234 75.3271 50.4771C75.153 50.648 75.0369 50.9018 75.0038 51.1839C74.9707 51.4661 75.0234 51.754 75.1503 51.9857C75.3675 52.4397 75.6823 52.8917 76.1258 52.8591C76.3076 52.8481 76.4819 52.7606 76.6229 52.6096C76.7639 52.4585 76.8642 52.2519 76.9089 52.0203C76.9497 51.7552 76.9331 51.4805 76.861 51.2271C76.789 50.9738 76.6643 50.752 76.5011 50.587ZM76.6779 51.6946C76.6615 51.8878 76.6002 52.0696 76.5022 52.2154C76.4043 52.3611 76.2744 52.4636 76.1304 52.5089C75.9993 52.556 75.8598 52.5431 75.735 52.4723C75.6017 52.376 75.49 52.2356 75.4109 52.0651C75.2948 51.8835 75.2365 51.6502 75.248 51.4136C75.2781 51.1572 75.384 50.9268 75.5427 50.7723C75.6574 50.6677 75.7926 50.609 75.9322 50.6032C76.0717 50.5975 76.2095 50.6449 76.329 50.7397C76.4493 50.8294 76.5461 50.9651 76.6065 51.1286C76.6695 51.305 76.6942 51.5009 76.6779 51.6946Z" fill="#9F2420"/>
</svg>
