<svg width="42" height="42" viewBox="0 0 42 42" fill="none" xmlns="http://www.w3.org/2000/svg">
<rect width="41.7942" height="41.7942" rx="20.8971" fill="#9F2420"/>
<path d="M16.3311 9.5918H26.0914C29.8097 9.5918 32.8307 12.6129 32.8307 16.3311V26.0914C32.8307 27.8788 32.1207 29.593 30.8568 30.8568C29.593 32.1207 27.8788 32.8307 26.0914 32.8307H16.3311C12.6129 32.8307 9.5918 29.8097 9.5918 26.0914V16.3311C9.5918 14.5437 10.3018 12.8295 11.5657 11.5657C12.8295 10.3018 14.5437 9.5918 16.3311 9.5918ZM16.0987 11.9157C14.9893 11.9157 13.9253 12.3564 13.1409 13.1409C12.3564 13.9253 11.9157 14.9893 11.9157 16.0987V26.3238C11.9157 28.6361 13.7864 30.5068 16.0987 30.5068H26.3238C27.4332 30.5068 28.4972 30.0661 29.2817 29.2817C30.0661 28.4972 30.5068 27.4332 30.5068 26.3238V16.0987C30.5068 13.7864 28.6361 11.9157 26.3238 11.9157H16.0987ZM27.3115 13.6586C27.6967 13.6586 28.0661 13.8116 28.3385 14.084C28.6109 14.3564 28.7639 14.7258 28.7639 15.111C28.7639 15.4962 28.6109 15.8657 28.3385 16.1381C28.0661 16.4104 27.6967 16.5635 27.3115 16.5635C26.9263 16.5635 26.5568 16.4104 26.2844 16.1381C26.0121 15.8657 25.859 15.4962 25.859 15.111C25.859 14.7258 26.0121 14.3564 26.2844 14.084C26.5568 13.8116 26.9263 13.6586 27.3115 13.6586ZM21.2113 15.4015C22.7521 15.4015 24.2298 16.0136 25.3194 17.1032C26.4089 18.1927 27.021 19.6704 27.021 21.2113C27.021 22.7521 26.4089 24.2298 25.3194 25.3194C24.2298 26.4089 22.7521 27.021 21.2113 27.021C19.6704 27.021 18.1927 26.4089 17.1032 25.3194C16.0136 24.2298 15.4015 22.7521 15.4015 21.2113C15.4015 19.6704 16.0136 18.1927 17.1032 17.1032C18.1927 16.0136 19.6704 15.4015 21.2113 15.4015ZM21.2113 17.7254C20.2868 17.7254 19.4001 18.0927 18.7464 18.7464C18.0927 19.4001 17.7254 20.2868 17.7254 21.2113C17.7254 22.1358 18.0927 23.0224 18.7464 23.6761C19.4001 24.3298 20.2868 24.6971 21.2113 24.6971C22.1358 24.6971 23.0224 24.3298 23.6761 23.6761C24.3298 23.0224 24.6971 22.1358 24.6971 21.2113C24.6971 20.2868 24.3298 19.4001 23.6761 18.7464C23.0224 18.0927 22.1358 17.7254 21.2113 17.7254Z" fill="white"/>
</svg>
