<svg width="255" height="154" viewBox="0 0 255 154" fill="none" xmlns="http://www.w3.org/2000/svg">
<path d="M253.557 82.2368C252.787 82.0451 251.762 82.3659 250.966 82.4451L247.578 82.7867C245.482 82.9992 243.383 83.2033 241.284 83.4241C237.318 83.8407 233.353 84.374 229.477 85.453C216.189 89.1401 204.67 98.239 194.548 108.367C196.176 105.173 197.659 101.889 198.991 98.5265C201.515 92.0931 203.619 85.461 205.285 78.683C207.177 71.1173 208.81 63.3682 209.243 55.4983C209.48 51.4269 209.328 47.3387 208.787 43.304C208.576 41.7667 208.484 39.7253 207.24 38.7213C206.129 37.8339 204.807 38.4796 203.645 38.892C198.693 40.6328 193.824 42.6589 189.057 44.9622C189.093 44.2138 189.085 43.4636 189.031 42.7166C188.94 41.1603 188.684 39.6218 188.269 38.1338C187.364 35.0723 185.996 32.2097 184.226 29.6723C183.678 28.8641 182.941 27.7559 181.904 28.1309C181.256 28.3683 180.553 29.0516 179.968 29.4515C179.383 29.8515 178.694 30.3139 178.054 30.7389C175.462 32.4581 172.839 34.1162 170.186 35.7132C169.924 34.8217 169.645 33.9343 169.349 33.0511C168.335 30.0223 167.128 26.7435 164.947 24.5396C164.472 24.0266 163.925 23.6045 163.329 23.2898C162.448 22.8732 161.874 23.169 161.085 23.7064C159.497 24.7688 157.879 25.7895 156.294 26.8477C154.592 27.9625 152.958 29.2039 151.404 30.5639C150.478 31.3971 149.315 32.3762 148.679 33.5969C147.018 29.1171 145.119 24.7542 142.992 20.5318C141.189 16.8986 139.211 13.3785 137.068 9.98721C135.987 8.28741 134.846 6.62095 133.687 4.98781C132.636 3.53382 131.329 2.18816 130.355 0.667507C130.148 0.334214 129.485 -0.278216 129.104 0.142566C120.067 10.2176 112.894 22.2083 108 35.4216L107.8 35.9715C107.5 35.5174 107.171 35.1008 106.886 34.7217C105.835 33.3582 104.677 32.1034 103.427 30.9722C101.822 29.5554 100.138 28.2557 98.3847 27.081C97.5702 26.5185 96.7446 25.9644 95.9226 25.4145C95.0739 24.7572 94.1925 24.1549 93.2828 23.6106C91.8277 22.869 90.3801 24.4438 89.5063 25.5937C88.4899 27.0172 87.6527 28.5915 87.0182 30.2723C86.2453 32.1641 85.5667 34.103 84.9856 36.0799C82.2952 34.3967 79.6368 32.647 77.0106 30.8305C75.7628 29.9681 74.5077 28.7933 73.1712 28.1309C72.0234 27.5643 71.4125 28.81 70.8053 29.714C69.0484 32.2385 67.7307 35.1135 66.9214 38.188C66.3957 40.3502 65.9625 43.1874 66.4698 45.5246C63.6806 43.9831 60.8421 42.5555 57.9542 41.2417C55.2329 39.9919 52.3672 38.5504 49.4978 37.8005C48.0169 37.4172 47.2764 38.2171 46.9654 39.7878C46.5788 41.7412 46.3006 43.7198 46.1323 45.712C45.3918 54.1527 46.5026 62.6308 48.1501 70.859C49.5284 77.8885 51.3168 84.8083 53.5038 91.5732C55.5864 98.0023 58.1722 104.211 61.2308 110.125C52.0821 100.322 41.8745 91.3773 29.986 86.3779C22.5812 83.2533 14.8394 82.3826 7.03097 81.4369L3.85796 81.0536C2.90273 80.937 1.63652 80.5203 0.688702 80.6661C0.040777 80.7703 -0.018498 81.3869 0.00371656 82.0285C0.0777652 84.1615 0.777564 86.3529 1.34033 88.3694C3.19155 95.0352 6.32379 101.372 9.70041 107.188C13.7256 114.141 18.5218 120.489 23.9732 126.077C29.4119 131.696 35.6348 136.271 42.3928 139.617C49.7977 143.209 57.7172 144.883 65.6034 146.454C80.017 149.32 94.6749 150.758 109.266 151.87C110.181 151.941 111.091 151.999 112.006 152.066C114.367 152.457 116.751 152.645 119.137 152.628C120.592 152.937 122.062 153.154 123.539 153.278C128.513 153.592 133.5 153.098 138.349 151.812C139.522 151.633 140.696 151.499 141.862 151.333C156.002 150.649 170.171 149.579 184.196 147.412C191.841 146.233 199.613 144.942 206.996 142.359C214.045 139.846 220.653 135.972 226.522 130.91C232.347 125.872 237.542 119.972 241.965 113.37C246.352 106.9 250.177 99.7555 252.821 92.1605C253.424 90.407 253.927 88.6119 254.327 86.7862C254.631 85.4989 255.39 82.6534 253.557 82.2368ZM212.908 106.88C216.903 106.617 220.913 106.342 224.852 105.488C226.803 105.075 228.72 104.481 230.584 103.713C232.473 102.881 234.315 101.92 236.1 100.835C237.211 100.189 238.3 99.5347 239.396 98.8847C237.791 100.273 236.137 101.566 234.434 102.763C231.483 104.849 228.397 106.681 225.2 108.242C223.389 109.125 221.547 109.92 219.676 110.625C219.236 110.792 219.887 111.725 220.284 111.579C226.958 109.064 233.25 105.411 238.94 100.747L239.158 100.568C238.851 100.984 238.544 101.401 238.226 101.776C236.769 103.564 235.166 105.195 233.438 106.646C231.709 108.121 229.899 109.463 228.066 110.767C226.074 112.183 224.067 113.583 222.064 114.987L215.059 119.907C214.856 120.053 214.922 120.324 215.059 120.52C215.196 120.715 215.481 121.003 215.681 120.861C219.821 117.953 223.959 115.047 228.096 112.141C231.743 109.563 235.389 106.867 238.392 103.355C239.525 102.026 240.517 100.543 241.628 99.1889C241.191 99.9179 240.728 100.635 240.254 101.339C238.996 103.218 237.7 105.063 236.408 106.913C233.816 110.629 231.154 114.304 228.307 117.787C225.517 121.26 222.474 124.466 219.21 127.369C215.925 130.219 212.399 132.7 208.684 134.776C201.635 138.667 194.168 141.514 186.469 143.246C180.097 144.737 173.618 145.671 167.168 146.579C165.525 146.812 163.881 147.037 162.237 147.254C164.569 146.575 166.872 145.758 169.134 144.846C175.406 142.313 181.412 139.038 187.458 135.905C190.89 134.126 194.341 132.389 197.865 130.848C198.306 130.656 197.647 129.727 197.258 129.893C191.001 132.626 184.985 135.984 178.872 139.092C173.222 141.967 167.454 144.633 161.433 146.358C162.692 145.908 163.94 145.422 165.177 144.9C169.46 143.052 173.654 140.954 177.743 138.613C180.046 137.322 182.326 135.993 184.611 134.66C185.04 134.405 184.366 133.493 184.003 133.706C179.957 136.068 175.906 138.426 171.759 140.563C167.643 142.714 163.392 144.524 159.042 145.979C158.301 146.221 157.561 146.447 156.82 146.658C164.295 143.022 171.229 138.116 177.38 132.11C180.7 128.89 183.762 125.346 186.528 121.52C192.719 115.716 199.302 110.371 206.488 106.251C210.346 104.001 214.406 102.219 218.599 100.935C220.649 100.321 222.735 99.8696 224.841 99.5847C226.933 99.3097 229.036 99.2514 231.135 99.1681C233.249 99.1388 235.36 98.9677 237.455 98.6556L236.186 99.4097C234.405 100.464 232.613 101.493 230.747 102.359C227.044 104.026 223.123 104.859 219.18 105.276C216.959 105.53 214.704 105.692 212.464 105.826C211.942 105.905 212.508 106.884 212.908 106.859V106.88ZM136.668 150.245C137.552 149.442 138.333 148.506 138.989 147.462C141.018 144.204 141.725 140.105 141.699 136.184C141.644 127.181 137.856 119.182 134.135 111.471C131.877 106.792 129.607 102.114 127.571 97.3058C127.451 97.0737 127.281 96.8797 127.076 96.742C126.872 96.6042 126.639 96.5273 126.401 96.5184C126.347 96.4876 126.287 96.4696 126.226 96.4653C126.166 96.4611 126.105 96.4708 126.047 96.4937C125.99 96.5167 125.937 96.5525 125.892 96.5989C125.847 96.6454 125.811 96.7016 125.786 96.7642C122.565 104.83 116.901 111.083 112.535 118.337C108.437 125.173 105.36 133.685 107.689 141.955C108.369 144.524 109.588 146.872 111.243 148.8C110.291 148.458 109.344 148.09 108.403 147.695C102.531 145.225 96.2262 141.838 94.5231 134.41C93.0051 127.781 94.3639 120.661 97.6405 114.991C98.5913 113.347 99.6839 111.812 100.902 110.408C101.08 110.408 101.206 110.308 101.217 110.046C104.075 106.838 107.511 104.334 111.128 102.172C113.994 100.468 116.919 98.8931 119.711 97.0433C122.117 95.4519 124.698 93.6312 126.527 91.2107C126.846 90.7937 127.129 90.343 127.371 89.865C128.16 91.6273 129.43 93.1396 130.751 94.4478C133.084 96.7642 135.702 98.6639 138.334 100.514C143.617 104.213 148.99 107.75 152.736 113.504C156.391 119.116 158.209 126.123 157.098 133.047C156.509 136.726 155.173 140.067 152.725 142.629C150.482 145 147.671 146.5 144.802 147.658C142.317 148.667 139.776 149.498 137.197 150.145L136.668 150.245ZM15.7317 101.401C17.1815 103.227 18.7765 104.901 20.4967 106.401C22.1998 107.904 23.9881 109.279 25.7986 110.621C27.7646 112.079 29.7491 113.512 31.7225 114.958L38.6904 120.049C38.8459 120.166 39.1273 120.29 39.231 120.049C39.3347 119.807 39.0866 119.47 38.9274 119.353C34.8473 116.37 30.7746 113.389 26.7094 110.408C23.1143 107.767 19.523 104.992 16.6017 101.43C15.6687 100.289 14.832 99.0514 13.9397 97.8724C15.7483 99.5257 17.6303 101.075 19.5785 102.513C22.545 104.7 25.6554 106.629 28.8827 108.284C30.7117 109.217 32.5716 110.06 34.4623 110.812C34.6881 110.904 34.8325 110.679 34.7807 110.454C34.7431 110.312 34.6747 110.183 34.5816 110.078C34.4885 109.974 34.3737 109.897 34.2475 109.854C27.7316 107.245 21.6077 103.531 16.0871 98.8431C15.1541 98.0557 14.2359 97.2349 13.3547 96.3934L18.0457 99.3097C19.8238 100.452 21.6541 101.488 23.529 102.414C27.2314 104.163 31.1819 105.042 35.1546 105.58C37.4057 105.884 39.6642 106.08 41.9264 106.271C42.1781 106.271 42.1744 105.951 42.1004 105.771C42.0472 105.638 41.9637 105.523 41.8584 105.437C41.7532 105.352 41.6298 105.299 41.5006 105.284C37.5649 104.946 33.6144 104.605 29.7454 103.68C27.8189 103.232 25.929 102.603 24.0955 101.801C22.237 100.934 20.4269 99.9401 18.6751 98.8264L16.2611 97.3349C18.1582 97.7741 20.0834 98.043 22.0184 98.139C24.1066 98.2807 26.2021 98.3307 28.2866 98.5556C30.4083 98.7805 32.5122 99.183 34.5807 99.7597C43.0963 102.105 50.8973 106.984 57.9912 112.654C61.6048 115.541 65.0592 118.67 68.3988 121.944C69.8797 124.019 71.4557 126.019 73.1267 127.944C80.3983 136.334 89.4174 143.458 99.1993 147.941C95.6556 147.027 92.1808 145.802 88.8066 144.279C84.5828 142.353 80.4503 140.182 76.4256 137.776C74.1523 136.443 71.8938 135.068 69.6391 133.693C69.4576 133.585 69.2133 133.626 69.1947 133.889C69.1762 134.151 69.4317 134.443 69.6317 134.564C73.6562 137.018 77.6882 139.467 81.8164 141.692C85.9339 143.957 90.1932 145.88 94.5601 147.446L95.2414 147.675C91.6907 146.796 88.2052 145.612 84.8153 144.133C78.6175 141.475 72.6973 138.101 66.7327 134.86C63.3412 133.018 59.9313 131.222 56.4473 129.619C56.2622 129.531 56.0252 129.531 56.003 129.814C56.0169 129.959 56.0642 130.097 56.1402 130.215C56.2162 130.332 56.3182 130.426 56.4362 130.485C62.6896 133.364 68.6875 136.863 74.7891 140.113C80.5575 143.184 86.4629 146.033 92.6497 147.875L88.9473 147.308C82.3162 146.266 75.674 145.187 69.1133 143.671C61.8208 142.032 54.7242 139.437 47.9687 135.939C44.2341 133.991 40.6661 131.662 37.3094 128.981C33.9239 126.215 30.7799 123.093 27.9201 119.657C25.0396 116.237 22.3849 112.575 19.8228 108.867C18.5307 106.992 17.2645 105.117 16.0019 103.205C14.7394 101.293 13.4621 99.4555 12.3698 97.4433C12.1921 97.1183 12.0218 96.785 11.8589 96.4475C13.314 97.8765 14.4432 99.7346 15.7317 101.401ZM72.8083 71.763C72.7713 71.6207 72.7031 71.4912 72.61 71.3864C72.5168 71.2815 72.4017 71.2047 72.2752 71.1631C69.4984 70.0966 67.6175 67.1511 65.9181 64.6264C63.9521 61.6997 62.1493 58.6386 60.52 55.4609C60.2053 54.8484 59.9017 54.211 59.6018 53.6111C62.115 57.7367 65.5006 61.094 69.4539 63.3807C69.6391 63.4849 69.8797 63.4516 69.8982 63.1849C69.9167 62.9183 69.665 62.6267 69.4651 62.51C65.5097 60.2086 62.1637 56.7741 59.7647 52.5529C59.487 52.0654 59.2278 51.5655 58.976 51.0572C61.5141 53.611 64.2825 55.859 67.2362 57.7648C67.4176 57.8814 67.6619 57.8273 67.6805 57.569C67.699 57.3107 67.4435 57.0232 67.2473 56.894C64.0978 54.8601 61.1714 52.4173 58.5281 49.6157C59.275 49.8737 60.0029 50.1969 60.7051 50.5823C61.7825 51.1364 62.8784 51.6405 63.9743 52.1488L70.4869 55.1818C74.6706 57.1315 78.847 59.1688 82.7049 61.8476C85.25 63.6739 87.6362 65.7663 89.8321 68.0969C92.4145 70.7632 94.8667 73.585 97.1777 76.55C98.9742 78.7712 100.61 81.1508 102.069 83.6658C98.8252 79.8974 95.3446 76.3971 91.6537 73.1921C87.2774 69.38 82.5383 65.8096 77.3475 63.5641C76.9958 63.4141 76.607 63.3932 76.5441 63.9182C76.1739 67.6677 75.5074 71.3673 75.1298 75.1127C74.2449 83.8616 74.978 93.1021 76.4997 101.726C77.3649 106.634 78.5567 111.463 80.0651 116.17C79.7812 115.537 79.4986 114.902 79.2172 114.266C76.9958 109.267 74.952 104.209 72.9897 99.093C71.0608 94.0687 69.2318 88.9943 67.4657 83.8907C65.6145 78.5539 63.8818 73.1837 62.3452 67.7177C61.564 64.9347 60.831 62.1309 60.1238 59.3271C59.5536 57.1148 58.8613 54.9359 58.4059 52.6903C59.5783 55.1734 60.8495 57.5925 62.2194 59.9478C63.1475 61.5476 64.1237 63.1127 65.148 64.6431C66.0902 66.1092 67.1116 67.5089 68.2062 68.8342C69.3863 70.2903 70.8589 71.4074 72.501 72.0922C72.7158 72.1922 72.8528 71.9755 72.8083 71.7464V71.763ZM88.6992 61.4768C88.2506 59.7163 88.0299 57.8922 88.0438 56.0608C88.0443 53.8821 88.2028 51.7071 88.5178 49.5574C89.0694 45.5704 89.6655 41.5209 91.0539 37.7755C91.4549 36.6917 91.9341 35.6467 92.4867 34.6509C91.887 37.7505 91.8906 40.9959 91.9129 44.1581C91.9267 44.3027 91.9741 44.4407 92.0501 44.5584C92.1261 44.6761 92.2281 44.7693 92.3461 44.8288C92.5164 44.9205 92.7941 44.9205 92.7904 44.633C92.7904 41.8917 92.7645 39.092 93.1606 36.384C93.0913 39.5192 93.3951 42.6508 94.064 45.6954C94.3528 47.0244 94.7045 48.3326 95.1081 49.6199C95.1462 49.7615 95.2149 49.8904 95.3079 49.995C95.4009 50.0997 95.5154 50.1769 95.6412 50.2198C95.8449 50.2698 96.0411 50.1157 95.9596 49.8616C94.5352 45.4619 93.8863 40.7921 94.0492 36.1132C94.0714 35.6216 94.1047 35.13 94.1491 34.6384C94.4019 35.609 94.7149 36.5584 95.0859 37.4797C95.8263 39.3795 96.7668 41.1834 97.5998 43.0374C97.6525 43.1715 97.7357 43.2875 97.841 43.3738C97.9464 43.4601 98.07 43.5136 98.1996 43.529C98.444 43.529 98.4662 43.2332 98.3736 43.029C96.8593 39.6961 95.0674 36.4132 94.5453 32.6553C97.933 35.0508 101.18 37.8422 103.801 41.2334C104.381 41.9784 104.918 42.7647 105.408 43.5873C104.3 47.7527 103.426 51.9925 102.791 56.2816C101.791 62.8974 101.232 69.6508 101.624 76.3625C97.8484 70.8423 93.509 65.8405 88.6955 61.4601L88.6992 61.4768ZM85.6595 126.977C78.5804 111.758 75.2372 93.4646 76.6848 76.3458C76.9921 72.7046 77.6548 69.1092 78.0547 65.4805C82.8271 67.6761 87.1738 70.9756 91.2316 74.5127C95.4297 78.1538 99.3404 82.1961 102.92 86.5946C103.968 91.9807 105.271 97.3001 106.823 102.53L106.575 102.697C105.08 97.4368 102.619 92.5893 99.3511 88.4693C96.1573 84.4596 92.5102 80.9384 88.5029 77.9956C86.5443 76.5166 84.5228 75.1418 82.468 73.8294C82.3569 73.7586 82.0977 73.7212 82.0422 73.9211C80.6834 80.3704 80.9315 87.0862 81.5683 93.6229C82.1183 99.906 83.0686 106.137 84.4118 112.266C85.0819 115.22 85.8594 118.141 86.7147 121.015C87.5271 123.909 88.5168 126.737 89.6766 129.477C90.8751 132.182 92.2268 134.799 93.7234 137.309C93.9418 137.809 94.1602 138.313 94.3861 138.809C95.9226 142.221 99.0104 144.708 101.839 146.658C100.965 146.15 100.106 145.604 99.277 144.992C93.2939 140.705 88.9213 133.976 85.6595 126.961V126.977ZM101.025 107.288C100.632 103.867 99.6472 100.797 97.5591 97.9807C94.5194 93.8812 90.2061 91.2149 87.3737 86.9279C87.0923 86.5113 86.1223 85.8197 86.0112 86.7363C85.2041 93.3479 84.8412 100.068 85.4966 106.734C86.1213 112.541 87.2599 118.263 88.8954 123.815C89.6581 126.473 90.5282 129.119 91.4871 131.731L91.1983 131.135C88.6992 125.836 87.0701 120.074 85.6743 114.3C84.2922 108.44 83.2912 102.475 82.679 96.4517C81.9904 90.0192 81.5128 83.4116 82.468 76.9791C82.568 76.3083 82.6901 75.6459 82.8382 74.9835C86.4234 77.2412 89.8396 79.8231 93.0532 82.7034C96.7557 86.0905 100.088 90.0483 102.587 94.6478C104.037 97.3216 105.158 100.204 105.919 103.218C104.192 104.417 102.556 105.773 101.025 107.271V107.288ZM87.4255 89.0276C89.9506 92.1481 93.1495 94.4436 95.7078 97.5683C97.007 99.0493 98.037 100.801 98.7402 102.726C99.3807 104.659 99.5473 106.742 99.625 108.792C98.7116 109.834 97.8653 110.948 97.0926 112.125C93.679 117.395 91.8721 123.79 92.4349 130.327C89.8742 123.322 88.1079 115.981 87.1775 108.479C86.4333 102.018 86.7035 95.4602 87.4255 89.011V89.0276ZM129.67 13.4951L130.081 14.42C130.4 15.1338 130.714 15.849 131.025 16.5656C131.647 17.9932 132.264 19.4277 132.877 20.8692C134.095 23.7855 135.272 26.731 136.431 29.6807C138.708 35.5133 140.955 41.3459 142.818 47.3327C144.732 53.2958 146.108 59.461 146.924 65.7346C147.649 71.4833 147.627 77.3203 146.857 83.0617C146.117 88.6798 144.433 94.0879 141.896 98.9972C141.577 99.6055 141.242 100.201 140.889 100.785C139.748 100.014 138.604 99.2389 137.479 98.4432C139.97 95.6393 140.489 90.9024 141.066 87.1945C141.857 82.1551 142.157 77.0339 141.962 71.9214C141.592 61.7101 138.952 52.0363 135.75 42.5458C133.881 36.9909 131.844 31.5179 129.637 26.1269C129.474 25.7103 128.448 24.7146 128.182 25.5228C127.493 27.6059 126.442 29.5474 125.657 31.5763C124.831 33.7135 124.061 35.8841 123.272 38.0422C121.525 42.8416 119.626 47.5619 118.137 52.4738C114.339 64.7224 113.543 77.8965 115.834 90.6107C116.119 92.5207 116.768 94.3386 117.737 95.9393C116.493 96.735 115.223 97.4808 113.95 98.214C111.643 93.556 110.136 88.4511 109.507 83.1658C108.858 77.4859 108.965 71.7289 109.825 66.0846C110.742 60.091 112.208 54.2203 114.198 48.5659C116.145 42.8624 118.47 37.3172 120.899 31.8679C123.439 26.1547 126.115 20.5221 128.926 14.97L129.67 13.4951ZM126.675 86.1738L126.623 86.2279C126.572 86.2853 126.533 86.3558 126.512 86.4334C126.49 86.511 126.485 86.5935 126.497 86.6737C126.201 88.9318 124.576 90.7358 122.85 92.1981C122.277 91.7815 121.966 90.8399 121.74 90.1858C121.293 88.8067 120.991 87.3736 120.84 85.9155C120.563 82.8876 120.721 79.8292 121.31 76.8582C121.925 73.7852 122.691 70.7531 123.606 67.776C124.457 64.8597 125.342 61.9434 126.305 59.0271C127.267 56.1108 128.3 53.282 129.426 50.474C130.944 55.9525 132.255 61.506 133.291 67.1386C134.402 73.1462 135.513 79.4954 134.38 85.603C134.09 87.1984 133.626 88.7475 132.999 90.215C132.735 90.8981 132.383 91.534 131.955 92.1023C131.68 92.4746 131.31 92.7435 130.896 92.873C130.711 92.673 130.526 92.4563 130.344 92.2647C129.17 90.9024 128.208 89.3192 128.123 87.3695C128.123 86.7695 127.23 85.5697 126.675 86.1572V86.1738ZM133.339 91.9856C134 90.7127 134.513 89.3506 134.868 87.9319C135.594 84.9766 135.872 81.9048 135.69 78.8455C135.485 75.5589 135.073 72.2928 134.458 69.0717C133.91 65.9221 133.278 62.7905 132.562 59.677C131.755 56.1524 130.848 52.6612 129.863 49.1949C129.785 48.9283 129.215 48.2367 129.011 48.7325C126.652 54.6047 124.598 60.6267 122.862 66.7678C121.095 72.8463 119.27 79.1871 119.992 85.6655C120.176 87.3945 120.567 89.0875 121.155 90.6983C121.413 91.4319 121.805 92.0962 122.306 92.648C121.677 93.1479 121.051 93.6104 120.488 94.027C119.925 94.4436 119.322 94.8603 118.726 95.2769C117.8 93.7937 117.474 91.8814 117.197 90.1275C116.827 87.8111 116.519 85.4822 116.338 83.1325C115.959 78.2515 116.035 73.3393 116.564 68.4759C117.648 58.4771 121.036 49.4616 124.42 40.2544C125.22 38.0755 125.994 35.8883 126.816 33.7177C125.893 37.0006 124.972 40.2849 124.054 43.5706L122.81 48.0076C122.684 48.4534 123.517 49.1908 123.658 48.6908C125.139 43.4137 126.619 38.1366 128.1 32.8594C128.347 31.9873 128.594 31.118 128.841 30.2514C129.414 33.4611 129.679 36.731 129.63 40.0044C129.643 40.149 129.691 40.287 129.767 40.4047C129.843 40.5224 129.945 40.6156 130.063 40.6752C130.24 40.771 130.503 40.7627 130.507 40.4794C130.562 36.6136 130.189 32.7551 129.396 28.9932C132.658 37.1714 135.69 45.5621 137.86 54.1694C140.336 63.7308 141.015 73.7679 139.852 83.6408C139.539 86.2063 139.099 88.7503 138.534 91.2607C138.064 93.3438 137.423 95.4893 136.02 97.0225C135.954 97.0938 135.909 97.1873 135.894 97.2891C134.437 96.211 133.048 95.0208 131.736 93.727C132.426 93.3521 132.989 92.7351 133.339 91.9689V91.9856ZM157.835 42.9332C159.149 40.1419 160.463 37.2964 161.278 34.2759C161.479 37.9154 161.186 41.5681 160.408 45.108C160.115 46.428 159.757 47.7285 159.334 49.0033C159.19 49.4199 160.019 50.1823 160.182 49.6866C161.7 45.0923 162.381 40.2015 162.185 35.305C162.185 34.8884 162.141 34.4718 162.115 34.0885C162.737 37.2589 162.663 40.6002 162.589 43.8248C162.602 43.9706 162.65 44.1097 162.726 44.2282C162.803 44.3467 162.906 44.4404 163.025 44.4997C163.199 44.5914 163.462 44.5872 163.47 44.3039C163.559 40.2419 163.61 36.084 162.429 32.222C164.081 34.93 165.021 38.1505 165.621 41.3501C165.991 43.3457 166.272 45.3621 166.521 47.3827C166.805 49.4815 166.954 51.6006 166.969 53.7236C166.998 55.8889 166.711 58.045 166.121 60.1061C162.637 63.2184 159.423 66.6961 156.524 70.4924C156.05 71.1173 155.591 71.7422 155.136 72.3963C155.171 69.0375 155.047 65.679 154.765 62.335C154.216 55.0344 152.954 47.8239 151.004 40.8335C153.029 37.4214 155.965 34.9092 159.038 32.772C159.649 32.3553 160.267 31.9387 160.889 31.5221C160.226 35.3425 158.579 38.8587 156.976 42.2749C156.798 42.6582 157.609 43.404 157.835 42.9166V42.9332ZM154.032 85.1531C154.147 84.4407 154.254 83.7241 154.351 83.0117L154.428 82.945C160.735 75.3382 168.484 69.4274 177.098 65.6513C177.413 68.7051 177.839 71.7464 178.139 74.8168C178.432 78.5286 178.464 82.2605 178.235 85.978C178.029 90.5962 177.523 95.1913 176.721 99.7263C175.264 108.022 172.838 116.065 169.505 123.644C166.391 130.664 162.252 137.559 156.654 142.392C157.882 140.869 159.013 139.25 160.038 137.547C161.557 135.122 162.937 132.591 164.17 129.968C165.359 127.38 166.383 124.698 167.231 121.944C168.116 119.141 168.942 116.316 169.66 113.454C171.076 107.67 172.129 101.781 172.811 95.831C173.585 89.4401 174.114 82.9158 173.237 76.4875C173.133 75.7375 173.011 74.996 172.867 74.2544C172.815 73.9919 172.419 73.4879 172.126 73.6587C165.472 77.7255 159.511 83.0853 154.517 89.4901C153.884 90.2983 153.273 91.1273 152.666 91.9648C153.203 89.6775 153.658 87.4236 154.032 85.1531ZM188.235 57.9398C190.793 56.3605 193.217 54.5211 195.477 52.4446C193.656 55.5453 191.331 58.2309 188.624 60.3603C187.573 61.1839 186.468 61.9164 185.318 62.5517C184.885 62.7891 185.558 63.7057 185.925 63.5016C188.994 61.7989 191.739 59.44 194.007 56.5566C193.452 57.5648 192.897 58.5647 192.286 59.5479C191.345 61.0977 190.365 62.6141 189.346 64.0973C188.415 65.4967 187.414 66.8349 186.347 68.1051C185.233 69.4893 183.835 70.545 182.274 71.1798C181.834 71.3422 182.482 72.2797 182.882 72.1338C185.821 71.0756 187.854 68.176 189.694 65.5513C191.778 62.5776 193.693 59.4594 195.429 56.215C195.785 55.5539 196.133 54.8845 196.473 54.2068C196.203 55.2192 195.899 56.2233 195.607 57.2231C194.789 59.9853 194.059 62.785 193.252 65.5555C191.653 71.059 189.868 76.4792 187.932 81.841C186.11 86.8987 184.216 91.9231 182.249 96.9142C180.227 102.005 178.109 107.05 175.862 112.016C175.754 112.25 175.647 112.479 175.543 112.712C178.95 101.146 180.4 88.9634 179.82 76.7957C179.716 74.6627 179.405 72.5338 179.168 70.4174C178.968 68.6051 178.657 66.2512 178.528 64.7222C178.476 64.114 177.824 63.1808 177.191 63.4391C170.857 66.0356 164.945 69.7835 159.69 74.5335C162.406 70.495 165.686 66.9777 169.401 64.1181C174.87 59.8103 181.053 57.0357 187.232 54.3277L192.741 51.8905C193.622 51.4989 194.489 51.0822 195.359 50.6406C195.588 50.5323 195.818 50.424 196.047 50.324C193.47 52.8772 190.652 55.1041 187.643 56.9648C187.199 57.2398 187.88 58.1564 188.235 57.9356V57.9398ZM167.372 89.2318C167.764 93.5081 167.862 97.812 167.665 102.105C167.365 107.095 166.572 112.032 165.302 116.824C164.267 120.866 162.938 124.805 161.33 128.602C160.504 130.556 159.612 132.472 158.683 134.364C159.37 129.857 159.007 125.226 157.631 120.924C156.642 117.867 155.235 115.002 153.462 112.433C153.464 112.411 153.464 112.389 153.462 112.366C153.735 107.06 155.557 102.003 158.646 97.9807C161.263 94.6769 164.688 92.4064 167.372 89.2276V89.2318ZM151.951 94.9477C156.196 88.4812 161.378 82.8646 167.28 78.3331C168.864 77.1124 170.504 75.9792 172.185 74.9293C173.185 80.8578 172.844 87.0112 172.185 92.948C171.575 98.977 170.597 104.951 169.257 110.829C168.605 113.612 167.853 116.362 167.035 119.086C166.235 121.872 165.289 124.601 164.203 127.26C163.425 129.085 162.559 130.86 161.611 132.593C161.718 132.352 161.826 132.11 161.937 131.868C165.621 123.669 168.231 114.65 169.042 105.48C169.568 99.4347 169.297 93.3437 168.672 87.3236C168.624 86.8529 167.702 85.4072 167.191 86.1321C164.269 90.3983 159.849 92.898 156.824 97.0392C154.073 100.864 152.378 105.512 151.948 110.408C150.863 109.044 149.692 107.768 148.445 106.592C149.752 102.759 150.941 98.9014 151.951 94.9436V94.9477ZM202.641 41.3709C203.338 41.1126 204.037 40.8626 204.737 40.6127C205.007 40.5168 205.529 40.2502 206 40.1294C205.882 41.1357 205.663 42.1238 205.348 43.0749C204.915 44.4622 204.408 45.8287 203.93 47.1994L200.968 55.7192C200.408 57.319 199.85 58.916 199.294 60.5102C199.143 60.9269 199.968 61.6934 200.142 61.1935C201.13 58.3355 202.128 55.4762 203.138 52.6154C204.126 49.7866 205.159 46.9744 206.1 44.1248C206.225 43.7456 206.344 43.3582 206.47 42.9707C206.337 46.6812 205.977 50.3771 205.392 54.0319C204.614 58.8945 203.449 63.6686 201.912 68.2968C201.042 70.9087 200.053 73.4686 198.95 75.9667C198.769 76.3833 199.583 77.1374 199.798 76.6499C201.765 72.1904 203.366 67.5384 204.582 62.7516C205.798 57.9669 206.628 53.0685 207.062 48.1159C207.2 46.5217 207.297 44.9205 207.351 43.3123C207.482 44.3178 207.583 45.3232 207.655 46.3287C207.793 48.3244 207.838 50.3268 207.792 52.3279C207.614 60.0895 206.125 67.7135 204.352 75.1876C202.831 81.6843 200.931 88.0613 198.665 94.277C196.155 101.165 193.016 107.741 189.298 113.9L189.154 114.054C189.083 114.132 189.038 114.235 189.028 114.345C186.089 119.136 182.732 123.582 179.005 127.619C173.924 133.1 168.215 137.794 162.029 141.575L162.737 140.88C165.554 138.047 168.25 135.047 170.845 131.96C173.44 128.873 175.932 125.648 178.25 122.286C180.575 118.93 182.714 115.415 184.655 111.762C186.585 108.133 188.267 104.343 189.687 100.426C189.861 99.943 190.031 99.4555 190.198 98.9681C190.364 98.4807 189.52 97.7849 189.35 98.2848C188.009 102.22 186.399 106.032 184.537 109.688C182.675 113.333 180.609 116.842 178.35 120.19C176.077 123.578 173.637 126.815 171.078 129.927C168.52 133.039 165.862 136.005 163.111 138.876C162.392 139.621 161.659 140.371 160.889 141.088C164.366 137.338 167.183 132.781 169.545 128.077C170.533 126.091 171.451 124.061 172.3 121.986C173.547 119.486 174.754 116.976 175.921 114.454C178.205 109.504 180.364 104.455 182.393 99.3931C184.407 94.3937 186.336 89.3387 188.18 84.2282C190.116 78.8997 191.949 73.5337 193.578 68.0718C194.407 65.2805 195.181 62.4642 195.966 59.652C196.706 56.9565 197.632 54.3068 198.058 51.5113C198.099 51.253 198.128 50.9906 198.158 50.7281L198.224 50.5865C198.247 50.5353 198.259 50.479 198.259 50.4219C198.259 50.3648 198.247 50.3085 198.224 50.2573C198.247 49.999 198.265 49.7449 198.28 49.4866C198.263 49.3129 198.199 49.1494 198.095 49.0193C197.991 48.8892 197.854 48.7991 197.702 48.7617C197.647 48.7179 197.579 48.6976 197.511 48.7045C197.443 48.7113 197.38 48.7449 197.332 48.7992C195.773 49.0783 194.37 49.9491 192.915 50.5948C191.254 51.3364 189.59 52.0738 187.924 52.807C184.729 54.2235 181.515 55.5942 178.379 57.169C172.581 60.0853 167.102 63.889 162.585 68.9592C160.376 71.4226 158.464 74.2016 156.898 77.2249C156.18 77.9498 155.48 78.6997 154.791 79.4621C154.899 78.3247 154.976 77.1874 155.039 76.0459C155.06 76.0272 155.078 76.0062 155.095 75.9834C159.538 69.2134 165.003 63.4849 171.056 58.6063C171.124 58.6012 171.189 58.5751 171.245 58.531C171.3 58.4869 171.344 58.4265 171.371 58.3564C174.814 55.6314 178.415 53.1665 182.149 50.9781C187.426 47.8981 192.885 45.2296 198.487 42.9916C199.857 42.4277 201.242 41.8861 202.641 41.3668V41.3709ZM172.063 45.0121C171.984 44.2456 171.887 43.4846 171.771 42.7291C172.397 42.1122 173.069 41.5549 173.777 41.0626C174.592 40.4503 175.362 39.7662 176.08 39.017C177.106 37.9258 178.072 36.767 178.976 35.5466C178.235 37.938 177.346 40.2961 175.895 42.2625C175.614 42.6458 176.376 43.479 176.636 43.0957C177.847 41.3606 178.795 39.4124 179.442 37.3297C179.442 40.8585 179.105 44.4372 177.269 47.3827C177.132 47.6076 177.269 47.8909 177.421 48.0618C177.572 48.2326 177.887 48.4534 178.024 48.2326C179.905 45.2079 180.338 41.4709 180.323 37.863C180.323 36.859 180.286 35.8507 180.249 34.8467C180.249 34.8467 180.275 34.8884 180.286 34.9134C180.519 35.3675 180.723 35.8508 180.927 36.3215C181.373 37.326 181.769 38.3581 182.112 39.4128C182.803 41.4435 183.07 43.6258 182.893 45.7912C182.796 46.7366 182.571 47.6597 182.226 48.5284C178.737 50.5109 175.352 52.7185 172.089 55.1401C172.622 51.8238 172.404 48.3451 172.063 45.008V45.0121ZM170.838 37.7089C173.044 36.3896 175.23 35.0273 177.395 33.6219C178.51 32.8997 179.621 32.1665 180.727 31.4221L182.286 30.3556C183.063 29.8181 182.833 29.7681 183.322 30.5055C184.812 32.6784 185.97 35.1157 186.747 37.7172C187.13 39.0625 187.371 40.4538 187.465 41.8625C187.543 43.1915 187.61 44.7788 187.043 45.9703C186.791 46.1036 186.532 46.2287 186.28 46.3578C185.37 46.8327 184.463 47.3202 183.559 47.8201C184.492 43.9581 183.222 39.7419 181.689 36.234C181.204 35.1258 180.723 33.8385 179.672 33.2802C179.568 33.2261 179.379 33.1677 179.301 33.2802C178.082 35.0033 176.764 36.6343 175.355 38.163C174.649 38.9027 173.893 39.5784 173.092 40.1836C172.581 40.5669 172.056 40.9376 171.571 41.3626C171.349 40.1377 171.078 38.9296 170.771 37.7297C170.794 37.7244 170.816 37.716 170.838 37.7047V37.7089ZM149.786 36.409C149.737 34.6801 151.404 33.3594 152.481 32.3679C153.743 31.223 155.072 30.1736 156.457 29.2266C157.783 28.2975 159.142 27.4309 160.493 26.5519C161.156 26.1352 161.815 25.677 162.478 25.2437C163.24 24.7437 163.722 25.0437 164.329 25.6603C166.18 27.5559 167.106 30.5222 167.961 33.0803C169.162 36.5364 169.996 40.1401 170.445 43.8165C170.923 48.1034 171.186 52.7279 169.901 56.8648C169.064 57.5287 168.241 58.2091 167.431 58.9063C168.113 55.465 167.879 51.7863 167.468 48.3409C166.972 44.1747 166.417 39.9877 165.028 36.0757C164.268 33.8896 163.177 31.8683 161.804 30.1014C161.707 29.9848 161.433 29.7765 161.274 29.8806C157.942 32.072 154.528 34.3134 151.911 37.5672C151.447 38.1457 151.013 38.7536 150.611 39.3878C150.337 38.4796 150.048 37.5714 149.749 36.6715C149.779 36.5886 149.792 36.4986 149.786 36.409ZM129.974 2.2465C130.618 3.07973 131.329 3.86297 131.944 4.69203C132.973 6.08075 133.96 7.50001 134.906 8.94984C136.866 11.923 138.69 15.0073 140.37 18.1904C143.634 24.327 146.389 30.7881 148.601 37.4922C150.817 44.4725 152.284 51.7259 152.97 59.0979C153.71 66.5262 153.858 74.0378 152.855 81.4452C151.744 89.6067 149.523 97.5349 146.961 105.246L146.55 104.897C145.017 103.647 143.391 102.488 141.736 101.364C144.472 96.6315 146.369 91.3492 147.323 85.8072C148.315 80.1003 148.542 74.2585 147.997 68.4759C147.365 62.0703 146.114 55.7615 144.265 49.6616C142.466 43.5373 140.244 37.5797 137.953 31.6888C135.631 25.7103 133.239 19.7652 130.629 13.9409C130.423 13.334 130.141 12.7632 129.792 12.2453C129.633 12.062 129.296 11.8662 129.145 12.162C126.262 17.7641 123.516 23.4578 120.907 29.2432C118.404 34.7926 115.99 40.4085 113.928 46.187C111.839 51.8926 110.256 57.8165 109.203 63.8724C108.214 69.5817 107.964 75.4221 108.463 81.2119C108.957 86.9025 110.429 92.4308 112.798 97.4891C112.969 97.8474 113.146 98.2015 113.328 98.5515L111.602 99.5472C110.384 100.255 109.181 100.984 108.004 101.751C106.212 95.4102 104.572 89.0026 103.705 82.4118C102.735 74.9877 103.039 67.5219 103.975 60.1186C104.847 52.9681 106.417 45.9475 108.655 39.1837C110.904 32.6622 113.725 26.4097 117.078 20.5193C120.755 13.9031 125.082 7.77357 129.978 2.2465H129.974ZM87.4181 34.6175C88.4141 31.7429 89.4804 28.5516 91.5241 26.3894C92.2239 25.652 92.8237 25.0729 93.8419 25.6103C94.6305 26.0269 95.371 26.6602 96.1189 27.1684C97.5628 28.1433 99.0067 29.1182 100.403 30.1723C102.047 31.3832 103.578 32.7791 104.971 34.3384C105.612 35.0759 107.13 36.484 107.1 37.5922C107.099 37.691 107.117 37.789 107.152 37.8797C106.616 39.4712 106.123 41.0807 105.671 42.7082C104.679 41.1867 103.564 39.7724 102.339 38.4838C100.664 36.7091 98.8732 35.0784 96.9815 33.6052C96.1262 32.9261 95.2488 32.2803 94.3565 31.6554C94.3341 31.6187 94.3093 31.5839 94.2824 31.5513L94.2269 31.4888C94.1706 31.4331 94.1084 31.3856 94.0417 31.3471C93.9955 31.3259 93.947 31.3119 93.8974 31.3055H93.8233C93.6937 31.2346 93.5345 31.1846 93.4531 31.3055C90.9613 34.3509 89.6211 38.2796 88.7843 42.2542C88.3585 44.2789 88.0438 46.3328 87.7624 48.3909C87.4294 50.568 87.2364 52.7692 87.1849 54.9776C87.1464 56.8561 87.3231 58.7325 87.7106 60.5602C86.9504 59.8798 86.184 59.2146 85.4114 58.5647C84.2303 54.711 84.4044 50.5406 84.7746 46.5411C85.1761 42.4547 86.0666 38.4481 87.4219 34.6301L87.4181 34.6175ZM73.0971 49.5199C72.4646 47.7143 72.2444 45.7591 72.4566 43.8331C72.6565 41.4834 73.4562 39.2503 74.3819 37.1672C74.641 36.5715 74.9113 35.9715 75.2038 35.3966C75.2031 35.3869 75.2031 35.3772 75.2038 35.3675C75.0483 38.7004 75.0335 42.1125 76.0813 45.2954C76.3979 46.2601 76.8155 47.179 77.3253 48.0326C77.4401 48.2243 77.7252 48.4784 77.9473 48.3742C78.1694 48.2701 78.0584 47.9285 77.9473 47.766C76.0517 44.6039 75.8851 40.721 76.0183 36.9881C76.6407 39.1241 77.574 41.129 78.7803 42.9207C78.9099 43.104 79.1506 43.3748 79.4024 43.2665C79.6541 43.1582 79.5283 42.8124 79.4024 42.6583C77.7511 40.3377 76.8958 37.5047 76.1109 34.7051C77.1423 36.1939 78.2552 37.6089 79.4431 38.942C80.1482 39.7099 80.9045 40.4161 81.7053 41.0543C82.326 41.5124 82.9253 42.006 83.5009 42.5332C82.7605 47.191 82.3532 52.4071 83.5009 57.0524C80.7611 54.8485 77.9473 52.7862 75.0557 50.8656C74.4485 50.4031 73.7784 49.9615 73.1008 49.5324L73.0971 49.5199ZM67.9137 42.9999C67.9927 41.5079 68.2416 40.0336 68.6542 38.6129C69.4698 35.9021 70.6879 33.3665 72.2567 31.1138C72.5343 30.6972 72.875 29.9514 73.3081 29.9348C73.7413 29.9181 74.6559 30.8222 75.0187 31.0805C76.1035 31.8471 77.1994 32.6053 78.2953 33.3511C80.3761 34.7592 82.4742 36.1299 84.5895 37.4631C84.2217 38.8518 83.9132 40.2544 83.6639 41.6709C83.1974 41.2543 82.6938 40.8626 82.1829 40.4794C81.3969 39.8749 80.6541 39.2021 79.9614 38.4671C78.5986 36.9385 77.3271 35.3101 76.1553 33.5927C76.0294 33.4177 75.7592 33.1344 75.5333 33.2469C74.6151 33.7135 74.1931 34.88 73.7599 35.8257C73.2236 36.9728 72.7524 38.157 72.3492 39.3711C71.5991 41.5943 71.3227 43.9843 71.5421 46.3495C71.6258 47.2136 71.7946 48.0646 72.0456 48.8866C70.7399 48.0701 69.4206 47.2785 68.0877 46.512C67.8137 45.4579 67.8804 44.0956 67.936 43.0124L67.9137 42.9999ZM56.899 97.3391C54.563 91.0433 52.6291 84.5679 51.1121 77.9623C49.3868 70.5757 47.8984 63.0266 47.5504 55.3776C47.3474 51.3509 47.5311 47.3113 48.0983 43.329C48.2047 46.7748 48.499 50.21 48.9795 53.6153C50.0835 61.3403 52.1553 68.8502 55.1329 75.9209C55.1876 76.0551 55.2729 76.1706 55.3803 76.2555C55.4876 76.3404 55.6131 76.3917 55.7438 76.4042C55.9919 76.4042 56.0067 76.1125 55.9178 75.9042C52.1595 66.9706 49.8739 57.3434 49.172 47.491C49.0437 45.6384 48.9721 43.7803 48.9573 41.9167C49.0202 42.175 49.0906 42.4333 49.1646 42.6916C49.5793 44.1039 50.068 45.4912 50.5308 46.8827C51.4836 49.7657 52.4363 52.6459 53.3891 55.5234L55.0219 60.4561C55.0746 60.5902 55.1578 60.7062 55.2631 60.7925C55.3684 60.8789 55.4921 60.9324 55.6217 60.9477C55.8808 60.9477 55.8623 60.656 55.7957 60.4477L52.9744 51.9196C52.0525 49.1408 51.0973 46.3745 50.2161 43.5873C49.7679 42.3025 49.497 40.9481 49.4127 39.5711C49.8857 39.5697 50.3538 39.6805 50.7863 39.8961C52.2043 40.4252 53.6186 40.9835 55.0182 41.5626C60.5731 43.911 65.9746 46.6953 71.1829 49.8949C81.6719 56.3358 91.6796 64.5514 99.2437 75.0585C100.121 76.275 100.962 77.529 101.769 78.808L101.824 78.883C101.946 80.1328 102.098 81.3827 102.276 82.6576C101.148 80.8096 99.9277 79.0348 98.6217 77.3415C96.2995 74.2637 93.8274 71.3332 91.2168 68.5635C89.0366 66.1657 86.6837 63.9751 84.1822 62.0142C80.4168 59.1729 76.2701 57.0148 72.1086 55.0568C69.9241 54.0194 67.7286 53.0153 65.5367 51.9905L62.0824 50.3782C61.0494 49.8991 60.0572 49.3158 59.0057 48.8866C58.5796 48.708 58.1412 48.5687 57.695 48.47C57.6092 48.4027 57.5072 48.3663 57.4025 48.3659C57.3576 48.3676 57.314 48.3835 57.2766 48.4117C57.1582 48.4117 57.0582 48.4909 57.0619 48.6575C57.0619 48.9408 57.0878 49.2241 57.11 49.4908C57.0815 49.551 57.0666 49.6183 57.0666 49.6866C57.0666 49.7549 57.0815 49.8221 57.11 49.8824L57.1397 49.949C57.3729 52.2988 58.0023 54.5818 58.6206 56.8357C59.3907 59.602 60.0794 62.3975 60.8421 65.168C62.3601 70.7507 64.0546 76.2611 65.9255 81.6993C67.6768 86.832 69.491 91.9398 71.4014 96.9975C73.3464 102.15 75.4001 107.246 77.5623 112.287C79.221 116.126 80.9672 119.914 82.8012 123.653C83.1591 124.522 83.5293 125.383 83.9119 126.236C87.17 133.426 91.513 140.43 97.3999 145.183L98.0108 145.667C95.6153 144.354 93.5049 142.396 91.5611 140.359C88.825 137.488 86.2037 134.468 83.6861 131.36C81.1684 128.252 78.7989 125.061 76.5737 121.711C74.3475 118.384 72.3061 114.906 70.461 111.296C68.607 107.662 66.9981 103.877 65.6478 99.9721C65.4825 99.4972 65.3232 99.0181 65.1702 98.5348C65.1309 98.3939 65.0619 98.2657 64.969 98.1613C64.8762 98.0568 64.7623 97.9791 64.6371 97.9349C64.4334 97.8849 64.2335 98.039 64.315 98.2973C65.6158 102.325 67.1916 106.233 69.0282 109.988C70.8638 113.734 72.9092 117.345 75.152 120.799C77.4031 124.278 79.8318 127.606 82.3791 130.798C84.9264 133.989 87.5625 137.047 90.3208 140.021C91.4723 141.271 92.6645 142.484 93.927 143.6C87.9481 140.107 82.3912 135.766 77.3919 130.685C72.7355 125.942 68.6236 120.564 65.1517 114.674C65.0869 114.469 64.9804 114.284 64.8407 114.133L64.8111 114.104C61.7365 108.8 59.0957 103.193 56.9212 97.3516L56.899 97.3391ZM50.0532 141.121C42.9899 138.866 36.3383 135.219 30.4081 130.348C19.0638 121.049 9.93737 107.763 4.39113 93.2688C3.58329 91.2308 2.91127 89.128 2.38069 86.9779C2.09918 85.9156 1.86562 84.838 1.68093 83.7491C1.62539 83.3991 1.655 82.9575 1.57354 82.6243C1.56277 82.5652 1.56277 82.5042 1.57354 82.4451C1.81112 82.4722 2.04721 82.5139 2.28072 82.5701C10.1299 83.52 18.2012 83.9782 25.8393 86.4362C39.131 90.7191 50.4679 100.46 60.357 111.017C61.5122 112.246 62.6488 113.516 63.7744 114.766C64.6284 116.216 65.5158 117.638 66.4365 119.032C60.8532 113.754 54.9293 108.896 48.5019 105.005C44.7054 102.668 40.7039 100.781 36.5615 99.3722C32.5123 98.0899 28.3404 97.3625 24.1362 97.2058C20.4782 97.01 16.5758 96.8933 13.14 95.3352L12.3439 94.8394C12.2623 94.7859 12.1657 94.7695 12.0737 94.7936C11.5693 94.5104 11.082 94.1903 10.6149 93.8354C10.3039 93.5979 9.93736 93.7354 10.1114 94.202C10.9815 96.4001 12.0709 98.4799 13.3584 100.401C14.6098 102.355 15.9131 104.272 17.2052 106.188C19.7562 109.979 22.3664 113.729 25.1655 117.295C27.9326 120.869 30.9579 124.178 34.2105 127.19C37.446 130.12 40.9266 132.69 44.6032 134.864C51.5823 139.03 59.1834 141.975 66.877 143.963C73.2526 145.604 79.7504 146.679 86.2222 147.712C88.2388 148.04 90.2579 148.355 92.2794 148.658C85.2781 147.925 78.2916 147.016 71.3422 145.854C64.2335 144.7 57.0211 143.359 50.0754 141.134L50.0532 141.121ZM125.583 151.641C121.879 151.469 118.2 150.869 114.605 149.849C114.571 149.823 114.535 149.799 114.498 149.779C107.793 146.246 107.6 135.889 109.655 129.069C111.973 121.37 116.93 115.274 121.229 108.921C123.403 105.816 125.297 102.475 126.882 98.9472C130.041 106.096 133.813 112.912 136.746 120.195C139.634 127.348 141.692 136.322 138.641 143.85C137.131 147.579 133.791 150.816 130.103 151.349C130.002 151.358 129.906 151.4 129.826 151.47C128.423 151.64 127.012 151.701 125.601 151.653L125.583 151.641ZM251.465 90.4358C249.214 97.4183 245.675 104.055 241.806 110.042C237.685 116.466 232.864 122.283 227.455 127.356C221.954 132.526 215.721 136.621 209.017 139.471C201.797 142.488 194.111 143.854 186.528 145.15C179.146 146.4 171.719 147.308 164.255 147.991L165.154 147.875C171.845 146.958 178.546 146 185.173 144.588C192.625 143.049 199.886 140.508 206.799 137.022C210.556 135.114 214.15 132.824 217.536 130.181C220.944 127.465 224.119 124.397 227.018 121.015C229.98 117.612 232.709 113.975 235.356 110.263C236.682 108.404 237.985 106.513 239.284 104.647C240.584 102.78 241.876 100.934 242.987 98.9347C243.545 97.9407 244.04 96.9035 244.468 95.831C244.631 95.4143 243.994 94.8269 243.664 95.0644C243.163 95.4295 242.64 95.7552 242.098 96.0393C242.064 96.0227 242.027 96.0141 241.989 96.0141C241.951 96.0141 241.914 96.0227 241.88 96.0393L241.084 96.51C238.122 97.7932 234.79 98.0265 231.635 98.1473C229.532 98.2265 227.426 98.2515 225.341 98.4765C223.253 98.7048 221.182 99.0974 219.143 99.6514C210.668 101.93 202.853 106.663 195.699 112.175C193.526 113.841 191.412 115.612 189.339 117.437C189.779 116.753 190.216 116.066 190.638 115.354C200.524 104.663 211.527 94.5853 224.53 89.1984C231.757 86.2071 239.262 85.4197 246.874 84.649L253.069 84.0241C253.056 84.245 253.031 84.4648 252.995 84.6823C252.607 86.6408 252.101 88.5672 251.48 90.4483L251.465 90.4358Z" fill="url(#paint0_radial_264_3369)"/>
<path d="M127.999 75.9463C125.256 75.9463 125.252 80.7457 127.999 80.7457C130.747 80.7457 130.75 75.9463 127.999 75.9463Z" fill="url(#paint1_radial_264_3369)"/>
<path d="M128.434 71.4557C131.181 71.4557 131.185 66.6562 128.434 66.6562C125.683 66.6562 125.687 71.4557 128.434 71.4557Z" fill="url(#paint2_radial_264_3369)"/>
<path d="M159.289 110.179C156.546 110.179 156.542 114.978 159.289 114.978C162.037 114.978 162.04 110.179 159.289 110.179Z" fill="url(#paint3_radial_264_3369)"/>
<path d="M161.902 100.398C159.159 100.398 159.151 105.202 161.902 105.202C164.653 105.202 164.649 100.398 161.902 100.398Z" fill="url(#paint4_radial_264_3369)"/>
<path d="M158.205 58.8229C160.949 58.8229 160.956 54.0234 158.205 54.0234C155.454 54.0234 155.458 58.8229 158.205 58.8229Z" fill="url(#paint5_radial_264_3369)"/>
<path d="M124.812 137.972C122.068 137.972 122.065 142.772 124.812 142.772C127.559 142.772 127.57 137.972 124.812 137.972Z" fill="url(#paint6_radial_264_3369)"/>
<path d="M199.49 120.857C196.746 120.857 196.742 125.656 199.49 125.656C202.237 125.656 202.241 120.857 199.49 120.857Z" fill="url(#paint7_radial_264_3369)"/>
<path d="M209.343 114.986C206.599 114.986 206.592 119.786 209.343 119.786C212.094 119.786 212.09 114.986 209.343 114.986Z" fill="url(#paint8_radial_264_3369)"/>
<path d="M93.0803 111.325C95.8275 111.325 95.8313 106.526 93.0803 106.526C90.3294 106.526 90.3331 111.325 93.0803 111.325Z" fill="url(#paint9_radial_264_3369)"/>
<path d="M90.845 102.93C93.5885 102.93 93.5922 98.1309 90.845 98.1309C88.0978 98.1309 88.0941 102.93 90.845 102.93Z" fill="url(#paint10_radial_264_3369)"/>
<path d="M96.9787 59.2765C99.7259 59.2765 99.7296 54.4771 96.9787 54.4771C94.2278 54.4771 94.25 59.2765 96.9787 59.2765Z" fill="url(#paint11_radial_264_3369)"/>
<path d="M54.6317 125.269C57.3752 125.269 57.3826 120.47 54.6317 120.47C51.8808 120.47 51.8882 125.269 54.6317 125.269Z" fill="url(#paint12_radial_264_3369)"/>
<path d="M44.8796 119.203C47.6231 119.203 47.6305 114.404 44.8796 114.404C42.1287 114.404 42.1287 119.203 44.8796 119.203Z" fill="url(#paint13_radial_264_3369)"/>
<path d="M145.113 143.983C147.031 141.717 148.978 139.321 150.052 136.389C151.211 133.218 151.033 129.677 150.052 126.477C149.071 123.278 147.338 120.357 145.506 117.641C143.62 114.863 141.622 112.18 139.511 109.592C138.327 108.145 137.107 106.737 135.853 105.367C134.669 104.072 133.45 102.801 132.577 101.201C132.469 101.005 132.173 100.759 131.955 100.859C131.736 100.959 131.847 101.301 131.955 101.468C132.768 102.845 133.729 104.104 134.817 105.217C135.89 106.392 136.957 107.575 137.99 108.8C140.098 111.283 142.094 113.879 143.98 116.587C145.798 119.195 147.59 121.89 148.767 124.948C149.945 128.006 150.437 131.472 149.545 134.68C148.623 138.013 146.468 140.659 144.361 143.129C144.054 143.479 144.813 144.338 145.113 143.983Z" fill="url(#paint14_radial_264_3369)"/>
<path d="M119.519 101.923C118.615 103.246 117.57 104.439 116.409 105.477C115.239 106.597 114.087 107.739 112.962 108.914C110.666 111.313 108.478 113.835 106.397 116.479C104.424 118.979 102.484 121.612 101.162 124.641C99.8404 127.67 99.185 131.165 99.8848 134.49C100.625 138.035 102.699 140.981 104.739 143.718C104.872 143.897 105.109 144.168 105.357 144.059C105.605 143.951 105.49 143.605 105.357 143.451C103.595 141.089 101.769 138.589 100.914 135.602C100.018 132.411 100.496 129.011 101.688 126.02C102.88 123.029 104.742 120.404 106.66 117.929C108.674 115.33 110.797 112.841 113.028 110.463C114.263 109.141 115.534 107.858 116.842 106.614C118.064 105.443 119.3 104.268 120.233 102.789C120.378 102.564 120.233 102.281 120.085 102.11C119.937 101.939 119.656 101.702 119.519 101.923Z" fill="url(#paint15_radial_264_3369)"/>
<path d="M135.208 144.729C135.345 144.71 135.476 144.651 135.588 144.559C135.7 144.468 135.789 144.345 135.848 144.204C135.926 144.025 135.941 143.629 135.663 143.667C133.071 144.013 130.457 143.488 127.858 143.667C128.54 142.806 128.919 141.695 128.925 140.542C128.958 140.532 128.989 140.515 129.017 140.492C131.887 138.226 135.393 137.347 138.41 135.389C138.832 135.114 138.151 134.205 137.803 134.435C134.908 136.314 131.59 137.23 128.773 139.263C128.565 138.448 128.183 137.701 127.662 137.088C128.988 135.626 129.883 133.789 130.994 132.139C132.172 130.393 133.49 128.781 134.804 127.169C135.1 126.802 134.341 125.961 134.064 126.336C132.749 127.948 131.431 129.564 130.257 131.306C129.147 132.972 128.228 134.797 126.903 136.255C126.886 136.275 126.872 136.297 126.862 136.322C126.627 136.138 126.38 135.975 126.122 135.834C125.959 135.747 125.789 135.672 125.618 135.601C125.52 130.527 125.583 125.452 125.807 120.378C125.874 118.906 125.954 117.438 126.048 115.974C126.077 115.529 125.207 114.887 125.17 115.499C124.842 120.649 124.683 125.808 124.693 130.977C124.693 132.438 124.71 133.899 124.745 135.359C124.357 135.293 123.962 135.293 123.575 135.359C123.048 135.471 122.555 135.733 122.145 136.122C120.964 134.718 120.105 133.01 119.069 131.472C117.884 129.719 116.562 128.085 115.24 126.473C115.114 126.315 114.811 126.119 114.637 126.302C114.463 126.486 114.67 126.836 114.789 126.981C116.092 128.585 117.38 130.193 118.554 131.931C119.598 133.501 120.483 135.214 121.686 136.638C121.537 136.835 121.401 137.044 121.279 137.263C120.924 137.939 120.693 138.689 120.602 139.467C117.736 137.318 114.307 136.389 111.345 134.468C111.164 134.351 110.916 134.405 110.897 134.664C110.879 134.922 111.138 135.209 111.334 135.339C114.296 137.272 117.721 138.159 120.55 140.338C120.544 140.45 120.544 140.563 120.55 140.676C120.658 141.819 121.123 142.882 121.864 143.675L121.931 143.742C119.213 143.467 116.481 144.054 113.763 143.683C113.508 143.65 113.519 144.013 113.589 144.183C113.642 144.316 113.725 144.431 113.829 144.516C113.934 144.602 114.057 144.655 114.185 144.671C117.147 145.087 120.109 144.292 123.071 144.829C123.219 144.854 123.308 144.829 123.352 144.742C124.248 145.153 125.243 145.201 126.166 144.875H126.27C129.276 144.313 132.253 145.117 135.208 144.729ZM122.864 143.567C121.109 142.363 121.22 139.721 122.164 137.938C122.51 137.274 123.05 136.766 123.692 136.5C124.334 136.233 125.038 136.225 125.685 136.476C126.258 136.673 126.774 137.038 127.179 137.535C127.584 138.032 127.863 138.641 127.988 139.301C128.1 139.987 128.056 140.693 127.862 141.356C127.668 142.018 127.329 142.615 126.877 143.092C126.341 143.644 125.662 143.987 124.939 144.071C124.216 144.155 123.489 143.975 122.864 143.558V143.567Z" fill="url(#paint16_radial_264_3369)"/>
<defs>
<radialGradient id="paint0_radial_264_3369" cx="0" cy="0" r="1" gradientUnits="userSpaceOnUse" gradientTransform="translate(127.372 76.6848) rotate(90) scale(76.6848 127.372)">
<stop stop-color="#9F2420"/>
<stop offset="1" stop-color="#9F2420" stop-opacity="0.41"/>
</radialGradient>
<radialGradient id="paint1_radial_264_3369" cx="0" cy="0" r="1" gradientUnits="userSpaceOnUse" gradientTransform="translate(128.001 78.346) rotate(90) scale(2.39971 2.0604)">
<stop stop-color="#9F2420"/>
<stop offset="1" stop-color="#9F2420" stop-opacity="0.41"/>
</radialGradient>
<radialGradient id="paint2_radial_264_3369" cx="0" cy="0" r="1" gradientUnits="userSpaceOnUse" gradientTransform="translate(128.434 69.056) rotate(90) scale(2.39971 2.06179)">
<stop stop-color="#9F2420"/>
<stop offset="1" stop-color="#9F2420" stop-opacity="0.41"/>
</radialGradient>
<radialGradient id="paint3_radial_264_3369" cx="0" cy="0" r="1" gradientUnits="userSpaceOnUse" gradientTransform="translate(159.291 112.578) rotate(90) scale(2.39971 2.0604)">
<stop stop-color="#9F2420"/>
<stop offset="1" stop-color="#9F2420" stop-opacity="0.41"/>
</radialGradient>
<radialGradient id="paint4_radial_264_3369" cx="0" cy="0" r="1" gradientUnits="userSpaceOnUse" gradientTransform="translate(161.903 102.8) rotate(90) scale(2.4018 2.0611)">
<stop stop-color="#9F2420"/>
<stop offset="1" stop-color="#9F2420" stop-opacity="0.41"/>
</radialGradient>
<radialGradient id="paint5_radial_264_3369" cx="0" cy="0" r="1" gradientUnits="userSpaceOnUse" gradientTransform="translate(158.205 56.4231) rotate(90) scale(2.39971 2.0611)">
<stop stop-color="#9F2420"/>
<stop offset="1" stop-color="#9F2420" stop-opacity="0.41"/>
</radialGradient>
<radialGradient id="paint6_radial_264_3369" cx="0" cy="0" r="1" gradientUnits="userSpaceOnUse" gradientTransform="translate(124.815 140.372) rotate(90) scale(2.39971 2.06179)">
<stop stop-color="#9F2420"/>
<stop offset="1" stop-color="#9F2420" stop-opacity="0.41"/>
</radialGradient>
<radialGradient id="paint7_radial_264_3369" cx="0" cy="0" r="1" gradientUnits="userSpaceOnUse" gradientTransform="translate(199.491 123.257) rotate(90) scale(2.39971 2.0604)">
<stop stop-color="#9F2420"/>
<stop offset="1" stop-color="#9F2420" stop-opacity="0.41"/>
</radialGradient>
<radialGradient id="paint8_radial_264_3369" cx="0" cy="0" r="1" gradientUnits="userSpaceOnUse" gradientTransform="translate(209.343 117.386) rotate(90) scale(2.39971 2.0611)">
<stop stop-color="#9F2420"/>
<stop offset="1" stop-color="#9F2420" stop-opacity="0.41"/>
</radialGradient>
<radialGradient id="paint9_radial_264_3369" cx="0" cy="0" r="1" gradientUnits="userSpaceOnUse" gradientTransform="translate(93.0803 108.926) rotate(90) scale(2.39969 2.06179)">
<stop stop-color="#9F2420"/>
<stop offset="1" stop-color="#9F2420" stop-opacity="0.41"/>
</radialGradient>
<radialGradient id="paint10_radial_264_3369" cx="0" cy="0" r="1" gradientUnits="userSpaceOnUse" gradientTransform="translate(90.8436 100.531) rotate(90) scale(2.39971 2.0604)">
<stop stop-color="#9F2420"/>
<stop offset="1" stop-color="#9F2420" stop-opacity="0.41"/>
</radialGradient>
<radialGradient id="paint11_radial_264_3369" cx="0" cy="0" r="1" gradientUnits="userSpaceOnUse" gradientTransform="translate(96.9822 56.8768) rotate(90) scale(2.39971 2.05832)">
<stop stop-color="#9F2420"/>
<stop offset="1" stop-color="#9F2420" stop-opacity="0.41"/>
</radialGradient>
<radialGradient id="paint12_radial_264_3369" cx="0" cy="0" r="1" gradientUnits="userSpaceOnUse" gradientTransform="translate(54.6317 122.869) rotate(90) scale(2.39971 2.0604)">
<stop stop-color="#9F2420"/>
<stop offset="1" stop-color="#9F2420" stop-opacity="0.41"/>
</radialGradient>
<radialGradient id="paint13_radial_264_3369" cx="0" cy="0" r="1" gradientUnits="userSpaceOnUse" gradientTransform="translate(44.8782 116.804) rotate(90) scale(2.39971 2.06179)">
<stop stop-color="#9F2420"/>
<stop offset="1" stop-color="#9F2420" stop-opacity="0.41"/>
</radialGradient>
<radialGradient id="paint14_radial_264_3369" cx="0" cy="0" r="1" gradientUnits="userSpaceOnUse" gradientTransform="translate(141.343 122.452) rotate(90) scale(21.6155 9.51346)">
<stop stop-color="#9F2420"/>
<stop offset="1" stop-color="#9F2420" stop-opacity="0.41"/>
</radialGradient>
<radialGradient id="paint15_radial_264_3369" cx="0" cy="0" r="1" gradientUnits="userSpaceOnUse" gradientTransform="translate(109.947 122.959) rotate(90) scale(21.1253 10.3463)">
<stop stop-color="#9F2420"/>
<stop offset="1" stop-color="#9F2420" stop-opacity="0.41"/>
</radialGradient>
<radialGradient id="paint16_radial_264_3369" cx="0" cy="0" r="1" gradientUnits="userSpaceOnUse" gradientTransform="translate(124.72 130.168) rotate(90) scale(14.9207 13.8237)">
<stop stop-color="#9F2420"/>
<stop offset="1" stop-color="#9F2420" stop-opacity="0.41"/>
</radialGradient>
</defs>
</svg>
