<svg width="113" height="152" viewBox="0 0 113 152" fill="none" xmlns="http://www.w3.org/2000/svg">
<path d="M42.5782 59.216C42.4792 58.3518 42.332 57.4983 42.1376 56.6625C41.7289 55.03 40.8854 53.3289 39.4825 53.0588C39.107 52.9834 38.7228 53.0509 38.3755 53.2532C38.0283 53.4556 37.7325 53.7842 37.5231 54.2004C37.3481 54.5952 37.2362 55.0326 37.1944 55.486C37.1525 55.9395 37.1815 56.3993 37.2796 56.8376C37.5076 57.8809 37.7835 58.9051 38.1057 59.9047C38.3955 60.9588 38.7057 62.0091 39.0071 63.0632C39.3086 64.1173 39.6071 65.1676 39.9057 66.2217C40.2043 67.2758 40.5028 68.2538 40.7376 69.2965C41.0957 71.0787 41.2607 72.9184 41.2275 74.7611C41.2469 76.4751 41.1674 78.1887 40.9898 79.887C40.9666 80.0963 40.9405 80.3094 40.9115 80.5187C40.8477 80.8345 40.7811 81.1542 40.7115 81.4663C40.642 81.7783 40.9782 81.8125 41.1115 81.7973C41.2179 81.7949 41.3214 81.7518 41.4094 81.6734C41.4974 81.595 41.5661 81.4847 41.6072 81.3559C41.6275 81.2722 41.642 81.1922 41.6623 81.1085C41.6941 81.0623 41.7161 81.0058 41.726 80.9449C41.757 80.7622 41.786 80.5758 41.813 80.3855C42.5817 76.6004 43.0097 72.7101 43.0884 68.7942C43.1291 66.6653 43.0681 64.5352 42.9058 62.4163C42.8217 61.347 42.7144 60.2777 42.5782 59.216ZM42.0478 72.1201C42.0275 71.7852 42.0014 71.4542 41.9724 71.1269C41.7782 69.0263 41.1231 67.0551 40.5637 65.0915C39.984 63.0442 39.4042 60.9956 38.8245 58.9458C38.555 58.002 38.2129 57.0431 38.1144 56.027C38.0448 55.323 38.1579 54.3983 38.6129 53.9645C38.6796 53.9021 38.7542 53.8557 38.8332 53.8275C38.9694 53.8002 39.1085 53.8093 39.2419 53.8541C39.5574 53.9678 39.8489 54.1748 40.0941 54.4592C40.5261 54.9737 40.8623 55.6117 41.0767 56.3238C41.3076 57.0825 41.4776 57.8706 41.584 58.6756C41.7289 59.6574 41.842 60.6506 41.9347 61.6476C42.1298 63.6798 42.2266 65.7261 42.2246 67.7743C42.2072 69.2128 42.1483 70.6614 42.0478 72.1201Z" fill="url(#paint0_radial_264_3424)"/>
<path d="M45.5122 72.7326C44.5208 74.974 43.5672 77.2496 42.5962 79.5101L42.5295 79.6242C42.4397 79.784 42.5469 79.8868 42.6628 79.9134C42.853 79.9475 43.0463 79.8951 43.2107 79.765C44.5209 78.6234 46.1093 78.2885 47.4368 77.1621C48.1005 76.5868 48.7088 75.9083 49.2485 75.1414C49.7889 74.4417 50.2142 73.6037 50.4978 72.6793C50.6203 72.2719 50.6744 71.8345 50.6564 71.3972C50.6384 70.9598 50.5487 70.5326 50.3934 70.1449C50.247 69.7721 50.0286 69.4564 49.76 69.2293C49.4914 69.0022 49.1821 68.8718 48.863 68.851C47.1673 68.7635 46.2397 71.0734 45.5122 72.7326ZM49.4311 70.3047C49.5989 70.6374 49.7076 71.0152 49.7493 71.4104C49.7909 71.8056 49.7644 72.208 49.6717 72.588C49.4526 73.4436 49.09 74.2239 48.6108 74.8712C48.1441 75.5673 47.6179 76.1904 47.0426 76.7283C46.0426 77.6492 44.8571 78.064 43.7527 78.7033C44.4465 77.0873 45.1412 75.47 45.8368 73.8514C46.2195 72.9571 46.6078 72.059 47.0368 71.1876C47.347 70.5711 47.7586 69.6921 48.2949 69.4523L48.3673 69.4295H48.4543C48.5882 69.4439 48.7185 69.4944 48.8369 69.5779C49.0798 69.7516 49.2844 70.0045 49.4311 70.3123V70.3047Z" fill="url(#paint1_radial_264_3424)"/>
<path d="M49.3243 77.6724C49.1159 78.2316 49.0458 78.8623 49.1237 79.4763C49.2017 80.0904 49.4238 80.6571 49.759 81.0973C50.0886 81.5235 50.5045 81.8164 50.9572 81.9412C51.4099 82.066 51.8804 82.0174 52.3127 81.8013C52.7486 81.5903 53.1261 81.2124 53.3964 80.7164C53.6667 80.2204 53.8173 79.6292 53.8287 79.0196C53.8135 78.4137 53.6626 77.8272 53.3951 77.3332C53.1276 76.8392 52.7551 76.4595 52.3243 76.2416C51.776 75.9778 51.1744 75.9767 50.6255 76.2385C50.0766 76.5003 49.6158 77.0081 49.3243 77.6724ZM52.9156 78.9435C52.9605 79.3901 52.8945 79.8439 52.7272 80.2373C52.5889 80.5677 52.3818 80.8396 52.1301 81.0212L52.0171 81.0897C51.9214 81.143 51.9707 81.1125 51.9881 81.0897C51.9396 81.111 51.8902 81.1288 51.8403 81.143H51.791C51.6504 81.1806 51.5055 81.1806 51.3649 81.143C51.0733 81.0529 50.804 80.867 50.5823 80.6026C50.295 80.2528 50.1004 79.7917 50.0269 79.2865C49.9534 78.7813 50.0048 78.2584 50.1736 77.7942C50.3244 77.4172 50.5764 77.127 50.8808 76.9799L50.9823 76.9418L51.0721 76.9151H51.1504H51.2837C51.4275 76.914 51.5704 76.9435 51.7069 77.0027C52.024 77.1508 52.3042 77.4099 52.5172 77.752C52.7303 78.0941 52.868 78.5061 52.9156 78.9435Z" fill="url(#paint2_radial_264_3424)"/>
<path d="M6.03762 84.081C5.95646 83.9364 5.77674 83.7308 5.62601 83.8146C5.47528 83.8983 5.54775 84.1609 5.62601 84.2864C6.14776 85.1959 6.62314 86.1435 7.15648 87.0416C7.84372 88.2037 8.57913 89.3153 9.35942 90.3713C9.72993 90.8828 10.1377 91.3455 10.5769 91.7527C11.0392 92.1526 11.539 92.4724 12.0638 92.704C13.1271 93.1573 14.2241 93.4609 15.3363 93.6097C17.6115 93.9181 19.9064 93.876 22.1742 93.4842C24.4612 93.1379 26.725 92.5861 28.9946 92.0952C30.0671 91.863 31.2555 91.5548 32.3367 91.9049C32.573 91.9845 32.8015 92.0994 33.0178 92.2474C32.7483 92.1713 32.4729 92.118 32.1947 92.0761C31.3334 91.9544 30.4646 91.9544 29.6033 92.0761C27.8655 92.3176 26.1863 93.0386 24.6757 94.192C23.1191 95.3907 21.7597 96.9737 20.3278 98.4045C18.8959 99.8354 17.3944 101.171 15.69 101.951C14.7601 102.391 13.7797 102.617 12.7914 102.621C11.8899 102.621 10.9073 102.415 10.1826 101.647C10.1044 101.567 9.93916 101.483 9.8522 101.597C9.76524 101.711 9.83192 101.921 9.89279 102.031C10.1385 102.438 10.4321 102.792 10.7624 103.078C11.171 103.466 11.5958 103.824 12.0348 104.151C12.9044 104.805 13.8088 105.353 14.716 105.897C15.6309 106.514 16.6156 106.933 17.6321 107.138C18.6487 107.265 19.6728 107.251 20.6872 107.096C22.624 106.893 24.4871 106.032 26.0931 104.596C27.6003 103.18 28.7859 101.281 30.0236 99.4929C30.717 98.428 31.4943 97.4623 32.3425 96.6122C33.2266 95.7826 34.2903 95.1966 35.386 95.501C35.4232 95.518 35.4638 95.517 35.5005 95.4981C35.5372 95.4793 35.5675 95.4439 35.586 95.3983C35.626 95.4412 35.6727 95.472 35.7228 95.4884C35.7729 95.5049 35.8252 95.5066 35.8759 95.4934C37.8382 94.896 39.5136 97.0156 40.763 98.709C42.0122 100.402 43.2354 102.309 44.6992 103.793C46.2412 105.321 48.065 106.282 49.9834 106.579C50.9663 106.747 51.9584 106.803 52.9487 106.746C53.9821 106.724 54.9993 106.404 55.9284 105.81C56.9401 105.209 57.9575 104.562 58.9111 103.842C59.3782 103.493 59.831 103.112 60.2677 102.701C60.6433 102.397 60.9767 102.011 61.2532 101.559C61.4126 101.251 60.9807 100.646 60.7517 100.905C60.0798 101.563 59.2707 101.936 58.4328 101.974C57.5561 102.061 56.6745 101.955 55.8241 101.662C54.111 101.095 52.5718 99.9153 51.137 98.591C49.6472 97.2135 48.2616 95.638 46.7109 94.3822C45.2181 93.1605 43.5496 92.3561 41.8093 92.0191C40.8382 91.8315 39.8535 91.7957 38.876 91.9125L38.5455 91.9582C39.3919 91.5244 40.3397 91.5776 41.2383 91.7146C42.3977 91.8783 43.5224 92.1409 44.6616 92.3578C45.8007 92.5747 46.9254 92.784 48.0616 92.9552C50.3276 93.3431 52.618 93.4234 54.8966 93.1949C56.0242 93.0671 57.1413 92.8125 58.2357 92.4339C59.2715 92.1224 60.2362 91.4925 61.0503 90.5959C61.8541 89.6084 62.5912 88.5312 63.2532 87.3764C63.6011 86.8031 63.9354 86.2171 64.2561 85.6183C64.546 85.1046 64.7895 84.5642 65.0678 84.0467L65.2591 83.6966C65.3518 83.5216 65.2591 83.3161 65.1605 83.1715C65.062 83.0269 64.8532 82.867 64.7576 83.0382C63.6416 85.1807 61.5836 85.8619 59.7053 85.7591C58.5452 85.6546 57.3935 85.4256 56.2618 85.0742C55.1313 84.7736 54.0038 84.4577 52.8965 84.0429C51.7892 83.6281 50.7805 83.0991 49.708 82.6615C48.8176 82.287 47.894 82.0657 46.9602 82.0032C45.2551 81.9236 43.5589 82.3611 42.0035 83.2818C40.7878 83.987 39.6859 84.9906 38.7571 86.2386C38.9078 85.3634 39.047 84.4805 39.1252 83.5748C39.5721 79.161 39.2114 74.6709 38.073 70.4766C37.4348 68.0823 36.5701 65.8028 35.4991 63.6915C35.4931 63.6817 35.4862 63.6728 35.4788 63.6649C35.4316 63.6299 35.3796 63.6077 35.3258 63.5999C35.272 63.592 35.2175 63.5986 35.1657 63.6192C34.9768 63.6315 34.7968 63.7282 34.6556 63.8932C34.6451 63.9065 34.6363 63.9219 34.6295 63.9389C32.6005 67.1621 31.7309 71.2985 31.2497 75.3551C30.9477 77.6085 30.8852 79.9061 31.0642 82.182C31.2227 83.7311 31.5144 85.2515 31.9338 86.7143C31.1723 85.7379 30.3132 84.9019 29.3801 84.2293C27.8605 83.1089 26.1663 82.4581 24.4264 82.3266C23.5899 82.271 22.7516 82.3709 21.9365 82.6235C20.8616 83.018 19.804 83.4893 18.7683 84.0353C17.6707 84.536 16.553 84.9578 15.4204 85.2987C14.2929 85.6488 13.1566 86.0141 12.0087 86.2386C10.1333 86.6192 7.91012 86.524 6.46661 84.6708C6.31101 84.4907 6.16749 84.2934 6.03762 84.081ZM32.0729 91.1286C31.5097 90.9962 30.9354 90.9642 30.3656 91.0334C29.2062 91.1514 28.0468 91.4673 26.9192 91.7222C25.7916 91.9772 24.6264 92.2284 23.4728 92.4453C21.2057 92.9206 18.9093 93.1117 16.6146 93.0161C15.4725 92.9486 14.3369 92.7526 13.2204 92.43C12.174 92.1256 11.1566 91.7032 10.3218 90.7975C9.91856 90.3442 9.53985 89.8547 9.18841 89.3324C8.81449 88.8035 8.45506 88.2631 8.10433 87.7075L7.76518 87.1557C8.11192 87.5637 8.48105 87.9376 8.86957 88.2745C9.51415 88.8749 10.2261 89.3397 10.9798 89.6521C11.9454 89.9544 12.9399 90.0659 13.9305 89.9831C14.9624 89.9451 15.9973 89.8347 17.0292 89.7092C19.1567 89.4504 21.2756 89.0927 23.4061 88.8225C24.4467 88.6893 25.4873 88.5789 26.5308 88.5104C27.5608 88.4089 28.5957 88.4255 29.6236 88.5599C30.5541 88.6957 31.4474 89.1154 32.2323 89.7853C32.6094 90.0975 32.9619 90.4582 33.2845 90.8622C33.4613 91.3303 33.6382 91.7946 33.8237 92.255C33.6374 92.0765 33.4439 91.9113 33.2439 91.7603C32.886 91.4636 32.4918 91.2499 32.0787 91.1286H32.0729ZM15.0001 103.119C16.7393 102.602 18.3393 101.434 19.7973 100.075C21.2553 98.7166 22.6119 97.1412 24.0844 95.7826C25.5236 94.4377 27.1619 93.5043 28.8931 93.0427C29.8472 92.796 30.8205 92.7027 31.7917 92.7649C32.5947 92.8182 33.4642 92.9286 34.1831 93.4423C34.2469 93.5336 34.3077 93.6288 34.3628 93.7239C34.4179 93.819 34.4527 93.8837 34.4933 93.9636C31.3048 93.0541 28.0728 94.4926 25.5076 96.9775C24.1974 98.2409 23.1075 99.8354 21.8495 101.163C21.2664 101.808 20.6213 102.349 19.9307 102.773C19.1893 103.195 18.3933 103.426 17.5857 103.454C16.6146 103.515 15.6378 103.511 14.6668 103.492C14.1184 103.506 13.5701 103.467 13.0262 103.374C13.6914 103.392 14.3559 103.307 15.0059 103.119H15.0001ZM30.299 97.7919C29.0207 99.5119 27.8931 101.426 26.5105 103.013C25.8353 103.803 25.0815 104.468 24.2699 104.992C23.3969 105.528 22.474 105.912 21.5249 106.133C20.5683 106.357 19.598 106.465 18.6263 106.457C18.1163 106.47 17.6063 106.428 17.1016 106.331C16.5945 106.213 16.0994 106.019 15.6262 105.753C14.6871 105.247 13.7595 104.676 12.8581 104.059C13.3425 104.192 13.8357 104.262 14.3305 104.269C15.2001 104.299 16.0697 104.299 16.9567 104.269C17.8129 104.296 18.6682 104.178 19.5016 103.919C20.2263 103.631 20.9113 103.193 21.5307 102.621C22.8872 101.418 23.9742 99.7897 25.2235 98.435C26.4055 97.1184 27.748 96.0725 29.1946 95.3412C30.8666 94.4902 32.6847 94.2598 34.4498 94.6753C32.8266 94.7285 31.4178 96.2849 30.3048 97.7881L30.299 97.7919ZM53.2154 105.951C52.2273 106.062 51.2334 106.049 50.2472 105.913C48.3575 105.719 46.5445 104.848 45.0065 103.393C43.5572 101.963 42.3804 100.094 41.1166 98.3893C39.9397 96.7949 38.4383 94.9378 36.6991 94.6829C39.8557 93.7201 43.076 95.2156 45.6123 97.7272C46.9109 99.0058 48.0152 100.596 49.3341 101.841C49.9574 102.443 50.64 102.932 51.3631 103.295C52.1436 103.64 52.9628 103.81 53.7864 103.797C54.7603 103.82 55.7343 103.797 56.7082 103.744C57.0705 103.744 57.4386 103.706 57.8038 103.652C57.2531 104.033 56.6908 104.39 56.1285 104.744C55.2237 105.376 54.2382 105.783 53.2212 105.947L53.2154 105.951ZM39.0992 92.7193C41.7057 92.3772 44.3257 93.1673 46.5573 94.9683C48.1109 96.2241 49.4964 97.7995 50.9863 99.1542C52.4762 100.509 54.0009 101.7 55.7285 102.336C56.4198 102.593 57.1321 102.741 57.8502 102.777C57.4465 102.863 57.0388 102.912 56.6299 102.925C55.7603 102.974 54.8908 102.998 54.0212 102.998C53.1876 103.046 52.3533 102.931 51.5458 102.655C50.8278 102.345 50.1526 101.885 49.5457 101.293C48.221 100.06 47.1196 98.4654 45.8239 97.1792C44.5866 95.9314 43.2008 94.9606 41.7224 94.3061C40.1172 93.6031 38.4048 93.4305 36.7368 93.8038C36.7948 93.7011 36.8585 93.6021 36.9223 93.5032C37.5972 93.034 38.3422 92.7652 39.1049 92.7155L39.0992 92.7193ZM61.1286 89.2411C60.7599 89.7749 60.3422 90.2466 59.8851 90.6453C59.4307 91.0063 58.9439 91.2914 58.4357 91.4939C57.3646 91.9305 56.2638 92.2299 55.1487 92.3882C52.8785 92.6857 50.5903 92.6538 48.3254 92.2931C46.0065 91.981 43.7398 91.4521 41.4412 91.0525C40.4006 90.8736 39.2209 90.672 38.218 91.2047C38.0252 91.3049 37.8383 91.4231 37.6585 91.5586C38.331 89.8309 39.7513 88.8644 41.1601 88.5143C42.0649 88.3056 42.9841 88.224 43.9021 88.2707C44.8529 88.2707 45.8007 88.3392 46.7485 88.4191C48.6732 88.5828 50.5921 88.8415 52.5139 89.0584C53.4617 89.165 54.4125 89.2639 55.3632 89.3324C56.3163 89.42 57.2722 89.4428 58.2271 89.4009C59.5365 89.3638 60.818 88.8967 61.9547 88.0424C61.6899 88.4432 61.4136 88.8415 61.1257 89.2373L61.1286 89.2411ZM63.2677 85.8923L63.1025 86.174C63.0628 86.1071 63.0159 86.0481 62.9634 85.9989L63.3112 85.8162L63.2677 85.8923ZM41.9253 84.3701C43.4444 83.3432 45.1269 82.8021 46.8355 82.7909C47.7107 82.7932 48.5815 82.9519 49.424 83.2628C50.5081 83.6433 51.5487 84.2293 52.6125 84.6556C53.6762 85.0818 54.8415 85.4167 55.969 85.7325C57.0916 86.0695 58.2277 86.3236 59.372 86.4936C60.4251 86.6431 61.4901 86.5373 62.5141 86.1815C61.4619 87.7494 59.8676 88.4115 58.314 88.579C57.3758 88.657 56.4348 88.657 55.4966 88.579C54.5226 88.5143 53.5487 88.423 52.5777 88.3164C50.6559 88.1033 48.737 87.8407 46.8123 87.6695C45.8413 87.5819 44.8674 87.5173 43.8934 87.4906C42.993 87.4462 42.0912 87.5009 41.1977 87.6542C40.0644 87.8486 38.9925 88.4431 38.0962 89.3743C38.1745 89.0737 38.2498 88.7692 38.3194 88.4648C39.2373 86.7199 40.4768 85.3087 41.9224 84.3626L41.9253 84.3701ZM32.0381 76.0477C32.2456 73.9274 32.5987 71.836 33.0932 69.7992C33.5203 67.9971 34.1515 66.2896 34.9657 64.7342L35.0092 64.8293C34.9482 64.8972 34.9081 64.9919 34.8962 65.0957C34.8962 65.2251 34.8962 65.3545 34.8962 65.4762C34.3165 67.7329 33.7976 70.0428 33.8468 72.4516C33.8468 72.5619 34.0121 72.3945 34.0295 72.3755C34.0903 72.307 34.2063 72.1738 34.2034 72.052C34.21 70.1681 34.4498 68.298 34.9135 66.5151C34.9619 69.5062 35.0102 72.4985 35.0585 75.4921C35.0585 75.6215 35.2527 75.4274 35.273 75.4046C35.3454 75.3247 35.4788 75.1687 35.4759 75.0241C35.4295 72.0964 35.3821 69.1688 35.3338 66.2411C35.9686 68.0677 36.2353 70.0466 36.4701 72.033C36.4701 72.151 36.8875 71.778 36.8643 71.5954C36.7354 70.3963 36.5574 69.2073 36.331 68.0335C37.2369 70.5688 37.8662 73.2591 38.2006 76.0249C38.6842 80.2688 38.4234 84.6016 37.4382 88.6931C37.1024 90.137 36.6858 91.5463 36.1918 92.9095C36.9567 90.6759 37.3055 88.2353 37.2093 85.7896C37.2093 85.5879 36.9194 85.8885 36.8701 85.9266C36.76 86.0484 36.5397 86.3071 36.5484 86.524C36.6386 88.6646 36.3746 90.8054 35.7744 92.7992C35.7918 90.0821 35.8102 87.365 35.8295 84.648C35.8295 83.7651 35.8295 82.8785 35.8498 81.9842C35.8498 81.8967 35.7165 82.0298 35.702 82.045C35.6875 82.0603 35.5628 82.2049 35.5628 82.3038C35.5416 85.4167 35.5203 88.532 35.4991 91.6499C35.4991 91.8021 35.4991 91.9544 35.4991 92.1066C35.0295 90.0948 34.587 88.0652 34.1715 86.0179C34.1396 85.8695 33.6874 86.3223 33.7251 86.5126C34.1773 88.7197 34.6604 90.9129 35.1744 93.0922C34.6411 91.7869 34.1222 90.4703 33.6556 89.1193C32.9299 87.1289 32.3963 85.0272 32.0671 82.8632C31.7899 80.6045 31.7791 78.3032 32.0352 76.0401L32.0381 76.0477ZM10.7334 87.2356C11.8941 87.1669 13.0466 86.9464 14.174 86.5773C15.2987 86.25 16.4262 85.9152 17.5364 85.5042C18.6466 85.0932 19.6843 84.5566 20.751 84.0505C21.6503 83.5894 22.5933 83.2911 23.5539 83.1639C25.2577 83.0197 26.9618 83.4384 28.5105 84.3816C30.0028 85.2421 31.3189 86.554 32.3512 88.2098C32.4005 88.3659 32.4497 88.5219 32.5019 88.6779C32.6063 89.0014 32.7164 89.3248 32.8295 89.6445C32.2247 89.0211 31.5448 88.5349 30.8178 88.206C29.8443 87.8244 28.8304 87.6509 27.8149 87.6923C26.7627 87.6923 25.7047 87.7798 24.6554 87.8864C22.5249 88.1033 20.4031 88.4534 18.2784 88.7502C17.2146 88.8986 16.1509 89.0318 15.09 89.1307C14.0528 89.2537 13.0098 89.2665 11.9711 89.1688C11.5036 89.1271 11.042 89.0082 10.5971 88.8149C10.2021 88.6177 9.82174 88.3731 9.4609 88.0842C9.07459 87.7768 8.70551 87.4334 8.35651 87.0568C8.22028 86.916 8.06667 86.7524 7.93913 86.5849C8.82896 87.0352 9.77702 87.2536 10.7305 87.228L10.7334 87.2356Z" fill="url(#paint3_radial_264_3424)"/>
<path d="M29.8062 53.9108C29.2873 54.4404 28.8752 55.129 28.6062 55.9163C28.0265 57.5945 27.8641 59.5238 27.7105 61.339C27.1846 67.6741 27.578 74.0826 28.87 80.2253L28.9917 80.7771C29.0207 80.9598 29.0497 81.1577 29.0815 81.3213C29.0928 81.3738 29.1149 81.4212 29.1453 81.4583C29.1656 81.5458 29.1859 81.6371 29.2091 81.7247C29.3221 82.2041 30.2091 81.8845 30.099 81.4126C30.0236 81.093 29.9511 80.7733 29.8787 80.4537C29.6602 78.955 29.5351 77.4353 29.5047 75.91C29.4254 74.2062 29.4681 72.4964 29.6323 70.8031C29.7689 69.7259 29.9834 68.6683 30.2729 67.6446C30.5424 66.6057 30.8236 65.5707 31.1019 64.5356C31.67 62.4122 32.2372 60.29 32.8034 58.1691C33.0613 57.2025 33.3396 56.1789 33.1918 55.1248C33.1426 54.7095 33.0116 54.3182 32.8118 53.9898C32.612 53.6614 32.3503 53.4073 32.0526 53.2525C31.3048 52.9176 30.4265 53.302 29.8062 53.9108ZM32.0323 57.781C31.5077 59.8321 30.9396 61.868 30.3946 63.9077C30.1202 64.9402 29.8439 65.9728 29.5656 67.0053C29.2926 67.9728 29.0584 68.9585 28.8642 69.9583C28.7381 70.7024 28.6558 71.4581 28.6178 72.2187C28.5347 71.2598 28.4728 70.297 28.4323 69.3304C28.3492 67.2929 28.3617 65.2506 28.4699 63.2151C28.525 62.1876 28.6062 61.164 28.7076 60.1441C28.7887 59.2482 28.9077 58.3589 29.0641 57.4803C29.1982 56.7068 29.4284 55.9676 29.7453 55.2922C30.0276 54.64 30.489 54.154 31.0352 53.9337C31.5714 53.7929 32.0265 54.3865 32.1947 55.041C32.4642 55.9429 32.2671 56.9019 32.0439 57.781H32.0323Z" fill="url(#paint4_radial_264_3424)"/>
<path d="M24.1349 70.7168C23.7001 69.9557 23.1436 69.2784 22.3958 69.1414C22.0434 69.0869 21.6863 69.1513 21.3581 69.3284C21.03 69.5055 20.7417 69.7895 20.5204 70.1536C20.3112 70.4904 20.1588 70.8817 20.0734 71.3015C19.988 71.7213 19.9714 72.1602 20.0247 72.5891C20.1824 73.5484 20.5338 74.4343 21.0421 75.1539C21.547 75.9298 22.1189 76.6259 22.7465 77.2279C23.4753 77.8953 24.2726 78.4232 25.1147 78.7957C25.9402 79.1344 26.7367 79.5846 27.4915 80.139C27.5834 80.1954 27.6846 80.2208 27.7858 80.2128C27.8871 80.2048 27.9852 80.1638 28.0713 80.0933C28.1988 79.9944 28.3611 79.7813 28.2452 79.5758L28.1785 79.4655C27.2799 77.4714 26.3813 75.4774 25.4828 73.4833C25.0726 72.5293 24.6226 71.6057 24.1349 70.7168ZM24.1929 77.2279C23.5705 76.7565 22.9968 76.1823 22.4856 75.5193C21.968 74.9065 21.533 74.1835 21.1987 73.3806C21.0476 73.03 20.9527 72.6425 20.9198 72.2421C20.8869 71.8416 20.9167 71.4365 21.0073 71.0517C21.0993 70.7142 21.2525 70.4112 21.4537 70.1688C21.4858 70.1318 21.5197 70.0974 21.5552 70.0661L21.6131 70.0128L21.6711 69.9747L21.7146 69.9519L21.79 69.9215H21.8305C21.8682 69.9177 21.906 69.9177 21.9436 69.9215C21.9887 69.9309 22.0342 69.9373 22.0798 69.9405C22.1291 69.9405 22.1813 69.9785 22.2277 69.9976C22.37 70.0681 22.5038 70.1655 22.6248 70.2868C22.8694 70.5319 23.0853 70.8229 23.2653 71.1506C23.7359 71.9758 24.1667 72.8388 24.5552 73.7345C25.2973 75.3632 26.0335 76.9957 26.764 78.6321C25.8812 78.2499 25.0217 77.7805 24.1929 77.2279Z" fill="url(#paint5_radial_264_3424)"/>
<path d="M16.9769 79.1952C16.9097 79.7818 16.9857 80.3813 17.194 80.9077C17.4023 81.4341 17.7322 81.8604 18.1364 82.1254C18.5641 82.3921 19.0408 82.4928 19.5107 82.416C19.9805 82.3392 20.4238 82.0879 20.7886 81.6916C21.2143 81.2527 21.511 80.6336 21.6284 79.9399C21.7457 79.2461 21.6763 78.5204 21.4321 77.8862C20.9248 76.7103 19.7741 76.2651 18.8233 76.6228C18.3642 76.7848 17.9485 77.1112 17.6224 77.5654C17.2964 78.0197 17.0729 78.5839 16.9769 79.1952ZM18.777 77.4714C19.0593 77.2926 19.3833 77.2639 19.6813 77.3915C20.0747 77.5478 20.405 77.9021 20.6002 78.3771C20.7573 78.7907 20.8183 79.2559 20.7755 79.7146C20.7327 80.1734 20.5881 80.6055 20.3596 80.9571C20.2634 81.1034 20.1522 81.2315 20.0292 81.3377C19.93 81.4227 19.8228 81.4905 19.7103 81.5394C19.4493 81.6519 19.1667 81.6425 18.9103 81.5128C18.6119 81.3587 18.3536 81.0953 18.166 80.7539C17.9784 80.4125 17.8695 80.0075 17.8523 79.5872C17.8415 79.1547 17.9235 78.727 18.0891 78.3528C18.2546 77.9787 18.497 77.6733 18.7886 77.4714H18.777Z" fill="url(#paint6_radial_264_3424)"/>
<path d="M112.124 63.0558C110.776 52.9943 107.895 43.3933 103.655 34.8272C99.4787 26.3914 94.0842 19.1115 87.7761 13.3989C81.3865 7.61315 74.1757 3.57411 66.5727 1.52217C62.756 0.510414 58.872 0.000505622 54.9783 0C44.8646 0.0866468 34.9426 3.63187 26.1904 10.2862C17.4382 16.9405 10.158 26.4743 5.06722 37.9477C3.82038 40.7362 2.8935 43.7508 2.31645 46.8942C2.04896 48.4855 1.86495 50.099 1.76571 51.7233C1.68744 52.9791 1.76571 54.3871 2.49036 55.346C2.63479 55.5715 2.81932 55.7467 3.02762 55.8562C3.23592 55.9657 3.46155 56.0062 3.68458 55.9739C4.20633 55.8217 4.47879 55.0606 4.76286 54.5355C5.502 53.1731 6.27013 51.8413 7.08174 50.5512C8.66211 48.0084 10.4174 45.662 12.3253 43.5416C16.2112 39.2715 20.7301 36.1071 25.5958 34.2487C30.4616 32.3904 35.5683 31.8785 40.5925 32.7457C48.2491 34.0841 55.3652 38.6604 60.864 45.7819C66.3628 52.9035 69.945 62.1827 71.0685 72.2155C72.2265 82.7741 70.6569 93.5376 66.6104 102.788C62.6625 111.872 56.4015 119.266 48.9289 122.98C40.1664 127.337 30.1894 126.279 21.7226 121.26C17.1167 118.531 13.1196 114.623 9.53108 109.988C8.80064 109.044 8.06148 108.085 7.38031 107.092L7.30494 106.974C7.21508 106.833 7.12521 106.696 7.03826 106.556C6.82086 106.217 6.60636 105.874 6.38607 105.536C5.40217 103.921 4.31196 102.424 3.12804 101.061C2.47005 100.341 0.733798 98.7164 0.130888 100.41C-0.306802 101.635 0.455521 103.074 0.916399 104.052C1.5483 105.417 2.18505 106.776 2.82661 108.131C5.47303 113.687 8.26729 119.14 11.4847 124.156C19.5551 136.958 30.6254 145.895 42.9697 149.573C55.3139 153.251 68.2382 151.463 79.7274 144.487C91.2165 137.512 100.625 125.742 106.485 111.012C112.345 96.282 114.328 79.4202 112.124 63.0558ZM111.281 80.2563C110.607 93.654 107.167 106.558 101.328 117.582C95.4895 128.606 87.4739 137.333 78.142 142.827C68.8101 148.321 58.5145 150.374 48.3609 148.765C38.2073 147.157 28.5793 141.947 20.511 133.696C12.7746 125.743 7.30202 114.813 2.24975 103.918C2.03329 103.531 1.8395 103.123 1.67003 102.697C4.25255 107.813 7.32076 112.477 10.8006 116.575C14.1122 120.445 17.7724 123.768 21.6994 126.469C24.9496 128.682 28.3402 130.519 31.8329 131.961C34.9263 133.3 38.0841 134.368 41.2853 135.157C42.3883 135.807 43.4158 136.657 44.3375 137.684C45.0321 138.453 45.6689 139.308 46.239 140.237C46.8187 141.17 47.3666 142.14 47.9782 143.027C49.1943 144.734 50.7367 145.982 52.4449 146.642C54.2275 147.31 56.0884 147.542 57.9349 147.327C60.2828 147.091 62.5727 146.322 64.8539 145.561C64.9418 145.538 65.0228 145.482 65.0875 145.401C65.1521 145.319 65.1978 145.215 65.2191 145.101C65.215 145.002 65.183 144.908 65.1296 144.838C65.0761 144.767 65.0048 144.726 64.9293 144.72C62.5785 144.579 60.5668 142.817 58.7842 140.941C57.8479 139.963 56.9581 138.909 55.9986 137.969C55.2549 137.231 54.4601 136.587 53.6247 136.044C55.9601 135.815 58.2766 135.328 60.5494 134.586C62.9742 133.811 65.3021 132.584 67.4626 130.945C67.7525 130.857 68.0626 130.785 68.3322 130.728C69.4228 130.523 70.521 130.396 71.6221 130.347C73.854 130.21 76.1034 130.21 78.3092 129.681C79.4122 129.428 80.4845 128.983 81.4977 128.357C82.6237 127.617 83.706 126.767 84.7354 125.815C86.6128 124.209 88.3104 122.267 89.779 120.046C90.4997 118.923 91.1156 117.692 91.6138 116.377C92.1443 114.962 92.5732 113.386 92.4834 111.788C92.4573 111.398 92.392 111.014 92.2892 110.646C92.1732 110.228 91.6428 110.327 91.4718 110.646C89.3413 114.391 85.6746 115.38 82.4194 116.457C80.8078 116.994 79.1266 117.546 77.6715 118.638C77.0206 119.13 76.3907 119.669 75.7845 120.251C78.1359 116.003 80.1741 111.471 81.8716 106.715C82.4063 106.255 82.9828 105.884 83.5876 105.612C84.4282 105.208 85.3064 104.889 86.1731 104.523C87.9679 103.799 89.7253 102.923 91.4341 101.902C93.0979 100.91 94.645 99.6102 96.0284 98.0429C97.4357 96.3626 98.6209 94.3874 99.5357 92.1977C100.064 90.9643 100.54 89.694 100.962 88.3923C101.414 87.0109 101.831 85.5459 101.695 84.0123C101.695 83.8486 101.405 83.8867 101.324 83.9019C101.143 83.9197 100.973 84.0208 100.843 84.1873C99.9386 85.7399 98.6864 86.8054 97.3646 87.6122C95.9153 88.5179 94.3617 89.1877 92.8544 89.9221C91.9848 90.3407 91.1356 90.7517 90.2805 91.1779C89.455 91.5671 88.6536 92.0391 87.8833 92.5897C86.766 93.4565 85.8009 94.6237 85.0514 96.0146C85.8464 92.6615 86.4767 89.2448 86.9384 85.7856C87.2724 84.9401 87.6541 84.1285 88.0804 83.3577C88.7537 82.1347 89.4856 80.9691 90.2718 79.8682C91.008 78.8217 91.7906 77.8437 92.5588 76.8238C93.3791 75.7507 94.1588 74.6205 94.8951 73.4446C96.3755 71.0806 97.6754 68.5314 98.7763 65.8338C99.8807 63.1278 100.782 60.287 101.466 57.3515C102.149 54.4381 102.607 51.4422 102.834 48.4088C102.863 48.0282 102.886 47.6477 102.907 47.2671C102.939 46.7115 102.165 46.9969 102.037 47.29C101.038 49.5584 99.9062 51.7213 98.6516 53.7592C97.3965 55.8446 96.069 57.8538 94.7704 59.8973C93.4601 61.9134 92.2286 64.0154 91.0805 66.1953C90.51 67.2926 89.9818 68.4268 89.4978 69.5935C89.0337 70.7499 88.6345 71.9493 88.3036 73.1821C88.121 73.8404 87.9529 74.5063 87.7906 75.1723C87.9439 69.7244 87.669 64.2703 86.9702 58.8965C86.7905 57.524 86.5828 56.1579 86.347 54.7981C86.5963 52.7469 87.1673 50.8024 87.7645 48.8844C88.4462 46.8208 89.0176 44.6973 89.4746 42.5294C90.2935 38.2444 90.4414 33.7858 89.9094 29.4235C89.6091 26.9603 89.0876 24.5524 88.3558 22.2503C88.3059 22.1318 88.2246 22.0415 88.1273 21.9966C88.0301 21.9517 87.9236 21.9553 87.8282 22.0068C87.6601 22.0638 87.4051 22.2846 87.4659 22.5662C88.1645 25.7247 87.1992 28.9402 86.1847 31.7829C85.6171 33.2696 85.1082 34.7938 84.6601 36.3494C84.2501 37.9118 83.9512 39.5208 83.7673 41.1556C83.7687 41.1899 83.7687 41.2242 83.7673 41.2584C83.6716 40.0673 83.5789 38.8724 83.4774 37.6813C83.2832 35.242 83.1325 32.7875 82.8629 30.3597C82.3702 25.8959 81.1238 21.6833 79.5933 17.661C78.7237 15.3777 77.7933 13.163 76.8512 10.9482C76.8064 10.8787 76.7488 10.8254 76.6838 10.7934C76.6189 10.7614 76.5488 10.7518 76.4802 10.7655L76.2889 10.796C76.1034 10.8226 75.8048 10.9786 75.799 11.2793C75.7034 16.6069 74.0193 21.6795 74.1845 27.0337C74.2141 28.2749 74.3631 29.5062 74.628 30.6983C74.9121 31.902 75.3364 33.0406 75.886 34.0737C76.4511 35.1015 77.0567 36.0897 77.7005 37.0344C78.3237 37.9933 78.915 38.9941 79.4948 40.0026C79.9122 40.7294 80.3237 41.4639 80.7353 42.1945C79.4947 41.011 78.2513 39.8313 77.0309 38.6098C75.933 37.589 74.9461 36.3766 74.0975 35.0061C73.3628 33.6952 72.7678 32.2587 72.3294 30.7364C71.8291 28.9919 71.4005 27.2135 71.0453 25.4088C70.9844 25.1234 70.1757 25.4088 70.1583 25.6638C69.6047 31.1626 69.709 36.9925 71.6888 42.0271C72.5373 44.243 73.7585 46.1766 75.2599 47.6819C76.8831 49.2688 78.7817 50.2696 80.6687 51.1753C81.202 51.4341 81.7383 51.6852 82.2745 51.9364C82.8161 52.1726 83.3465 52.4509 83.8629 52.7698C84.2568 52.9981 84.6036 53.3464 84.8745 53.7858C84.974 53.979 85.053 54.1889 85.1094 54.4099C86.2412 61.0012 86.7109 67.7587 86.5065 74.5101C86.4804 75.4577 86.4369 76.4128 86.3818 77.3414C86.1178 76.604 85.8066 75.8975 85.4514 75.2294C84.9198 74.264 84.3388 73.3473 83.7122 72.4857C82.46 70.7047 81.1991 68.9352 80.1991 66.8841C78.226 62.8127 77.1996 58.0745 77.2454 53.2492C77.2454 52.6708 76.4338 52.941 76.3468 53.3672C75.7539 56.3073 75.4443 59.3334 75.4251 62.3747C75.4031 65.3173 75.6959 68.2494 76.2947 71.0853C76.8447 73.6619 77.6683 76.124 78.7411 78.3993C79.2724 79.524 79.8684 80.5939 80.5237 81.5996C81.2049 82.6385 81.9731 83.5594 82.7122 84.526C83.3832 85.3925 83.9782 86.355 84.4861 87.3953C84.7503 87.9671 84.9174 88.607 84.976 89.2713C84.5528 91.6383 84.0485 93.9825 83.4629 96.2886C82.8349 98.7773 82.1161 101.222 81.3064 103.622C81.2526 102.422 81.1236 101.231 80.9208 100.06C80.3933 96.8746 79.5788 93.7313 79.7614 90.4282C79.911 88.5733 80.1777 86.7378 80.5585 84.9408C80.5933 84.7543 80.4281 84.6363 80.3179 84.6097C80.2317 84.5883 80.1431 84.5901 80.0574 84.615C79.9717 84.6399 79.8907 84.6872 79.8194 84.7543C77.3353 87.323 76.2425 91.3644 75.8309 95.3563C75.5829 97.5908 75.5081 99.8527 75.6077 102.107C75.7237 104.265 76.1585 106.354 76.5179 108.454C76.8512 110.395 77.1179 112.385 76.944 114.364C76.6744 114.924 76.4019 115.483 76.1237 116.031C74.5962 119.156 72.8495 122.086 70.9062 124.784C68.9677 127.408 66.6604 129.514 64.1118 130.986L63.6741 131.23C63.9756 130.915 64.2568 130.567 64.5147 130.191C65.5611 128.669 66.222 126.766 66.7641 124.863C67.4249 122.538 68.0047 120.171 68.6192 117.827L70.8192 109.406C70.8801 109.174 70.5293 109.204 70.4482 109.223C70.3481 109.231 70.2505 109.267 70.162 109.329C70.0735 109.39 69.9961 109.476 69.9351 109.581C68.1235 113.561 64.9611 115.963 62.1379 118.527C60.6099 119.851 59.1966 121.39 57.9233 123.117C57.22 124.114 56.5874 125.192 56.0334 126.34C55.4537 127.512 55.0102 128.756 54.532 129.989C54.0543 131.338 53.4218 132.583 52.6565 133.681C52.4413 133.959 52.2086 134.214 51.9609 134.442C50.271 134.548 48.584 134.533 46.926 134.442C42.4969 134.149 38.1925 132.92 33.9402 131.31C30.7206 130.124 27.5735 128.622 24.5256 126.816C20.8056 124.597 17.2926 121.824 14.0558 118.55C10.2342 114.647 6.85107 110.056 4.00632 104.912C3.61984 104.201 3.23336 103.482 2.84688 102.754L2.87586 102.788C3.9038 104.077 4.86537 105.454 5.75419 106.91C8.48411 111.2 11.6353 114.997 15.1254 118.2C22.8994 125.305 32.6359 128.939 42.0824 127.516C50.0014 126.256 57.3306 121.379 62.7872 113.74C68.2084 106.245 71.682 96.6885 72.7094 86.441C73.7369 76.1936 72.2654 65.7822 68.5061 56.7008C64.8963 47.9468 59.4124 40.7725 52.7319 36.064C45.3049 30.8856 36.7757 29.1022 28.4908 30.9952C23.4854 32.1503 18.7135 34.6408 14.4703 38.313C14.7775 37.9324 15.0906 37.5519 15.4065 37.1713L15.9283 36.5625L16.195 36.2657L16.2182 36.2428L16.4124 36.0297C16.7718 35.639 17.1351 35.2585 17.5023 34.8881C18.2211 34.1625 18.9622 33.4725 19.7255 32.8179C19.9187 32.6581 20.1119 32.5021 20.3052 32.3499C20.3892 32.2776 20.4762 32.2091 20.5632 32.1406L20.6617 32.0645L20.7864 31.9693C21.1864 31.6624 21.5931 31.3668 22.0067 31.0827C22.7922 30.5413 23.5981 30.0523 24.4212 29.6176C25.3263 29.1443 26.2538 28.749 27.1981 28.4341C28.1662 28.1072 29.1516 27.8757 30.146 27.7415C30.3081 27.717 30.4627 27.6379 30.5947 27.5119C30.7268 27.3859 30.8318 27.2172 30.8996 27.0223C30.9837 26.7673 31.0126 26.2612 30.6793 26.284C26.9111 26.7787 23.3314 28.6206 20.111 31.2311C16.8153 33.8949 13.9341 37.3198 11.3282 41.0605C10.9823 41.5679 10.6422 42.0651 10.3079 42.5522C9.189 43.8639 8.12464 45.2536 7.11942 46.7153C7.67016 45.4786 8.23539 44.257 8.85859 43.0736C10.5618 39.8296 12.5311 36.8409 14.7312 34.1613C16.8962 31.5065 19.2228 29.0883 21.6878 26.931C24.1827 24.7208 26.7986 22.7556 29.5141 21.0516C32.4733 19.2173 35.5935 17.8689 38.8041 17.0369C39.1983 16.9341 39.5954 16.839 39.9925 16.7515C40.117 16.7078 40.2304 16.6218 40.3215 16.5022C40.4126 16.3826 40.4781 16.2337 40.5114 16.0703C40.5664 15.7659 40.4186 15.6136 40.2012 15.6593C36.8937 16.3916 33.6675 17.6556 30.5952 19.4229C27.763 21.0874 25.0365 23.0458 22.4415 25.2794C19.8638 27.4483 17.4222 29.8839 15.1399 32.563C12.867 35.2249 10.7972 38.1716 8.96003 41.3611C7.33391 44.2114 6.06144 47.3623 4.702 50.4409C4.41214 50.947 4.12227 51.4531 3.83241 51.963L3.71066 52.1685C4.48397 49.2951 5.54656 46.5704 6.87015 44.0668C8.44119 40.9882 10.1717 38.0238 11.9021 35.0974C15.1144 29.7261 18.9346 25.0328 23.2299 21.181C31.8871 13.4003 41.9721 8.80168 52.4391 7.86201C58.0566 7.39014 63.8597 8.1322 69.1525 10.7655C69.7728 11.0751 70.3825 11.4137 70.9815 11.7816C71.4076 12.0442 72.1815 10.8188 71.6772 10.5068C69.0493 8.94221 66.274 7.84543 63.4249 7.24554C60.534 6.57964 57.5988 6.30547 54.6653 6.42736C49.37 6.66598 44.1238 7.84757 39.0708 9.93976C33.9148 12.0552 28.9984 15.0693 24.4531 18.9015C19.9017 22.7261 15.8143 27.4276 12.3282 32.8484C11.4412 34.2374 10.6209 35.6949 9.78903 37.1409C8.91945 38.6631 8.03247 40.1853 7.18028 41.7074C5.82005 44.1208 4.63606 46.697 3.644 49.402C3.71356 48.9263 3.78894 48.4544 3.8701 47.9902C4.4664 44.9054 5.39459 41.9481 6.62668 39.2073C9.02382 33.697 12.1804 28.5749 15.5747 24.0693C23.5872 13.4079 33.876 6.19073 45.0803 3.3722C56.2847 0.553671 67.8769 2.26658 78.3237 8.28441C85.154 12.2494 91.3052 17.9817 96.4095 25.1387C101.514 32.2956 105.467 40.7304 108.032 49.9385C110.709 59.6378 111.813 69.9641 111.275 80.2563H111.281ZM46.0941 135.964C47.0821 136.512 48.0292 137.18 48.9231 137.958C50.4884 139.275 51.9203 140.831 53.4073 142.296C54.254 143.153 55.1418 143.937 56.0653 144.644C56.1584 144.692 56.2581 144.713 56.3579 144.707C56.4578 144.702 56.5556 144.668 56.645 144.61C56.6972 144.583 57.0566 144.34 56.9001 144.229C55.2073 142.958 53.7116 141.326 52.1551 139.773C50.8154 138.384 49.3802 137.161 47.868 136.12C49.1869 136.2 50.5116 136.211 51.8333 136.15C51.9609 136.199 52.0884 136.256 52.2159 136.322C53.2822 136.869 54.2852 137.61 55.1957 138.521C57.1001 140.355 58.761 142.601 60.8596 144.085C61.5574 144.589 62.299 144.982 63.0683 145.253C59.8799 146.28 56.5436 147.087 53.3203 145.953C51.6539 145.408 50.1337 144.272 48.926 142.669C48.2912 141.798 47.7405 140.827 47.1637 139.891C46.5962 138.956 45.9688 138.086 45.2883 137.292C44.7598 136.685 44.199 136.128 43.61 135.625C44.4303 135.766 45.2622 135.876 46.0941 135.964ZM62.7234 131.363C62.3427 131.719 61.9359 132.023 61.5089 132.273C59.2213 133.224 56.8647 133.862 54.4769 134.175C55.672 133.315 56.7777 132.256 57.7668 131.024C58.5697 130.062 59.3291 129.042 60.0857 128.026L62.7118 124.54L65.6829 120.59C65.7142 120.548 65.7367 120.496 65.748 120.439C65.7593 120.382 65.7591 120.322 65.7474 120.265C65.7357 120.208 65.7129 120.156 65.6813 120.114C65.6496 120.073 65.6102 120.042 65.5669 120.027C65.4569 119.983 65.3396 119.98 65.2283 120.019C65.1171 120.058 65.0165 120.137 64.9379 120.247L59.8103 127.059C58.361 129 56.9117 131.032 55.2015 132.596C54.5251 133.221 53.7918 133.732 53.0189 134.118C53.6703 133.366 54.2278 132.483 54.6711 131.504C55.2508 130.275 55.6827 128.966 56.1987 127.699C56.702 126.461 57.293 125.289 57.9639 124.198C59.1935 122.276 60.6184 120.586 62.1988 119.174C63.677 117.793 65.2191 116.511 66.6655 115.084C67.5938 114.183 68.459 113.176 69.2511 112.073C68.2249 116.023 67.2018 119.973 66.1525 123.916C65.6539 125.784 65.106 127.683 64.222 129.304C63.8086 130.09 63.3028 130.785 62.7234 131.363ZM77.7961 119.467C79.1672 118.394 80.7122 117.835 82.2455 117.314C84.0601 116.701 85.8978 116.172 87.6369 115.24C89.1034 114.506 90.4372 113.378 91.553 111.929C91.6059 113.152 91.4214 114.372 91.0167 115.476C90.594 116.757 90.0496 117.962 89.3964 119.064C88.0375 121.281 86.4309 123.216 84.6311 124.803C83.6776 125.705 82.6824 126.528 81.6513 127.269C80.6937 127.947 79.6667 128.44 78.602 128.734C76.5411 129.312 74.3091 129.316 72.17 129.434C71.0656 129.491 69.9438 129.567 68.8366 129.753C69.7688 128.886 70.6479 127.924 71.4656 126.877C72.3989 126.105 73.3956 125.475 74.4367 124.997C76.8077 123.893 79.3005 123.322 81.6832 122.215C83.0429 121.617 84.3289 120.762 85.5007 119.677C85.6514 119.532 85.7267 119.239 85.5499 119.075C85.4496 119.003 85.3353 118.971 85.2213 118.984C85.1073 118.997 84.9988 119.054 84.9093 119.148C82.9122 121.05 80.5353 121.899 78.1672 122.717C76.399 123.326 74.5961 123.935 72.9178 124.905C73.312 124.323 73.6975 123.726 74.0772 123.121L74.3903 122.778C74.97 122.143 75.5497 121.526 76.17 120.936C76.4599 120.655 76.7497 120.384 77.0396 120.118C77.1729 120 77.3063 119.882 77.4425 119.768L77.6483 119.597L77.7411 119.521L77.7961 119.467ZM79.0513 94.7322C79.4542 97.8031 80.3121 100.775 80.4078 103.911C80.4379 104.758 80.4009 105.608 80.2976 106.445C80.1121 106.944 79.9237 107.442 79.7179 107.937C79.8802 104.657 79.3933 101.289 78.7991 98.1038C78.5092 96.5816 78.1933 95.0594 78.2889 93.4916C78.3208 92.9436 77.4193 93.1377 77.3904 93.6057C77.3521 94.9994 77.4842 96.3921 77.7817 97.7308C78.0165 99.0018 78.2512 100.269 78.4339 101.536C78.8475 104.05 78.9531 106.635 78.7469 109.193C78.6904 109.763 78.6091 110.328 78.5034 110.886C78.3034 111.35 78.1034 111.811 77.8976 112.268C77.7962 109.143 76.9034 106.049 76.5874 102.963C76.4025 100.746 76.4161 98.5088 76.628 96.2962C76.7584 94.1916 77.1165 92.1222 77.6918 90.1504C78.0971 88.8062 78.6702 87.56 79.3875 86.4629C79.176 87.5717 79.0163 88.6964 78.9092 89.8308C78.7702 91.4666 78.8132 93.1202 79.0368 94.7397L79.0513 94.7322ZM85.1123 86.5087C84.8458 85.9874 84.5554 85.4879 84.2427 85.0131C83.5441 83.9666 82.7354 83.0609 82.0049 82.0563C81.302 81.0894 80.6585 80.0511 80.0802 78.951C78.9344 76.7574 78.0381 74.3563 77.4193 71.8235C76.7531 69.0918 76.3842 66.2503 76.3237 63.3831C76.2853 61.457 76.3677 59.53 76.57 57.6217C76.9311 60.6868 77.7171 63.6391 78.8889 66.3323C79.8294 68.3846 80.9438 70.2905 82.2107 72.0138C83.4195 73.7262 84.6658 75.4387 85.4456 77.5507C85.7554 78.402 85.9936 79.2953 86.1557 80.2145C86.121 80.595 86.0862 80.9756 86.0485 81.3561C85.9151 80.9451 85.7652 80.5436 85.5992 80.1536C85.0494 78.9211 84.418 77.7547 83.7122 76.6678C82.9354 75.4272 82.1325 74.2171 81.3383 72.9918C80.9035 72.3258 80.4687 71.6675 80.0426 70.9787C79.6366 70.3471 79.3178 69.6271 79.1005 68.8515C79.002 68.4709 78.1179 68.8096 78.2078 69.1635C78.5701 70.5601 79.3672 71.6675 80.0745 72.771C80.8861 74.0192 81.6977 75.2598 82.5035 76.5118C83.863 78.6238 85.263 80.9451 85.6485 83.7421C85.6746 83.94 85.6949 84.1226 85.7122 84.3357C85.5963 85.2313 85.4688 86.1192 85.3297 86.9995C85.2572 86.8359 85.1673 86.676 85.0977 86.5162L85.1123 86.5087ZM94.8631 65.8071C94.2573 68.3035 92.9211 70.2709 91.6022 72.1698C90.9152 73.1554 90.2225 74.1372 89.6022 75.2141C88.9308 76.3624 88.3427 77.5905 87.8456 78.8826L87.7239 79.206C88.1152 77.4708 88.4833 75.7279 88.9239 74.0154C89.2348 72.7713 89.6067 71.5549 90.037 70.3736C90.4778 69.2187 90.9704 68.0992 91.5124 67.0211C92.6174 64.8366 93.8175 62.7376 95.1067 60.7345C96.3907 58.6948 97.7154 56.7008 98.9792 54.6459C99.985 53.0057 100.953 51.3237 101.831 49.5618C101.038 57.9404 98.52 65.8766 94.5472 72.5161C93.8283 73.711 93.065 74.8526 92.2573 75.941C91.4979 76.9685 90.6978 77.935 89.9384 78.9853C89.1321 80.0903 88.3716 81.2514 87.6601 82.4635C87.6427 82.4939 87.6253 82.5282 87.605 82.5586C88.1692 80.1136 89.0519 77.8153 90.2138 75.7659C91.4138 73.6539 92.9153 71.8768 94.124 69.7724C94.8132 68.6222 95.3501 67.3281 95.7124 65.9441C95.8516 65.3048 94.9646 65.3429 94.8487 65.8148L94.8631 65.8071ZM100.805 85.2947C100.707 86.2949 100.492 87.2691 100.168 88.183C99.8024 89.3246 99.4053 90.4396 98.9647 91.528C98.1071 93.7269 96.9866 95.7312 95.6458 97.4644C93.0631 100.703 89.6196 102.469 86.292 103.88C85.3064 104.299 84.3064 104.668 83.3325 105.121C82.954 105.297 82.5825 105.497 82.2194 105.722C82.9296 103.462 84.4832 101.917 86.1007 100.851C87.9818 99.5917 90.0688 98.823 91.8979 97.3579C92.8167 96.6196 93.9907 95.6112 94.1617 94.0928C94.2052 93.7123 93.3153 93.9178 93.2921 94.2641C93.1443 95.5617 92.2167 96.4103 91.4283 97.0535C90.5158 97.7606 89.5609 98.3689 88.5732 98.8725C86.7094 99.8847 84.7847 100.855 83.2368 102.606C83.5267 101.624 83.8339 100.634 84.1064 99.6335C84.4977 98.724 84.8949 97.8183 85.3297 96.9431C86.0804 95.4437 86.9616 93.9444 88.1413 92.9931C88.8696 92.4302 89.6362 91.9576 90.4312 91.5813C91.2805 91.1512 92.1356 90.7441 92.9877 90.3293C94.5298 89.5682 96.098 88.887 97.5936 87.9889C98.761 87.3213 99.8402 86.4145 100.791 85.3023L100.805 85.2947ZM70.7902 28.6586C71.2627 30.8585 71.989 32.9503 72.9439 34.8615C73.7229 36.2659 74.6591 37.5078 75.7208 38.5451C76.773 39.6182 77.8483 40.6495 78.9092 41.677C80.0397 42.7615 81.1759 43.8385 82.2948 44.942C82.6687 45.5699 83.0484 46.1902 83.4542 46.7953C83.6803 47.673 83.8948 48.561 84.0977 49.4591C83.5873 48.8199 83.0481 48.2214 82.4832 47.6667C81.1904 46.4033 79.7991 45.2997 78.4512 44.1467L76.1005 42.1336C75.8367 41.9091 75.0222 42.4038 75.3961 42.7235L79.5121 46.2473C80.8034 47.2832 82.0235 48.4648 83.1586 49.7787C83.6719 50.4071 84.1558 51.0755 84.6079 51.7804V51.8032C84.6484 51.9935 84.6832 52.1837 84.718 52.374C84.3957 52.1598 84.0637 51.9718 83.7238 51.8108C83.2513 51.5749 82.7731 51.3504 82.2977 51.122C80.4223 50.2316 78.5295 49.3487 76.8251 47.9331C75.2138 46.5672 73.8742 44.7159 72.9178 42.5332C71.9528 40.3167 71.3054 37.8867 71.0076 35.3638C70.7474 33.146 70.6745 30.8974 70.7902 28.6586ZM76.6106 12.8509C78.0599 16.2758 79.4802 19.7806 80.5266 23.4794C81.122 25.5489 81.5693 27.6866 81.8629 29.865C82.173 32.2738 82.3122 34.7283 82.5064 37.1561C82.603 38.3866 82.6996 39.6132 82.7962 40.836C82.3354 39.5003 81.8426 38.1722 81.3962 36.8327C80.8165 35.1126 80.3585 33.2213 80.6223 31.33C80.6412 31.0994 80.6098 30.8664 80.5318 30.6583C80.4538 30.4501 80.3324 30.2753 80.1817 30.1541C80.0223 30.0057 79.4687 29.7089 79.402 30.1808C78.857 34.1042 80.631 37.6661 81.7789 41.1138C82.0262 41.8571 82.2619 42.603 82.4861 43.3514C81.9064 42.3353 81.3267 41.3079 80.7469 40.307C80.1672 39.3062 79.5875 38.2597 78.9614 37.2627C78.3353 36.2657 77.7353 35.4018 77.1614 34.4277C75.946 32.5112 75.2245 30.1385 75.1005 27.6502C74.9323 25.1615 75.2251 22.6537 75.5961 20.2182C75.9671 17.7827 76.428 15.3206 76.6106 12.8509ZM88.4717 26.5124C89.4874 31.541 89.557 36.8183 88.6746 41.8901C88.2709 44.0327 87.7328 46.1277 87.0659 48.1538C86.8369 48.8844 86.6079 49.6151 86.3934 50.3533C86.6572 47.309 87.4311 44.3522 87.7442 41.3383C87.8726 40.1589 87.9086 38.9654 87.8514 37.7764C87.8514 37.5329 87.4485 37.609 87.3442 37.6432C87.1905 37.6965 86.9471 37.8373 86.9587 38.0923C87.1935 42.3581 85.8572 46.4071 85.5094 50.5969C85.2949 49.6227 85.0659 48.6485 84.8224 47.6819C84.6804 47.1225 84.5325 46.5631 84.3818 46.0075C84.3655 42.9011 84.7156 39.81 85.4195 36.8441C86.2108 33.6856 87.6456 30.8696 88.292 27.6388C88.3558 27.2582 88.4196 26.8815 88.4717 26.501V26.5124Z" fill="url(#paint7_radial_264_3424)"/>
<path d="M107.16 62.9758C106.766 63.2422 106.273 63.8701 106.305 64.5209C106.528 68.9808 106.624 73.456 106.52 77.9235C106.467 80.1611 106.361 82.3924 106.201 84.6173C106.035 86.8282 105.833 88.8223 105.528 91.0865C105.238 93.2594 104.867 95.4171 104.418 97.5557C104.196 98.6238 103.95 99.6855 103.682 100.741C103.551 101.258 103.415 101.772 103.273 102.286V102.335V102.305L103.23 102.457C103.198 102.575 103.163 102.697 103.128 102.815C103.05 103.089 102.969 103.359 102.888 103.629C102.268 105.681 101.556 107.683 100.754 109.623C100.547 110.112 100.336 110.602 100.119 111.092L100.032 111.286L99.8672 111.643C99.7455 111.897 99.6209 112.16 99.4933 112.431C99.0237 113.409 98.5281 114.368 98.0179 115.312C96.986 117.215 95.8816 119.053 94.7425 120.849L94.3164 121.518L94.1164 121.83L94.0178 121.987C93.728 122.443 93.4207 122.9 93.1193 123.349C92.5396 124.228 91.9598 125.096 91.3627 125.963L90.4931 127.265C90.2496 127.622 89.8496 128.368 90.2033 128.825C90.5569 129.282 91.1569 128.779 91.3917 128.444C93.8381 124.848 96.2903 121.244 98.4933 117.378C100.656 113.634 102.478 109.572 103.922 105.273C105.288 101.092 106.317 96.7355 106.992 92.2738C107.663 87.8142 108.075 83.2945 108.227 78.7532C108.379 74.2069 108.352 69.6533 108.146 65.1107C108.122 64.5627 108.096 64.0109 108.067 63.4591C108.007 62.8046 107.517 62.7361 107.16 62.9758Z" fill="url(#paint8_radial_264_3424)"/>
<path d="M47.4605 144.901C45.2529 144.557 43.068 143.998 40.9241 143.226C38.7462 142.445 36.6148 141.456 34.5472 140.266C32.4775 139.07 30.4753 137.683 28.5557 136.114C26.6601 134.573 24.8049 132.83 23.0136 131.041C21.2223 129.253 19.4136 127.312 17.6454 125.402L16.9903 124.698C16.7005 124.386 16.2628 124.698 16.0454 125.006C15.8715 125.249 15.5149 125.927 15.8106 126.246C17.5874 128.149 19.3672 130.09 21.1875 131.955C23.0078 133.819 24.8658 135.577 26.8021 137.206C28.7423 138.852 30.7675 140.318 32.8631 141.594C34.9277 142.835 37.0591 143.876 39.24 144.707C41.4483 145.549 43.7008 146.178 45.9793 146.587C46.2692 146.636 46.5329 146.682 46.8083 146.723C46.9957 146.714 47.1761 146.627 47.3242 146.476C47.5029 146.309 47.6473 146.087 47.7445 145.829C47.8692 145.407 47.8518 144.958 47.4605 144.901Z" fill="url(#paint9_radial_264_3424)"/>
<path d="M45.1812 13.6724C44.0682 13.6724 43.0044 14.9586 43.0565 16.4656C43.0655 17.2017 43.2922 17.9044 43.6888 18.4249C44.0853 18.9455 44.6205 19.2432 45.1812 19.2549C46.2943 19.2549 47.3581 17.9725 47.3088 16.4656C47.2991 15.7287 47.0719 15.0256 46.6749 14.5045C46.278 13.9835 45.7425 13.6851 45.1812 13.6724Z" fill="url(#paint10_radial_264_3424)"/>
<path d="M52.973 13.3076C51.8599 13.3076 50.7961 14.5938 50.8454 16.1008C50.8558 16.8369 51.0834 17.5391 51.4803 18.0594C51.8771 18.5796 52.4122 18.8775 52.973 18.8902C54.086 18.8902 55.1498 17.6077 55.0977 16.1008C55.0895 15.364 54.863 14.6604 54.4664 14.139C54.0698 13.6176 53.5342 13.3194 52.973 13.3076Z" fill="url(#paint11_radial_264_3424)"/>
<path d="M61.186 17.3296C60.073 17.3296 59.0063 18.612 59.0585 20.1189C59.0674 20.8561 59.2945 21.5597 59.6915 22.081C60.0886 22.6023 60.6246 22.9004 61.186 22.9121C62.2962 22.9121 63.3629 21.6259 63.3107 20.1189C63.301 19.3831 63.0741 18.681 62.6777 18.1606C62.2813 17.6403 61.7465 17.3423 61.186 17.3296Z" fill="url(#paint12_radial_264_3424)"/>
<path d="M71.2788 138.189C70.1658 138.189 69.0991 139.471 69.1513 140.982C69.161 141.719 69.3883 142.421 69.7853 142.942C70.1823 143.462 70.7178 143.76 71.2788 143.772C72.389 143.772 73.4557 142.489 73.4035 140.982C73.3946 140.246 73.168 139.543 72.7715 139.021C72.3751 138.5 71.8398 138.202 71.2788 138.189Z" fill="url(#paint13_radial_264_3424)"/>
<path d="M78.7925 134.354C77.6795 134.354 76.6157 135.637 76.6679 137.144C76.6731 137.883 76.8981 138.591 77.2951 139.115C77.692 139.64 78.2293 139.94 78.7925 139.952C79.9056 139.952 80.9723 138.666 80.9201 137.159C80.9126 136.42 80.6864 135.714 80.2892 135.191C79.8921 134.667 79.3552 134.367 78.7925 134.354Z" fill="url(#paint14_radial_264_3424)"/>
<path d="M84.6373 129.968C83.5242 129.968 82.4575 131.254 82.5097 132.761C82.5201 133.497 82.7476 134.2 83.1443 134.721C83.5411 135.242 84.0762 135.54 84.6373 135.554C85.7474 135.554 86.8141 134.268 86.7619 132.761C86.753 132.024 86.5264 131.321 86.1299 130.8C85.7334 130.279 85.1982 129.981 84.6373 129.968Z" fill="url(#paint15_radial_264_3424)"/>
<path d="M84.5347 16.0938C83.4216 16.0938 82.3549 17.38 82.4071 18.8869C82.4168 19.6237 82.6441 20.3268 83.041 20.8479C83.4379 21.369 83.9735 21.6674 84.5347 21.6801C85.6449 21.6801 86.7116 20.3939 86.6594 18.8869C86.6504 18.1504 86.4238 17.4474 86.0274 16.9262C85.6309 16.405 85.0957 16.1065 84.5347 16.0938Z" fill="url(#paint16_radial_264_3424)"/>
<path d="M95.8032 35.0049C94.6902 35.0049 93.6235 36.2873 93.6757 37.7943C93.6854 38.5311 93.9126 39.2342 94.3095 39.7553C94.7064 40.2764 95.242 40.5747 95.8032 40.5875C96.9134 40.5875 97.9801 39.305 97.9279 37.7943C97.919 37.0581 97.6922 36.3555 97.2957 35.8349C96.8992 35.3143 96.3639 35.0166 95.8032 35.0049Z" fill="url(#paint17_radial_264_3424)"/>
<path d="M104.587 59.4976C105.698 59.4976 106.764 58.2152 106.712 56.7082C106.703 55.9717 106.477 55.2687 106.08 54.7475C105.684 54.2263 105.148 53.9278 104.587 53.915C103.474 53.915 102.408 55.2013 102.46 56.7082C102.47 57.4447 102.697 58.1474 103.094 58.6678C103.491 59.1883 104.026 59.4859 104.587 59.4976Z" fill="url(#paint18_radial_264_3424)"/>
<path d="M37.9186 101.608C37.9066 100.65 37.6115 99.7362 37.0955 99.0587C36.5794 98.3812 35.883 97.9937 35.1533 97.978C33.704 97.978 32.3214 99.6486 32.3881 101.608C32.4 102.566 32.6952 103.481 33.2112 104.158C33.7272 104.836 34.4236 105.223 35.1533 105.239C36.6055 105.239 37.994 103.568 37.9186 101.608Z" fill="url(#paint19_radial_264_3424)"/>
<path d="M58.209 72.1542C59.6583 72.1542 61.0439 70.4836 60.9772 68.5238C60.9645 67.5652 60.6688 66.6504 60.1524 65.9725C59.636 65.2945 58.9392 64.9063 58.209 64.8896C56.7597 64.8896 55.3771 66.5602 55.4437 68.5238C55.4557 69.4818 55.7509 70.3961 56.2669 71.0735C56.7829 71.751 57.4793 72.1385 58.209 72.1542Z" fill="url(#paint20_radial_264_3424)"/>
<path d="M35.3965 40.2803C33.9472 40.2803 32.5616 41.947 32.6283 43.9106C32.641 44.8689 32.9368 45.7833 33.4533 46.4606C33.9697 47.138 34.6665 47.5254 35.3965 47.541C36.8458 47.541 38.2284 45.8704 38.1617 43.9106C38.1498 42.9527 37.8546 42.0384 37.3386 41.3609C36.8226 40.6834 36.1261 40.2959 35.3965 40.2803Z" fill="url(#paint21_radial_264_3424)"/>
<path d="M51.4507 50.8018C50.3377 50.8018 49.271 52.0842 49.3231 53.5911C49.3321 54.3283 49.5591 55.0319 49.9562 55.5532C50.3533 56.0745 50.8893 56.3726 51.4507 56.3843C52.5609 56.3843 53.6276 55.1019 53.5754 53.5911C53.5657 52.8553 53.3388 52.1532 52.9424 51.6328C52.546 51.1124 52.0112 50.8145 51.4507 50.8018Z" fill="url(#paint22_radial_264_3424)"/>
<path d="M9.95901 70.9452C11.4083 70.9452 12.7909 69.2746 12.7243 67.311C12.7123 66.3531 12.4172 65.4388 11.9011 64.7613C11.3851 64.0839 10.6887 63.6963 9.95901 63.6807C8.5097 63.6807 7.12706 65.3512 7.19372 67.311C7.20564 68.2693 7.50072 69.1841 8.01667 69.8622C8.53262 70.5402 9.22907 70.9285 9.95901 70.9452Z" fill="url(#paint23_radial_264_3424)"/>
<path d="M20.4095 50.8018C19.2964 50.8018 18.2326 52.0842 18.2819 53.5911C18.2916 54.328 18.5189 55.0311 18.9158 55.5521C19.3127 56.0732 19.8482 56.3716 20.4095 56.3843C21.5226 56.3843 22.5864 55.1019 22.5342 53.5911C22.5252 52.855 22.2985 52.1524 21.902 51.6318C21.5054 51.1112 20.9702 50.8135 20.4095 50.8018Z" fill="url(#paint24_radial_264_3424)"/>
<path d="M34.8805 107.951C33.7674 107.951 32.7036 109.234 32.7557 110.741C32.764 111.477 32.9904 112.181 33.387 112.702C33.7836 113.224 34.3193 113.522 34.8805 113.534C35.9935 113.534 37.0573 112.251 37.008 110.741C36.9976 110.004 36.77 109.302 36.3732 108.782C35.9763 108.262 35.4412 107.964 34.8805 107.951Z" fill="url(#paint25_radial_264_3424)"/>
<path d="M34.8805 115.977C33.7674 115.977 32.7036 117.263 32.7557 118.77C32.7647 119.507 32.9914 120.21 33.3878 120.731C33.7843 121.252 34.3195 121.551 34.8805 121.563C35.9935 121.563 37.0573 120.277 37.008 118.77C36.9976 118.034 36.7701 117.331 36.3733 116.81C35.9766 116.289 35.4415 115.991 34.8805 115.977Z" fill="url(#paint26_radial_264_3424)"/>
<defs>
<radialGradient id="paint0_radial_264_3424" cx="0" cy="0" r="1" gradientUnits="userSpaceOnUse" gradientTransform="translate(40.1382 67.4145) rotate(90) scale(14.3857 2.9624)">
<stop stop-color="#9F2420"/>
<stop offset="1" stop-color="#9F2420" stop-opacity="0.41"/>
</radialGradient>
<radialGradient id="paint1_radial_264_3424" cx="0" cy="0" r="1" gradientUnits="userSpaceOnUse" gradientTransform="translate(46.5779 74.3861) rotate(90) scale(5.53746 4.08183)">
<stop stop-color="#9F2420"/>
<stop offset="1" stop-color="#9F2420" stop-opacity="0.41"/>
</radialGradient>
<radialGradient id="paint2_radial_264_3424" cx="0" cy="0" r="1" gradientUnits="userSpaceOnUse" gradientTransform="translate(51.4607 79.0259) rotate(90) scale(2.98295 2.36796)">
<stop stop-color="#9F2420"/>
<stop offset="1" stop-color="#9F2420" stop-opacity="0.41"/>
</radialGradient>
<radialGradient id="paint3_radial_264_3424" cx="0" cy="0" r="1" gradientUnits="userSpaceOnUse" gradientTransform="translate(35.4177 85.4102) rotate(90) scale(21.8135 29.8796)">
<stop stop-color="#9F2420"/>
<stop offset="1" stop-color="#9F2420" stop-opacity="0.41"/>
</radialGradient>
<radialGradient id="paint4_radial_264_3424" cx="0" cy="0" r="1" gradientUnits="userSpaceOnUse" gradientTransform="translate(30.3587 67.5453) rotate(90) scale(14.4169 2.8743)">
<stop stop-color="#9F2420"/>
<stop offset="1" stop-color="#9F2420" stop-opacity="0.41"/>
</radialGradient>
<radialGradient id="paint5_radial_264_3424" cx="0" cy="0" r="1" gradientUnits="userSpaceOnUse" gradientTransform="translate(24.1395 74.6684) rotate(90) scale(5.54585 4.14537)">
<stop stop-color="#9F2420"/>
<stop offset="1" stop-color="#9F2420" stop-opacity="0.41"/>
</radialGradient>
<radialGradient id="paint6_radial_264_3424" cx="0" cy="0" r="1" gradientUnits="userSpaceOnUse" gradientTransform="translate(19.3186 79.4717) rotate(90) scale(2.96931 2.36545)">
<stop stop-color="#9F2420"/>
<stop offset="1" stop-color="#9F2420" stop-opacity="0.41"/>
</radialGradient>
<radialGradient id="paint7_radial_264_3424" cx="0" cy="0" r="1" gradientUnits="userSpaceOnUse" gradientTransform="translate(56.5 75.7199) rotate(90) scale(75.7199 56.5)">
<stop stop-color="#9F2420"/>
<stop offset="1" stop-color="#9F2420" stop-opacity="0.41"/>
</radialGradient>
<radialGradient id="paint8_radial_264_3424" cx="0" cy="0" r="1" gradientUnits="userSpaceOnUse" gradientTransform="translate(99.1938 95.9284) rotate(90) scale(33.0793 9.1303)">
<stop stop-color="#9F2420"/>
<stop offset="1" stop-color="#9F2420" stop-opacity="0.41"/>
</radialGradient>
<radialGradient id="paint9_radial_264_3424" cx="0" cy="0" r="1" gradientUnits="userSpaceOnUse" gradientTransform="translate(31.7553 135.646) rotate(90) scale(11.0776 16.058)">
<stop stop-color="#9F2420"/>
<stop offset="1" stop-color="#9F2420" stop-opacity="0.41"/>
</radialGradient>
<radialGradient id="paint10_radial_264_3424" cx="0" cy="0" r="1" gradientUnits="userSpaceOnUse" gradientTransform="translate(45.1826 16.4636) rotate(90) scale(2.79128 2.12788)">
<stop stop-color="#9F2420"/>
<stop offset="1" stop-color="#9F2420" stop-opacity="0.41"/>
</radialGradient>
<radialGradient id="paint11_radial_264_3424" cx="0" cy="0" r="1" gradientUnits="userSpaceOnUse" gradientTransform="translate(52.9716 16.0989) rotate(90) scale(2.79127 2.12788)">
<stop stop-color="#9F2420"/>
<stop offset="1" stop-color="#9F2420" stop-opacity="0.41"/>
</radialGradient>
<radialGradient id="paint12_radial_264_3424" cx="0" cy="0" r="1" gradientUnits="userSpaceOnUse" gradientTransform="translate(61.1846 20.1209) rotate(90) scale(2.79127 2.12796)">
<stop stop-color="#9F2420"/>
<stop offset="1" stop-color="#9F2420" stop-opacity="0.41"/>
</radialGradient>
<radialGradient id="paint13_radial_264_3424" cx="0" cy="0" r="1" gradientUnits="userSpaceOnUse" gradientTransform="translate(71.2774 140.98) rotate(90) scale(2.79128 2.12797)">
<stop stop-color="#9F2420"/>
<stop offset="1" stop-color="#9F2420" stop-opacity="0.41"/>
</radialGradient>
<radialGradient id="paint14_radial_264_3424" cx="0" cy="0" r="1" gradientUnits="userSpaceOnUse" gradientTransform="translate(78.794 137.153) rotate(90) scale(2.79888 2.12796)">
<stop stop-color="#9F2420"/>
<stop offset="1" stop-color="#9F2420" stop-opacity="0.41"/>
</radialGradient>
<radialGradient id="paint15_radial_264_3424" cx="0" cy="0" r="1" gradientUnits="userSpaceOnUse" gradientTransform="translate(84.6358 132.761) rotate(90) scale(2.79317 2.12797)">
<stop stop-color="#9F2420"/>
<stop offset="1" stop-color="#9F2420" stop-opacity="0.41"/>
</radialGradient>
<radialGradient id="paint16_radial_264_3424" cx="0" cy="0" r="1" gradientUnits="userSpaceOnUse" gradientTransform="translate(84.5332 18.8869) rotate(90) scale(2.79318 2.12797)">
<stop stop-color="#9F2420"/>
<stop offset="1" stop-color="#9F2420" stop-opacity="0.41"/>
</radialGradient>
<radialGradient id="paint17_radial_264_3424" cx="0" cy="0" r="1" gradientUnits="userSpaceOnUse" gradientTransform="translate(95.8018 37.7962) rotate(90) scale(2.79128 2.12797)">
<stop stop-color="#9F2420"/>
<stop offset="1" stop-color="#9F2420" stop-opacity="0.41"/>
</radialGradient>
<radialGradient id="paint18_radial_264_3424" cx="0" cy="0" r="1" gradientUnits="userSpaceOnUse" gradientTransform="translate(104.586 56.7063) rotate(90) scale(2.79128 2.12796)">
<stop stop-color="#9F2420"/>
<stop offset="1" stop-color="#9F2420" stop-opacity="0.41"/>
</radialGradient>
<radialGradient id="paint19_radial_264_3424" cx="0" cy="0" r="1" gradientUnits="userSpaceOnUse" gradientTransform="translate(35.1536 101.608) rotate(90) scale(3.63039 2.76789)">
<stop stop-color="#9F2420"/>
<stop offset="1" stop-color="#9F2420" stop-opacity="0.41"/>
</radialGradient>
<radialGradient id="paint20_radial_264_3424" cx="0" cy="0" r="1" gradientUnits="userSpaceOnUse" gradientTransform="translate(58.2105 68.5219) rotate(90) scale(3.63228 2.76905)">
<stop stop-color="#9F2420"/>
<stop offset="1" stop-color="#9F2420" stop-opacity="0.41"/>
</radialGradient>
<radialGradient id="paint21_radial_264_3424" cx="0" cy="0" r="1" gradientUnits="userSpaceOnUse" gradientTransform="translate(35.395 43.9106) rotate(90) scale(3.63036 2.76903)">
<stop stop-color="#9F2420"/>
<stop offset="1" stop-color="#9F2420" stop-opacity="0.41"/>
</radialGradient>
<radialGradient id="paint22_radial_264_3424" cx="0" cy="0" r="1" gradientUnits="userSpaceOnUse" gradientTransform="translate(51.4493 53.593) rotate(90) scale(2.79128 2.12797)">
<stop stop-color="#9F2420"/>
<stop offset="1" stop-color="#9F2420" stop-opacity="0.41"/>
</radialGradient>
<radialGradient id="paint23_radial_264_3424" cx="0" cy="0" r="1" gradientUnits="userSpaceOnUse" gradientTransform="translate(9.95899 67.3129) rotate(90) scale(3.63227 2.76758)">
<stop stop-color="#9F2420"/>
<stop offset="1" stop-color="#9F2420" stop-opacity="0.41"/>
</radialGradient>
<radialGradient id="paint24_radial_264_3424" cx="0" cy="0" r="1" gradientUnits="userSpaceOnUse" gradientTransform="translate(20.4082 53.593) rotate(90) scale(2.79128 2.12788)">
<stop stop-color="#9F2420"/>
<stop offset="1" stop-color="#9F2420" stop-opacity="0.41"/>
</radialGradient>
<radialGradient id="paint25_radial_264_3424" cx="0" cy="0" r="1" gradientUnits="userSpaceOnUse" gradientTransform="translate(34.8818 110.742) rotate(90) scale(2.79126 2.12788)">
<stop stop-color="#9F2420"/>
<stop offset="1" stop-color="#9F2420" stop-opacity="0.41"/>
</radialGradient>
<radialGradient id="paint26_radial_264_3424" cx="0" cy="0" r="1" gradientUnits="userSpaceOnUse" gradientTransform="translate(34.8818 118.77) rotate(90) scale(2.79319 2.12788)">
<stop stop-color="#9F2420"/>
<stop offset="1" stop-color="#9F2420" stop-opacity="0.41"/>
</radialGradient>
</defs>
</svg>
