<svg width="33" height="33" viewBox="0 0 33 33" fill="none" xmlns="http://www.w3.org/2000/svg">
<path d="M8.25 2.75L4.125 8.25V27.5C4.125 28.2293 4.41473 28.9288 4.93046 29.4445C5.44618 29.9603 6.14565 30.25 6.875 30.25H26.125C26.8543 30.25 27.5538 29.9603 28.0695 29.4445C28.5853 28.9288 28.875 28.2293 28.875 27.5V8.25L24.75 2.75H8.25Z" stroke="#9F2420" strokeWidth="10" strokeLinecap="round" strokeLinejoin="round"/>
<path d="M4.125 8.25H28.875" stroke="#9F2420" strokeWidth="10" strokeLinecap="round" strokeLinejoin="round"/>
<path d="M22 13.75C22 15.2087 21.4205 16.6076 20.3891 17.6391C19.3576 18.6705 17.9587 19.25 16.5 19.25C15.0413 19.25 13.6424 18.6705 12.6109 17.6391C11.5795 16.6076 11 15.2087 11 13.75" stroke="#9F2420" strokeWidth="10" strokeLinecap="round" strokeLinejoin="round"/>
</svg>
