<svg width="42" height="42" viewBox="0 0 42 42" fill="none" xmlns="http://www.w3.org/2000/svg">
<rect x="0.0361328" width="41.7942" height="41.7942" rx="20.8971" fill="#9F2420"/>
<path d="M21.2755 9.5918C18.9718 9.5918 16.7199 10.2749 14.8045 11.5548C12.889 12.8346 11.3961 14.6537 10.5146 16.782C9.63298 18.9104 9.40232 21.2523 9.85174 23.5117C10.3012 25.7711 11.4105 27.8465 13.0394 29.4754C14.6684 31.1044 16.7438 32.2137 19.0032 32.6631C21.2626 33.1126 23.6045 32.8819 25.7328 32.0003C27.8612 31.1187 29.6803 29.6258 30.9601 27.7104C32.24 25.795 32.9231 23.543 32.9231 21.2394C32.9201 18.1512 31.692 15.1903 29.5083 13.0066C27.3246 10.8229 24.3637 9.59476 21.2755 9.5918ZM21.2755 31.095C19.3262 31.095 17.4208 30.517 15.8 29.434C14.1793 28.3511 12.916 26.8118 12.1701 25.011C11.4241 23.2101 11.229 21.2284 11.6092 19.3166C11.9895 17.4048 12.9282 15.6487 14.3065 14.2704C15.6849 12.892 17.441 11.9534 19.3528 11.5731C21.2646 11.1928 23.2462 11.388 25.0471 12.1339C26.848 12.8799 28.3872 14.1431 29.4702 15.7639C30.5531 17.3846 31.1311 19.2901 31.1311 21.2394C31.1282 23.8523 30.0889 26.3574 28.2412 28.2051C26.3936 30.0527 23.8885 31.092 21.2755 31.095ZM27.7937 19.4474C27.7405 19.553 27.6667 19.6468 27.5766 19.7234C27.4865 19.7999 27.382 19.8577 27.2693 19.8931C27.1565 19.9286 27.0378 19.9412 26.9201 19.93C26.8024 19.9189 26.6882 19.8843 26.5841 19.8282C24.9364 18.9876 23.1127 18.5502 21.263 18.5521C19.4132 18.5541 17.5904 18.9953 15.9445 19.8394C15.8163 19.9055 15.6743 19.94 15.5301 19.9402C15.3303 19.9381 15.1369 19.8692 14.9807 19.7445C14.8245 19.6198 14.7145 19.4465 14.6682 19.2521C14.6218 19.0577 14.6418 18.8534 14.7249 18.6716C14.8081 18.4899 14.9496 18.3412 15.1269 18.2491C17.0247 17.2717 19.1282 16.7608 21.263 16.7589C23.3977 16.7569 25.5021 17.2639 27.4017 18.2379C27.5071 18.2912 27.601 18.365 27.6778 18.4547C27.7547 18.5445 27.813 18.6486 27.8494 18.7611C27.8859 18.8735 27.8997 18.992 27.8901 19.1098C27.8805 19.2276 27.8478 19.3424 27.7937 19.4474ZM26.1361 22.6169C26.0828 22.7224 26.0091 22.8162 25.9193 22.8931C25.8295 22.9699 25.7254 23.0282 25.6129 23.0647C25.5005 23.1011 25.382 23.1149 25.2642 23.1054C25.1464 23.0958 25.0316 23.063 24.9266 23.0089C23.7915 22.4325 22.536 22.1329 21.263 22.1349C19.9899 22.1368 18.7354 22.4402 17.602 23.0201C17.4774 23.0848 17.3393 23.1194 17.1989 23.1209C16.994 23.1265 16.7933 23.0617 16.6304 22.9373C16.4676 22.8129 16.3523 22.6363 16.3038 22.4372C16.2553 22.238 16.2766 22.0283 16.364 21.8429C16.4515 21.6575 16.5999 21.5078 16.7845 21.4186C18.1719 20.7115 19.7071 20.3429 21.2643 20.3429C22.8215 20.3429 24.3567 20.7115 25.7441 21.4186C25.9542 21.5264 26.1132 21.7127 26.1866 21.9371C26.26 22.1615 26.2419 22.4058 26.1361 22.6169ZM24.4786 25.7976C24.3686 26.0084 24.1802 26.1677 23.954 26.241C23.7278 26.3143 23.4818 26.2958 23.269 26.1896C22.6463 25.8782 21.9592 25.717 21.263 25.7189C20.5667 25.7209 19.8806 25.8859 19.2596 26.2008C19.1324 26.257 18.9954 26.2874 18.8564 26.2904C18.6566 26.2882 18.4632 26.2194 18.307 26.0947C18.1508 25.97 18.0408 25.7967 17.9944 25.6023C17.9481 25.4079 17.9681 25.2035 18.0512 25.0218C18.1343 24.84 18.2758 24.6913 18.4532 24.5992C19.3271 24.1537 20.2947 23.9234 21.2755 23.9273C22.2475 23.9264 23.2063 24.1527 24.0754 24.588C24.1818 24.6404 24.2768 24.7134 24.3548 24.8028C24.4327 24.8921 24.4922 24.9961 24.5297 25.1086C24.5672 25.2211 24.582 25.3399 24.5732 25.4582C24.5645 25.5765 24.5323 25.6919 24.4786 25.7976Z" fill="white"/>
</svg>
