<svg width="42" height="42" viewBox="0 0 42 42" fill="none" xmlns="http://www.w3.org/2000/svg">
<rect x="0.0537109" width="41.7942" height="41.7942" rx="20.8971" fill="#9F2420"/>
<path fill-rule="evenodd" clip-rule="evenodd" d="M19.9796 16.4854C19.9796 13.4349 22.4526 10.9619 25.5031 10.9619C27.2943 10.9619 28.7233 11.808 29.6807 13.0374C30.6933 12.8299 31.6641 12.4543 32.5528 11.9264C32.2087 12.9972 31.4883 13.9071 30.525 14.4876L30.5285 14.4929C31.443 14.3825 32.336 14.1366 33.1781 13.7634L33.1764 13.767C32.5811 14.659 31.8339 15.445 30.9719 16.0862C31.0178 16.3989 31.0426 16.7115 31.0426 17.0224C31.0426 23.5351 26.0808 31.1095 16.9555 31.1095C14.2648 31.1118 11.6303 30.3391 9.36709 28.8838C9.26054 28.8154 9.16994 28.7249 9.10143 28.6184C9.03292 28.512 8.98809 28.392 8.97 28.2667C8.95191 28.1414 8.96097 28.0137 8.99657 27.8922C9.03216 27.7707 9.09347 27.6583 9.17632 27.5625C9.25511 27.4315 9.37 27.326 9.50722 27.2587C9.64445 27.1913 9.79818 27.165 9.95 27.1827C11.568 27.3735 13.1825 27.1757 14.608 26.5539C13.9049 26.2433 13.2754 25.7874 12.761 25.2163C12.2465 24.6452 11.8586 23.9718 11.6228 23.2401C11.5792 23.1041 11.5731 22.9587 11.6051 22.8195C11.6371 22.6802 11.7061 22.5522 11.8047 22.4488C11.2242 21.9393 10.7592 21.3118 10.4409 20.6081C10.1225 19.9044 9.95819 19.1408 9.95884 18.3684V18.3084C9.95879 18.1236 10.0231 17.9445 10.1408 17.802C10.2585 17.6596 10.4221 17.5625 10.6036 17.5276C10.2031 16.7548 9.99467 15.8968 9.99593 15.0264C9.99593 14.1997 10.0012 13.1575 10.5824 12.2178C10.6445 12.1183 10.7278 12.0337 10.8265 11.9702C10.9251 11.9066 11.0366 11.8657 11.1529 11.8504C11.3216 11.7972 11.5023 11.7959 11.6718 11.8466C11.8412 11.8973 11.9915 11.9977 12.1032 12.1348C14.0723 14.557 16.8886 16.1401 19.9814 16.5632V16.4854H19.9796ZM16.9555 29.3431C15.6041 29.344 14.2617 29.1214 12.9829 28.6842C14.5211 28.4305 15.9719 27.7979 17.2046 26.8436C17.3338 26.7423 17.4284 26.6034 17.4755 26.4461C17.5226 26.2888 17.5198 26.1208 17.4675 25.9651C17.4153 25.8095 17.3161 25.6738 17.1836 25.5768C17.0511 25.4798 16.8918 25.4262 16.7277 25.4234C16.1363 25.4128 15.5554 25.2657 15.0302 24.9936C14.5051 24.7215 14.0498 24.3318 13.7001 23.8549C14.0357 23.8284 14.3642 23.7701 14.6822 23.6853C14.8555 23.6389 15.0081 23.5353 15.115 23.3913C15.222 23.2473 15.2771 23.0713 15.2714 22.892C15.2656 22.7127 15.1994 22.5406 15.0835 22.4036C14.9675 22.2667 14.8087 22.1731 14.6327 22.1379C13.9607 22.0018 13.3372 21.6887 12.8267 21.2309C12.3162 20.7732 11.9372 20.1875 11.7288 19.5342C12.082 19.619 12.4512 19.6703 12.8292 19.6826C13.002 19.6884 13.1719 19.6378 13.3133 19.5383C13.4546 19.4389 13.5598 19.2961 13.6127 19.1316C13.6656 18.967 13.6634 18.7897 13.6065 18.6265C13.5496 18.4633 13.4411 18.3231 13.2973 18.2271C12.7702 17.876 12.338 17.4001 12.0391 16.8417C11.7402 16.2833 11.5839 15.6597 11.5839 15.0264C11.5839 14.7296 11.5892 14.4664 11.6069 14.2262C14.0786 16.7486 17.4099 18.2471 20.937 18.4232C21.0732 18.4301 21.2092 18.4054 21.3342 18.351C21.4593 18.2966 21.57 18.214 21.6578 18.1096C21.7456 18.0052 21.808 17.8819 21.8402 17.7494C21.8723 17.6169 21.8733 17.4787 21.8432 17.3457C21.7134 16.7941 21.7101 16.2204 21.8335 15.6674C21.9569 15.1143 22.2037 14.5964 22.5556 14.1523C22.9075 13.7082 23.3552 13.3494 23.8653 13.1028C24.3755 12.8562 24.9348 12.7282 25.5014 12.7283C27.6811 12.7283 29.2744 14.7473 29.2744 17.0242C29.2744 22.7756 24.9008 29.3431 16.9538 29.3431H16.9555Z" fill="white"/>
</svg>
