<svg width="42" height="42" viewBox="0 0 42 42" fill="none" xmlns="http://www.w3.org/2000/svg">
<rect x="0.0175781" width="41.7942" height="41.7942" rx="20.8971" fill="#9F2420"/>
<path d="M20.8586 10.2773C22.0546 10.2773 23.2814 10.3081 24.4704 10.3585L25.8749 10.4256L27.2192 10.5054L28.4781 10.5907L29.628 10.6802C30.8758 10.7757 32.05 11.3082 32.944 12.184C33.838 13.0598 34.3945 14.2229 34.5156 15.4685L34.5715 16.063L34.6764 17.3359C34.7744 18.6551 34.8471 20.0931 34.8471 21.4681C34.8471 22.8432 34.7744 24.2812 34.6764 25.6003L34.5715 26.8733C34.5533 27.0775 34.5352 27.2748 34.5156 27.4678C34.3944 28.7136 33.8377 29.8768 32.9435 30.7527C32.0492 31.6285 30.8747 32.1609 29.6266 32.2561L28.4795 32.3442L27.2206 32.4309L25.8749 32.5107L24.4704 32.5778C23.2672 32.6301 22.063 32.6571 20.8586 32.6589C19.6542 32.6571 18.45 32.6301 17.2468 32.5778L15.8423 32.5107L14.498 32.4309L13.2391 32.3442L12.0892 32.2561C10.8414 32.1606 9.66719 31.6281 8.77321 30.7522C7.87924 29.8764 7.32275 28.7134 7.20164 27.4678L7.14569 26.8733L7.04078 25.6003C6.93382 24.2255 6.87689 22.8472 6.87012 21.4681C6.87012 20.0931 6.94286 18.6551 7.04078 17.3359L7.14569 16.063C7.16388 15.8588 7.18206 15.6615 7.20164 15.4685C7.3227 14.2231 7.87899 13.0602 8.77268 12.1845C9.66637 11.3087 10.8402 10.776 12.0878 10.6802L13.2363 10.5907L14.4952 10.5054L15.8409 10.4256L17.2454 10.3585C18.4491 10.3062 19.6538 10.2792 20.8586 10.2773ZM20.8586 13.075C19.7046 13.075 18.5169 13.1058 17.3615 13.1534L15.9934 13.2191L14.6799 13.2961L13.4461 13.38L12.3158 13.4681C11.7218 13.5103 11.1618 13.7614 10.7353 14.177C10.3087 14.5925 10.043 15.1457 9.98535 15.7385C9.82169 17.4297 9.66782 19.5349 9.66782 21.4681C9.66782 23.4013 9.82169 25.5066 9.98535 27.1978C10.1043 28.4176 11.0723 29.366 12.3158 29.4682L13.4461 29.5549L14.6799 29.6388L15.9934 29.7172L17.3615 29.7829C18.5169 29.8305 19.7046 29.8612 20.8586 29.8612C22.0127 29.8612 23.2003 29.8305 24.3557 29.7829L25.7238 29.7172L27.0373 29.6402L28.2711 29.5563L29.4014 29.4682C29.9954 29.426 30.5554 29.1749 30.982 28.7593C31.4085 28.3438 31.6742 27.7906 31.7319 27.1978C31.8955 25.5066 32.0494 23.4013 32.0494 21.4681C32.0494 19.5349 31.8955 17.4297 31.7319 15.7385C31.6742 15.1457 31.4085 14.5925 30.982 14.177C30.5554 13.7614 29.9954 13.5103 29.4014 13.4681L28.2711 13.3814L27.0373 13.2975L25.7238 13.2191L24.3557 13.1534C23.1907 13.1033 22.0247 13.0771 20.8586 13.075ZM18.0609 18.0759C18.0608 17.9392 18.0941 17.8045 18.1579 17.6836C18.2218 17.5627 18.3141 17.4592 18.4271 17.3821C18.54 17.3051 18.67 17.2568 18.8059 17.2414C18.9417 17.226 19.0793 17.2441 19.2066 17.294L19.3199 17.3499L25.195 20.7407C25.312 20.8082 25.411 20.903 25.4836 21.0169C25.5561 21.1309 25.6001 21.2606 25.6117 21.3952C25.6234 21.5298 25.6024 21.6651 25.5506 21.7899C25.4987 21.9146 25.4176 22.025 25.3139 22.1116L25.195 22.1955L19.3199 25.5877C19.2015 25.6563 19.0681 25.6949 18.9314 25.7001C18.7947 25.7054 18.6588 25.6771 18.5355 25.6178C18.4122 25.5585 18.3053 25.4699 18.224 25.3599C18.1428 25.2498 18.0896 25.1215 18.0693 24.9862L18.0609 24.8603V18.0759Z" fill="white"/>
</svg>
